<svg width="440" height="168" viewBox="0 0 440 168" fill="none" xmlns="http://www.w3.org/2000/svg">
<path d="M259.783 77.4238V154.487C259.783 161.564 253.995 167.301 246.855 167.301C239.716 167.301 233.928 161.564 233.927 154.487C233.927 161.564 228.139 167.301 221 167.301C213.86 167.301 208.072 161.564 208.072 154.487C208.072 161.564 202.285 167.301 195.145 167.301C188.006 167.301 182.218 161.564 182.218 154.487V77.4238H259.783ZM192.231 160.324C191.279 160.324 190.508 161.059 190.508 161.966C190.508 162.872 191.279 163.607 192.231 163.607C193.183 163.607 193.955 162.872 193.955 161.966C193.955 161.059 193.183 160.324 192.231 160.324ZM197.976 160.324C197.025 160.324 196.253 161.059 196.253 161.966C196.253 162.872 197.024 163.607 197.976 163.607C198.928 163.607 199.7 162.872 199.7 161.966C199.7 161.059 198.928 160.324 197.976 160.324ZM218.086 160.324C217.134 160.324 216.362 161.059 216.362 161.966C216.362 162.872 217.134 163.607 218.086 163.607C219.038 163.607 219.809 162.872 219.809 161.966C219.809 161.059 219.038 160.324 218.086 160.324ZM223.832 160.324C222.88 160.324 222.108 161.059 222.108 161.966C222.108 162.872 222.88 163.607 223.832 163.607C224.784 163.607 225.555 162.872 225.555 161.966C225.555 161.059 224.784 160.324 223.832 160.324ZM243.941 160.324C242.989 160.324 242.218 161.059 242.218 161.966C242.218 162.872 242.989 163.607 243.941 163.607C244.893 163.607 245.665 162.872 245.665 161.966C245.665 161.059 244.893 160.324 243.941 160.324ZM249.687 160.324C248.735 160.324 247.964 161.059 247.964 161.966C247.964 162.872 248.735 163.607 249.687 163.607C250.639 163.607 251.411 162.872 251.411 161.966C251.411 161.059 250.639 160.324 249.687 160.324ZM187.635 155.947C186.683 155.947 185.911 156.682 185.911 157.589C185.911 158.495 186.683 159.23 187.635 159.23C188.586 159.23 189.358 158.495 189.358 157.589C189.358 156.682 188.586 155.947 187.635 155.947ZM202.573 155.947C201.621 155.947 200.849 156.682 200.849 157.589C200.85 158.495 201.621 159.23 202.573 159.23C203.525 159.23 204.296 158.495 204.297 157.589C204.297 156.682 203.525 155.947 202.573 155.947ZM213.49 155.947C212.538 155.947 211.766 156.682 211.766 157.589C211.767 158.495 212.538 159.23 213.49 159.23C214.442 159.23 215.213 158.495 215.214 157.589C215.214 156.682 214.442 155.947 213.49 155.947ZM228.428 155.947C227.477 155.947 226.705 156.682 226.705 157.589C226.705 158.495 227.477 159.23 228.428 159.23C229.38 159.23 230.152 158.495 230.152 157.589C230.152 156.682 229.38 155.947 228.428 155.947ZM239.344 155.947C238.393 155.947 237.621 156.682 237.621 157.589C237.621 158.495 238.393 159.23 239.344 159.23C240.296 159.23 241.068 158.495 241.068 157.589C241.068 156.682 240.296 155.947 239.344 155.947ZM254.283 155.947C253.331 155.947 252.559 156.682 252.559 157.589C252.559 158.495 253.331 159.23 254.283 159.23C255.235 159.23 256.006 158.495 256.007 157.589C256.007 156.682 255.235 155.947 254.283 155.947ZM195.103 153.758C193.834 153.758 192.805 154.739 192.805 155.947C192.806 157.156 193.834 158.136 195.103 158.136C196.372 158.136 197.402 157.156 197.402 155.947C197.402 154.738 196.373 153.758 195.103 153.758ZM220.959 153.758C219.69 153.758 218.661 154.738 218.661 155.947C218.661 157.156 219.69 158.136 220.959 158.136C222.228 158.136 223.256 157.156 223.257 155.947C223.257 154.738 222.228 153.758 220.959 153.758ZM246.814 153.758C245.545 153.758 244.515 154.738 244.515 155.947C244.516 157.156 245.545 158.136 246.814 158.136C248.083 158.136 249.112 157.156 249.112 155.947C249.112 154.738 248.083 153.758 246.814 153.758ZM202.96 146.81C202.959 143.145 195.431 145.283 191.667 146.81C195.431 148.337 202.96 150.474 202.96 146.81ZM210.227 145.755C209.377 145.755 208.688 146.444 208.688 147.294C208.688 148.144 209.377 148.833 210.227 148.833C211.077 148.833 211.766 148.144 211.766 147.294C211.766 146.444 211.077 145.755 210.227 145.755ZM221 145.14C219.98 145.14 219.153 145.967 219.153 146.986C219.153 148.006 219.98 148.833 221 148.833C222.02 148.833 222.846 148.006 222.846 146.986C222.846 145.966 222.02 145.14 221 145.14ZM231.157 145.755C230.307 145.755 229.618 146.444 229.618 147.294C229.618 148.144 230.307 148.833 231.157 148.833C232.007 148.833 232.696 148.144 232.696 147.294C232.696 146.444 232.007 145.755 231.157 145.755ZM250.195 146.818C246.414 145.298 238.853 143.171 238.852 146.818C238.852 150.467 246.414 148.339 250.195 146.818ZM215.152 146.371C214.642 146.371 214.228 146.784 214.228 147.294C214.228 147.804 214.642 148.218 215.152 148.218C215.662 148.218 216.075 147.804 216.075 147.294C216.075 146.784 215.662 146.371 215.152 146.371ZM226.232 146.371C225.722 146.371 225.31 146.784 225.309 147.294C225.309 147.804 225.722 148.218 226.232 148.218C226.742 148.218 227.156 147.804 227.156 147.294C227.156 146.784 226.742 146.371 226.232 146.371ZM201.316 135.283C198 131.952 192.984 140.875 190.891 145.753C195.748 143.651 204.632 138.615 201.316 135.283ZM251.162 145.699C249.06 140.843 244.023 131.959 240.692 135.274C237.361 138.591 246.284 143.606 251.162 145.699ZM252.219 133.631C248.554 133.631 250.692 141.159 252.219 144.924C253.745 141.159 255.883 133.631 252.219 133.631ZM189.772 133.443C186.124 133.443 188.252 141.005 189.772 144.786C191.292 141.005 193.421 133.443 189.772 133.443ZM221 119.9C219.142 124.825 216.54 134.675 221 134.675C225.459 134.675 222.858 124.825 221 119.9ZM217.614 118.977C213.375 120.893 205.593 125.424 208.381 128.211C211.168 130.997 215.697 123.216 217.614 118.977ZM224.385 118.977C226.302 123.216 230.833 130.998 233.62 128.211C236.407 125.424 228.625 120.893 224.385 118.977ZM189.912 124.825C189.062 124.825 188.373 125.514 188.373 126.364C188.373 127.214 189.062 127.903 189.912 127.903C190.762 127.903 191.451 127.214 191.451 126.364C191.451 125.514 190.762 124.825 189.912 124.825ZM252.703 124.825C251.853 124.825 251.164 125.514 251.164 126.364C251.164 127.214 251.853 127.903 252.703 127.903C253.553 127.903 254.242 127.214 254.242 126.364C254.242 125.514 253.553 124.825 252.703 124.825ZM189.912 120.516C189.402 120.516 188.989 120.93 188.989 121.439C188.989 121.949 189.402 122.362 189.912 122.362C190.422 122.362 190.836 121.949 190.836 121.439C190.836 120.929 190.422 120.516 189.912 120.516ZM252.703 120.516C252.193 120.516 251.78 120.93 251.78 121.439C251.78 121.949 252.193 122.362 252.703 122.362C253.213 122.362 253.627 121.949 253.627 121.439C253.627 120.929 253.213 120.516 252.703 120.516ZM221 112.513C219.3 112.513 217.922 113.891 217.922 115.591C217.922 117.291 219.3 118.669 221 118.669C222.7 118.669 224.078 117.291 224.078 115.591C224.078 113.891 222.7 112.513 221 112.513ZM216.691 115.591C211.766 113.733 201.917 111.131 201.917 115.591C201.917 120.05 211.766 117.449 216.691 115.591ZM240.084 115.591C240.083 111.132 230.234 113.733 225.309 115.591C230.234 117.449 240.084 120.05 240.084 115.591ZM189.604 113.744C188.584 113.744 187.758 114.571 187.758 115.591C187.758 116.611 188.584 117.437 189.604 117.438C190.624 117.437 191.451 116.611 191.451 115.591C191.451 114.571 190.624 113.744 189.604 113.744ZM252.395 113.744C251.375 113.744 250.549 114.571 250.549 115.591C250.549 116.611 251.375 117.437 252.395 117.438C253.415 117.437 254.242 116.611 254.242 115.591C254.242 114.571 253.415 113.744 252.395 113.744ZM217.614 112.205C215.697 107.966 211.168 100.184 208.381 102.972C205.593 105.759 213.375 110.288 217.614 112.205ZM233.62 102.972C230.833 100.184 226.302 107.966 224.385 112.205C228.625 110.289 236.406 105.759 233.62 102.972ZM189.912 109.435C189.402 109.435 188.989 109.849 188.989 110.358C188.989 110.868 189.402 111.282 189.912 111.282C190.422 111.282 190.836 110.868 190.836 110.358C190.836 109.848 190.422 109.435 189.912 109.435ZM221 96.5078C216.54 96.508 219.142 106.357 221 111.282C222.858 106.357 225.459 96.5078 221 96.5078ZM252.703 109.435C252.193 109.435 251.78 109.849 251.78 110.358C251.78 110.868 252.193 111.282 252.703 111.282C253.213 111.282 253.627 110.868 253.627 110.358C253.627 109.848 253.213 109.435 252.703 109.435ZM189.912 103.895C189.062 103.895 188.373 104.584 188.373 105.434C188.373 106.283 189.062 106.972 189.912 106.973C190.762 106.973 191.451 106.284 191.451 105.434C191.451 104.584 190.762 103.895 189.912 103.895ZM252.703 103.895C251.853 103.895 251.164 104.584 251.164 105.434C251.164 106.283 251.853 106.972 252.703 106.973C253.553 106.973 254.242 106.284 254.242 105.434C254.242 104.584 253.553 103.895 252.703 103.895ZM189.772 86.3955C188.252 90.1765 186.124 97.7383 189.772 97.7383C193.421 97.7382 191.292 90.1765 189.772 86.3955ZM252.227 86.3955C250.707 90.1764 248.579 97.7377 252.227 97.7383C255.876 97.7383 253.748 90.1765 252.227 86.3955ZM190.891 85.4287C192.984 90.3069 197.999 99.2305 201.316 95.8994C204.633 92.5681 195.748 87.5308 190.891 85.4287ZM251.108 85.4287C246.251 87.5308 237.367 92.5681 240.683 95.8994C244 99.2308 249.015 90.3069 251.108 85.4287ZM202.96 84.3721C202.96 80.7075 195.431 82.8451 191.667 84.3721C195.431 85.899 202.96 88.0368 202.96 84.3721ZM250.333 84.3721C246.568 82.8451 239.04 80.7076 239.04 84.3721C239.04 88.0367 246.568 85.899 250.333 84.3721ZM210.227 82.9639C209.377 82.9639 208.688 83.6531 208.688 84.5029C208.688 85.3529 209.377 86.042 210.227 86.042C211.077 86.0418 211.766 85.3528 211.766 84.5029C211.766 83.6533 211.077 82.9641 210.227 82.9639ZM221 82.3486C219.98 82.3487 219.153 83.1755 219.153 84.1953C219.153 85.2152 219.98 86.0419 221 86.042C222.02 86.042 222.846 85.2153 222.846 84.1953C222.846 83.1754 222.02 82.3486 221 82.3486ZM231.157 82.9639C230.307 82.964 229.618 83.6532 229.618 84.5029C229.618 85.3528 230.307 86.0418 231.157 86.042C232.007 86.042 232.696 85.3529 232.696 84.5029C232.696 83.6531 232.007 82.9639 231.157 82.9639ZM215.152 83.5801C214.642 83.5801 214.228 83.9931 214.228 84.5029C214.228 85.0129 214.642 85.4268 215.152 85.4268C215.662 85.4266 216.075 85.0128 216.075 84.5029C216.075 83.9932 215.662 83.5803 215.152 83.5801ZM226.232 83.5801C225.722 83.5803 225.31 83.9932 225.309 84.5029C225.309 85.0128 225.722 85.4266 226.232 85.4268C226.742 85.4268 227.156 85.0129 227.156 84.5029C227.156 83.9931 226.742 83.5801 226.232 83.5801Z" fill="#009E5E"/>
<path d="M350.158 57.039L368.368 131.92C370.04 138.797 365.772 145.739 358.835 147.426C351.897 149.113 344.917 144.906 343.245 138.03C344.917 144.906 340.65 151.849 333.712 153.536C326.775 155.223 319.795 151.016 318.123 144.139C319.795 151.016 315.526 157.958 308.589 159.645C301.651 161.332 294.672 157.125 292.999 150.249L274.79 75.3674L350.158 57.039ZM304.109 153.554C303.184 153.779 302.608 154.676 302.822 155.556C303.036 156.437 303.96 156.969 304.884 156.744C305.809 156.519 306.386 155.623 306.171 154.742C305.957 153.861 305.034 153.329 304.109 153.554ZM309.692 152.196C308.767 152.421 308.191 153.318 308.405 154.199C308.619 155.08 309.543 155.611 310.468 155.386C311.393 155.161 311.969 154.265 311.755 153.384C311.54 152.503 310.617 151.971 309.692 152.196ZM329.232 147.444C328.307 147.669 327.731 148.566 327.945 149.447C328.159 150.328 329.083 150.86 330.008 150.635C330.933 150.41 331.509 149.513 331.295 148.632C331.08 147.752 330.157 147.22 329.232 147.444ZM334.814 146.087C333.89 146.312 333.314 147.209 333.527 148.089C333.742 148.97 334.665 149.502 335.59 149.277C336.515 149.052 337.091 148.156 336.877 147.275C336.663 146.394 335.739 145.862 334.814 146.087ZM354.355 141.335C353.43 141.56 352.854 142.456 353.068 143.337C353.283 144.218 354.206 144.75 355.131 144.525C356.056 144.3 356.632 143.404 356.418 142.523C356.204 141.642 355.28 141.11 354.355 141.335ZM359.938 139.977C359.013 140.202 358.437 141.099 358.651 141.98C358.865 142.861 359.788 143.392 360.713 143.168C361.638 142.943 362.215 142.046 362 141.165C361.786 140.284 360.863 139.752 359.938 139.977ZM298.608 150.387C297.683 150.612 297.107 151.509 297.321 152.39C297.535 153.27 298.459 153.802 299.384 153.577C300.309 153.352 300.886 152.456 300.672 151.575C300.457 150.694 299.533 150.162 298.608 150.387ZM313.124 146.857C312.199 147.082 311.623 147.978 311.837 148.859C312.052 149.74 312.975 150.272 313.9 150.047C314.825 149.822 315.401 148.926 315.187 148.045C314.973 147.164 314.049 146.632 313.124 146.857ZM323.731 144.278C322.806 144.503 322.23 145.399 322.444 146.28C322.659 147.161 323.582 147.693 324.507 147.468C325.432 147.243 326.008 146.346 325.794 145.465C325.58 144.584 324.656 144.053 323.731 144.278ZM338.247 140.748C337.322 140.973 336.745 141.869 336.96 142.75C337.174 143.631 338.098 144.163 339.022 143.938C339.947 143.713 340.523 142.816 340.309 141.936C340.095 141.055 339.172 140.523 338.247 140.748ZM348.854 138.168C347.929 138.393 347.353 139.29 347.568 140.17C347.782 141.051 348.705 141.583 349.63 141.358C350.555 141.133 351.131 140.237 350.917 139.356C350.703 138.475 349.779 137.943 348.854 138.168ZM363.37 134.638C362.445 134.863 361.869 135.76 362.083 136.641C362.297 137.521 363.221 138.053 364.146 137.828C365.071 137.603 365.647 136.707 365.433 135.826C365.218 134.945 364.295 134.413 363.37 134.638ZM305.349 146.495C304.115 146.795 303.348 147.99 303.633 149.165C303.919 150.34 305.15 151.048 306.383 150.749C307.616 150.449 308.384 149.254 308.099 148.079C307.813 146.905 306.582 146.195 305.349 146.495ZM330.472 140.385C329.239 140.685 328.47 141.881 328.756 143.056C329.041 144.23 330.273 144.939 331.507 144.639C332.74 144.339 333.508 143.144 333.222 141.97C332.937 140.795 331.705 140.085 330.472 140.385ZM355.594 134.276C354.361 134.576 353.593 135.772 353.879 136.946C354.165 138.121 355.396 138.829 356.629 138.53C357.862 138.23 358.631 137.035 358.345 135.86C358.06 134.685 356.828 133.976 355.594 134.276ZM311.341 137.887C310.475 134.327 303.665 138.182 300.368 140.555C304.386 141.149 312.207 141.448 311.341 137.887ZM318.153 135.146C317.327 135.347 316.82 136.178 317.021 137.004C317.221 137.83 318.054 138.337 318.88 138.136C319.706 137.935 320.212 137.103 320.012 136.277C319.811 135.451 318.978 134.945 318.153 135.146ZM328.475 132.001C327.484 132.242 326.877 133.241 327.117 134.232C327.358 135.223 328.357 135.831 329.348 135.59C330.339 135.349 330.947 134.35 330.706 133.359C330.465 132.369 329.466 131.76 328.475 132.001ZM338.491 130.2C337.665 130.401 337.158 131.232 337.359 132.058C337.559 132.884 338.392 133.391 339.218 133.19C340.044 132.989 340.55 132.157 340.35 131.331C340.149 130.505 339.316 129.999 338.491 130.2ZM357.241 126.735C353.208 126.151 345.357 125.87 346.219 129.415C347.082 132.959 353.926 129.105 357.241 126.735ZM323.083 134.58C322.588 134.7 322.285 135.199 322.405 135.695C322.525 136.19 323.024 136.495 323.52 136.374C324.015 136.254 324.32 135.754 324.199 135.258C324.078 134.763 323.579 134.459 323.083 134.58ZM333.851 131.961C333.355 132.082 333.051 132.581 333.171 133.076C333.292 133.572 333.791 133.876 334.287 133.756C334.783 133.635 335.086 133.136 334.965 132.64C334.845 132.145 334.346 131.841 333.851 131.961ZM307.02 127.075C303.01 124.622 300.246 134.477 299.365 139.712C303.587 136.522 311.029 129.529 307.02 127.075ZM357.916 125.418C354.725 121.195 347.731 113.753 345.278 117.762C342.825 121.772 352.681 124.537 357.916 125.418ZM356.091 113.442C352.53 114.307 356.386 121.118 358.759 124.415C359.353 120.396 359.651 112.576 356.091 113.442ZM295.367 128.015C291.823 128.878 295.677 135.722 298.048 139.037C298.631 135.004 298.913 127.153 295.367 128.015ZM322.512 107.477C321.87 112.701 321.669 122.887 326.003 121.833C330.335 120.779 325.481 111.823 322.512 107.477ZM319.003 107.379C315.337 110.243 308.846 116.484 312.213 118.534C315.579 120.584 318.143 111.951 319.003 107.379ZM325.583 105.779C328.447 109.445 334.687 115.936 336.737 112.57C338.787 109.203 330.155 106.64 325.583 105.779ZM293.468 119.608C292.642 119.809 292.135 120.641 292.336 121.467C292.537 122.293 293.369 122.8 294.195 122.599C295.021 122.398 295.528 121.566 295.327 120.74C295.126 119.914 294.294 119.407 293.468 119.608ZM354.481 104.771C353.655 104.972 353.148 105.804 353.349 106.63C353.55 107.456 354.382 107.963 355.208 107.762C356.034 107.561 356.54 106.728 356.34 105.903C356.139 105.077 355.306 104.57 354.481 104.771ZM292.449 115.421C291.954 115.541 291.649 116.041 291.77 116.537C291.891 117.032 292.39 117.335 292.886 117.215C293.381 117.094 293.685 116.596 293.564 116.1C293.444 115.605 292.945 115.3 292.449 115.421ZM353.462 100.583C352.967 100.704 352.662 101.204 352.783 101.699C352.903 102.195 353.403 102.498 353.899 102.378C354.394 102.257 354.699 101.758 354.578 101.263C354.458 100.767 353.958 100.463 353.462 100.583ZM320.766 100.298C319.114 100.7 318.101 102.365 318.502 104.017C318.904 105.668 320.569 106.682 322.221 106.28C323.872 105.878 324.886 104.214 324.484 102.562C324.082 100.91 322.417 99.8968 320.766 100.298ZM317.306 104.308C312.081 103.666 301.896 103.466 302.95 107.799C304.003 112.132 312.959 107.277 317.306 104.308ZM340.036 98.78C338.982 94.4471 330.026 99.3019 325.68 102.271C330.904 102.913 341.09 103.113 340.036 98.78ZM290.55 108.914C289.559 109.155 288.952 110.153 289.192 111.144C289.433 112.135 290.432 112.743 291.423 112.502C292.414 112.261 293.022 111.263 292.781 110.272C292.54 109.281 291.541 108.673 290.55 108.914ZM351.563 94.0762C350.572 94.3172 349.964 95.316 350.205 96.307C350.446 97.2981 351.445 97.906 352.436 97.665C353.427 97.4239 354.035 96.4253 353.794 95.4343C353.553 94.4434 352.554 93.8354 351.563 94.0762ZM317.403 100.799C314.539 97.1331 308.298 90.6426 306.249 94.0096C304.2 97.3764 312.831 99.9389 317.403 100.799ZM330.773 88.0456C327.406 85.996 324.844 94.6272 323.983 99.1994C327.649 96.3352 334.14 90.0953 330.773 88.0456ZM289.831 104.654C289.336 104.775 289.031 105.274 289.152 105.769C289.272 106.265 289.772 106.569 290.268 106.449C290.763 106.328 291.066 105.828 290.946 105.333C290.825 104.837 290.327 104.534 289.831 104.654ZM316.984 84.7467C312.651 85.8005 317.506 94.7564 320.475 99.1027C321.117 93.8784 321.317 83.6933 316.984 84.7467ZM350.844 89.817C350.349 89.9375 350.044 90.4365 350.164 90.932C350.285 91.4275 350.785 91.7319 351.28 91.6114C351.776 91.4908 352.08 90.9909 351.96 90.4954C351.839 89.9999 351.34 89.6965 350.844 89.817ZM288.522 99.2701C287.696 99.471 287.189 100.303 287.39 101.129C287.591 101.955 288.423 102.462 289.249 102.261C290.075 102.06 290.582 101.228 290.381 100.402C290.18 99.5762 289.348 99.0694 288.522 99.2701ZM349.535 84.4329C348.709 84.6337 348.202 85.4662 348.403 86.292C348.604 87.1179 349.436 87.6247 350.262 87.4238C351.088 87.223 351.595 86.3906 351.394 85.5647C351.193 84.7389 350.361 84.2321 349.535 84.4329ZM284.25 82.2999C283.667 86.3329 283.386 94.1828 286.931 93.3215C290.476 92.4593 286.621 85.6146 284.25 82.2999ZM344.938 67.5418C344.354 71.575 344.073 79.4255 347.618 78.5633C351.163 77.7012 347.308 70.8565 344.938 67.5418ZM285.11 81.0958C288.296 85.3413 295.278 92.8274 297.714 88.8066C300.149 84.786 290.326 81.9907 285.11 81.0958ZM343.621 66.867C339.398 70.0573 331.956 77.0511 335.966 79.5043C339.976 81.9572 342.74 72.1016 343.621 66.867ZM296.587 77.2174C295.721 73.6569 288.911 77.5127 285.614 79.8859C289.633 80.48 297.453 80.7782 296.587 77.2174ZM342.619 66.0233C338.6 65.4291 330.78 65.131 331.645 68.6918C332.511 72.2527 339.322 68.3965 342.619 66.0233ZM303.315 74.1329C302.49 74.3338 301.983 75.1654 302.183 75.9911C302.384 76.817 303.217 77.3237 304.043 77.1229C304.868 76.9221 305.375 76.0897 305.174 75.2638C304.973 74.4381 304.141 73.9321 303.315 74.1329ZM313.638 70.9885C312.647 71.2294 312.039 72.2282 312.28 73.2192C312.521 74.2103 313.52 74.8182 314.511 74.5772C315.502 74.3361 316.11 73.3375 315.869 72.3465C315.628 71.3556 314.629 70.7476 313.638 70.9885ZM323.653 69.1871C322.828 69.3879 322.321 70.2195 322.521 71.0453C322.722 71.8712 323.555 72.378 324.38 72.1771C325.206 71.9762 325.713 71.1438 325.512 70.318C325.311 69.4923 324.479 68.9864 323.653 69.1871ZM308.246 73.567C307.751 73.6876 307.447 74.1865 307.567 74.6818C307.688 75.1773 308.187 75.4818 308.683 75.3614C309.178 75.2409 309.482 74.741 309.362 74.2455C309.241 73.7502 308.742 73.4466 308.246 73.567ZM319.013 70.9486C318.518 71.0691 318.214 71.5682 318.334 72.0636C318.454 72.5592 318.954 72.8635 319.45 72.743C319.945 72.6225 320.249 72.1228 320.128 71.6273C320.008 71.132 319.509 70.8282 319.013 70.9486Z" fill="#F52F1B"/>
<path d="M431.64 13.5151L469.636 80.5602C473.125 86.717 470.919 94.5612 464.707 98.0815C458.496 101.602 450.632 99.4648 447.143 93.3079C450.632 99.4648 448.425 107.309 442.213 110.83C436.002 114.35 428.138 112.213 424.648 106.056C428.138 112.213 425.931 120.058 419.719 123.578C413.508 127.098 405.643 124.961 402.154 118.804L364.158 51.759L431.64 13.5151ZM413.745 118.945C412.917 119.414 412.608 120.434 413.055 121.223C413.502 122.011 414.535 122.27 415.364 121.801C416.192 121.331 416.501 120.312 416.054 119.523C415.607 118.734 414.573 118.475 413.745 118.945ZM418.743 116.112C417.915 116.581 417.606 117.601 418.053 118.39C418.5 119.179 419.534 119.438 420.362 118.968C421.19 118.499 421.499 117.479 421.052 116.69C420.605 115.902 419.571 115.643 418.743 116.112ZM436.238 106.197C435.41 106.666 435.101 107.686 435.548 108.475C435.995 109.264 437.029 109.522 437.857 109.053C438.685 108.584 438.994 107.564 438.547 106.775C438.1 105.987 437.066 105.728 436.238 106.197ZM441.237 103.364C440.409 103.833 440.1 104.853 440.547 105.642C440.994 106.431 442.028 106.689 442.856 106.22C443.684 105.751 443.993 104.731 443.546 103.942C443.099 103.153 442.065 102.895 441.237 103.364ZM458.732 93.4487C457.904 93.918 457.595 94.938 458.042 95.7267C458.489 96.5155 459.523 96.7745 460.351 96.3051C461.179 95.8357 461.488 94.8158 461.041 94.0271C460.594 93.2384 459.561 92.9794 458.732 93.4487ZM463.731 90.6161C462.903 91.0855 462.594 92.1055 463.04 92.8941C463.487 93.6827 464.521 93.9415 465.349 93.4724C466.178 93.0031 466.487 91.9832 466.04 91.1944C465.593 90.4058 464.559 90.1467 463.731 90.6161ZM407.588 117.403C406.759 117.872 406.45 118.892 406.897 119.681C407.345 120.469 408.378 120.729 409.206 120.259C410.034 119.79 410.343 118.77 409.897 117.981C409.45 117.193 408.416 116.934 407.588 117.403ZM420.584 110.037C419.756 110.507 419.447 111.527 419.894 112.316C420.341 113.104 421.375 113.363 422.203 112.894C423.031 112.425 423.34 111.405 422.893 110.616C422.446 109.827 421.412 109.568 420.584 110.037ZM430.082 104.655C429.254 105.124 428.944 106.145 429.391 106.933C429.838 107.722 430.873 107.981 431.701 107.511C432.528 107.042 432.837 106.022 432.391 105.233C431.944 104.445 430.91 104.186 430.082 104.655ZM443.078 97.2894C442.25 97.7587 441.941 98.7786 442.388 99.5674C442.835 100.356 443.869 100.615 444.697 100.146C445.525 99.6764 445.834 98.6563 445.387 97.8677C444.94 97.0791 443.906 96.8203 443.078 97.2894ZM452.575 91.9072C451.747 92.3766 451.438 93.3965 451.885 94.1852C452.332 94.9736 453.366 95.2327 454.194 94.7636C455.022 94.2943 455.331 93.2742 454.884 92.4855C454.437 91.6968 453.403 91.4378 452.575 91.9072ZM465.572 84.5417C464.744 85.0111 464.435 86.031 464.882 86.8197C465.329 87.6082 466.362 87.8672 467.19 87.3981C468.019 86.9288 468.327 85.9088 467.881 85.12C467.434 84.3313 466.4 84.0723 465.572 84.5417ZM413.006 111.816C411.902 112.442 411.49 113.802 412.086 114.853C412.682 115.905 414.06 116.25 415.164 115.624C416.269 114.999 416.681 113.639 416.085 112.587C415.489 111.535 414.11 111.19 413.006 111.816ZM435.5 99.0675C434.396 99.6933 433.985 101.054 434.581 102.105C435.177 103.157 436.555 103.502 437.659 102.876C438.763 102.251 439.174 100.891 438.579 99.8394C437.983 98.7877 436.604 98.4417 435.5 99.0675ZM457.994 86.3194C456.89 86.9452 456.478 88.306 457.074 89.3576C457.67 90.409 459.049 90.7539 460.153 90.1282C461.257 89.5024 461.669 88.1428 461.073 87.0912C460.477 86.0396 459.099 85.6937 457.994 86.3194ZM416.415 101.897C414.608 98.7092 409.112 104.281 406.59 107.465C410.618 106.937 418.222 105.085 416.415 101.897ZM422.218 97.3962C421.479 97.8152 421.219 98.7546 421.638 99.494C422.057 100.233 422.996 100.493 423.736 100.074C424.475 99.6549 424.734 98.7161 424.315 97.9768C423.896 97.2376 422.957 96.9774 422.218 97.3962ZM431.287 91.5495C430.399 92.0524 430.088 93.1793 430.591 94.0666C431.093 94.954 432.22 95.2656 433.108 94.7627C433.995 94.2598 434.307 93.133 433.804 92.2456C433.301 91.3583 432.174 91.0466 431.287 91.5495ZM440.427 87.0767C439.687 87.4958 439.428 88.4352 439.847 89.1745C440.266 89.9139 441.205 90.1736 441.944 89.7547C442.684 89.3356 442.944 88.3963 442.525 87.6568C442.105 86.9176 441.166 86.6577 440.427 87.0767ZM457.514 78.6151C453.475 79.1568 445.848 81.0337 447.646 84.2077C449.445 87.3819 454.974 81.802 457.514 78.6151ZM426.806 95.5041C426.363 95.7555 426.206 96.3188 426.458 96.7624C426.709 97.2061 427.273 97.3621 427.717 97.1107C428.16 96.8591 428.316 96.2955 428.064 95.8519C427.813 95.4086 427.25 95.253 426.806 95.5041ZM436.446 90.041C436.003 90.2924 435.847 90.8553 436.098 91.2989C436.35 91.7425 436.913 91.8989 437.356 91.6476C437.8 91.3962 437.956 90.8321 437.705 90.3884C437.453 89.9449 436.89 89.7896 436.446 90.041ZM409.302 92.6786C404.774 91.4162 404.81 101.652 405.395 106.928C408.584 102.705 413.83 93.9416 409.302 92.6786ZM457.803 77.1648C453.58 73.9759 444.817 68.7298 443.554 73.2578C442.291 77.7857 452.528 77.7492 457.803 77.1648ZM452.772 66.1443C449.585 67.9513 455.156 73.4471 458.34 75.9692C457.813 71.9413 455.961 64.3375 452.772 66.1443ZM398.352 96.7706C395.178 98.5695 400.758 104.099 403.944 106.639C403.403 102.6 401.526 94.972 398.352 96.7706ZM418.842 69.5914C419.654 74.7922 422.247 84.6437 426.127 82.4451C430.007 80.2463 422.887 72.9598 418.842 69.5914ZM415.441 70.457C412.698 74.2147 408.161 81.9933 411.96 83.0439C415.76 84.0946 415.864 75.0902 415.441 70.457ZM421.332 67.1183C425.09 69.8615 432.869 74.3982 433.919 70.5991C434.97 66.8 425.966 66.6955 421.332 67.1183ZM394.224 89.204C393.485 89.6231 393.225 90.5624 393.644 91.3018C394.063 92.0409 395.002 92.3008 395.742 91.8819C396.481 91.4629 396.741 90.5235 396.322 89.7841C395.903 89.0446 394.964 88.7849 394.224 89.204ZM448.852 58.2446C448.113 58.6638 447.853 59.603 448.272 60.3424C448.691 61.0816 449.631 61.3414 450.37 60.9226C451.109 60.5036 451.369 59.5642 450.95 58.8247C450.531 58.0853 449.592 57.8255 448.852 58.2446ZM392.099 85.4546C391.656 85.7061 391.5 86.2698 391.752 86.7134C392.003 87.1568 392.566 87.3125 393.01 87.0612C393.453 86.8099 393.61 86.2465 393.358 85.8029C393.107 85.3592 392.543 85.2032 392.099 85.4546ZM446.727 54.4953C446.284 54.7468 446.129 55.3104 446.38 55.754C446.631 56.1974 447.194 56.3531 447.638 56.1019C448.081 55.8505 448.238 55.2872 447.987 54.8435C447.735 54.3998 447.171 54.2438 446.727 54.4953ZM415.2 63.1641C413.721 64.0023 413.201 65.8808 414.039 67.3597C414.878 68.8387 416.756 69.3581 418.235 68.52C419.714 67.6819 420.234 65.8033 419.395 64.3244C418.557 62.8455 416.679 62.326 415.2 63.1641ZM412.968 67.9669C407.767 68.7786 397.917 71.3713 400.115 75.251C402.314 79.1308 409.6 72.0118 412.968 67.9669ZM433.32 56.4326C431.122 52.553 423.835 59.6724 420.467 63.7172C425.668 62.9056 435.519 60.3124 433.32 56.4326ZM388.493 79.7151C387.606 80.218 387.294 81.3449 387.797 82.2322C388.3 83.1196 389.427 83.4312 390.314 82.9283C391.201 82.4254 391.513 81.2986 391.01 80.4112C390.507 79.5239 389.38 79.2122 388.493 79.7151ZM443.121 48.7558C442.234 49.2587 441.922 50.3856 442.425 51.2729C442.928 52.1602 444.055 52.4718 444.942 51.969C445.829 51.4661 446.141 50.3392 445.638 49.4519C445.135 48.5646 444.008 48.2529 443.121 48.7558ZM412.102 64.5658C408.345 61.8226 400.566 57.2858 399.516 61.085C398.465 64.8841 407.469 64.9886 412.102 64.5658ZM421.475 48.6402C417.675 47.5897 417.571 56.594 417.994 61.2271C420.737 57.4695 425.274 49.6908 421.475 48.6402ZM386.636 75.8141C386.192 76.0656 386.037 76.6293 386.288 77.0729C386.54 77.5164 387.103 77.672 387.546 77.4207C387.99 77.1693 388.146 76.606 387.895 76.1624C387.643 75.7187 387.079 75.5627 386.636 75.8141ZM407.308 49.2399C403.429 51.4387 410.548 58.7242 414.593 62.0927C413.781 56.8919 411.188 47.0411 407.308 49.2399ZM441.264 44.8548C440.82 45.1063 440.665 45.6699 440.916 46.1135C441.168 46.5571 441.731 46.7126 442.174 46.4614C442.618 46.21 442.774 45.6467 442.523 45.203C442.272 44.7593 441.707 44.6033 441.264 44.8548ZM383.904 70.9943C383.165 71.4134 382.905 72.3527 383.324 73.0921C383.743 73.8315 384.682 74.0912 385.422 73.6723C386.161 73.2532 386.421 72.3139 386.002 71.5744C385.583 70.835 384.644 70.5752 383.904 70.9943ZM438.532 40.035C437.793 40.4541 437.533 41.3934 437.952 42.1328C438.371 42.8721 439.31 43.1318 440.05 42.7129C440.789 42.2939 441.049 41.3546 440.63 40.6151C440.211 39.8756 439.272 39.6159 438.532 40.035ZM375.155 55.839C375.696 59.8781 377.573 67.5062 380.747 65.7072C383.921 63.9082 378.341 58.379 375.155 55.839ZM429.49 25.0453C430.032 29.0843 431.909 36.7118 435.083 34.9135C438.257 33.1146 432.677 27.5852 429.49 25.0453ZM375.652 54.4461C379.878 57.6582 388.641 62.9489 389.884 58.4156C391.127 53.8821 380.913 53.8803 375.652 54.4461ZM428.04 24.756C424.851 28.9795 419.605 37.7425 424.133 39.0055C428.661 40.2683 428.625 30.0319 428.04 24.756ZM385.63 47.5765C383.823 44.3882 378.327 49.9601 375.805 53.1445C379.833 52.6169 387.437 50.7648 385.63 47.5765ZM426.845 24.219C422.817 24.7467 415.213 26.5988 417.02 29.7871C418.827 32.9753 424.322 27.4035 426.845 24.219ZM391.259 42.7681C390.519 43.1871 390.26 44.1264 390.678 44.8659C391.097 45.6053 392.037 45.8651 392.776 45.446C393.515 45.0268 393.775 44.088 393.356 43.3487C392.936 42.6095 391.998 42.3493 391.259 42.7681ZM400.327 36.9214C399.44 37.4243 399.128 38.5512 399.631 39.4385C400.134 40.3259 401.261 40.6375 402.148 40.1346C403.036 39.6317 403.347 38.5049 402.844 37.6175C402.341 36.7302 401.215 36.4185 400.327 36.9214ZM409.467 32.4486C408.728 32.8677 408.468 33.8071 408.887 34.5464C409.306 35.2858 410.246 35.5455 410.985 35.1266C411.725 34.7075 411.984 33.7682 411.565 33.0287C411.146 32.2894 410.207 32.0296 409.467 32.4486ZM395.847 40.876C395.403 41.1274 395.247 41.6907 395.498 42.1343C395.75 42.578 396.314 42.734 396.757 42.4826C397.201 42.231 397.356 41.6674 397.105 41.2238C396.853 40.7804 396.291 40.6249 395.847 40.876ZM405.487 35.4129C405.043 35.6644 404.888 36.2272 405.139 36.6708C405.39 37.1144 405.953 37.2708 406.397 37.0195C406.841 36.7681 406.997 36.204 406.745 35.7603C406.494 35.3168 405.93 35.1615 405.487 35.4129Z" fill="#FFB200"/>
<path d="M167.638 75.7098L148.899 150.46C147.178 157.325 140.169 161.482 133.244 159.746C126.318 158.01 122.099 151.038 123.82 144.173C122.099 151.038 115.09 155.195 108.164 153.459C101.239 151.723 97.0205 144.751 98.7412 137.887C97.0203 144.751 90.011 148.908 83.0857 147.172C76.1604 145.436 71.941 138.464 73.6617 131.6L92.4004 56.8491L167.638 75.7098ZM81.9556 139.696C81.0323 139.465 80.105 139.99 79.8845 140.87C79.664 141.749 80.2339 142.649 81.1572 142.881C82.0806 143.112 83.0078 142.587 83.2283 141.708C83.4486 140.828 82.8789 139.928 81.9556 139.696ZM87.5292 141.094C86.6059 140.862 85.6786 141.387 85.4581 142.267C85.2377 143.146 85.8075 144.047 86.7308 144.278C87.6541 144.509 88.5815 143.984 88.8019 143.105C89.0222 142.226 88.4523 141.325 87.5292 141.094ZM107.035 145.983C106.112 145.752 105.184 146.277 104.964 147.156C104.743 148.036 105.313 148.936 106.237 149.168C107.16 149.399 108.087 148.874 108.308 147.995C108.528 147.115 107.958 146.215 107.035 145.983ZM112.608 147.38C111.684 147.149 110.757 147.674 110.537 148.553C110.316 149.433 110.886 150.333 111.809 150.565C112.733 150.796 113.66 150.271 113.88 149.392C114.101 148.512 113.531 147.612 112.608 147.38ZM132.114 152.27C131.19 152.039 130.263 152.564 130.042 153.443C129.822 154.323 130.392 155.223 131.315 155.455C132.239 155.686 133.167 155.161 133.387 154.282C133.608 153.402 133.037 152.501 132.114 152.27ZM137.687 153.667C136.764 153.436 135.837 153.961 135.616 154.84C135.396 155.72 135.965 156.62 136.889 156.852C137.812 157.083 138.739 156.558 138.96 155.679C139.18 154.799 138.61 153.899 137.687 153.667ZM78.5611 134.333C77.6379 134.102 76.7105 134.627 76.4901 135.506C76.2699 136.385 76.8398 137.286 77.7628 137.518C78.686 137.749 79.6132 137.224 79.8339 136.344C80.0543 135.465 79.4845 134.564 78.5611 134.333ZM93.0512 137.965C92.128 137.734 91.2006 138.259 90.9802 139.139C90.76 140.018 91.3299 140.918 92.2529 141.15C93.1761 141.382 94.1033 140.856 94.324 139.977C94.5444 139.097 93.9746 138.197 93.0512 137.965ZM103.641 140.62C102.717 140.389 101.79 140.914 101.57 141.793C101.349 142.672 101.919 143.573 102.842 143.805C103.765 144.036 104.693 143.511 104.913 142.631C105.134 141.752 104.564 140.851 103.641 140.62ZM118.131 144.252C117.207 144.021 116.28 144.546 116.06 145.426C115.839 146.305 116.409 147.206 117.332 147.437C118.256 147.668 119.183 147.143 119.403 146.264C119.624 145.384 119.054 144.484 118.131 144.252ZM128.72 146.907C127.797 146.675 126.869 147.201 126.649 148.08C126.429 148.959 126.998 149.86 127.922 150.092C128.845 150.323 129.772 149.797 129.993 148.918C130.213 148.039 129.643 147.139 128.72 146.907ZM143.21 150.539C142.287 150.308 141.36 150.833 141.139 151.713C140.919 152.592 141.489 153.493 142.412 153.724C143.335 153.955 144.262 153.43 144.483 152.551C144.703 151.671 144.133 150.771 143.21 150.539ZM86.339 134.026C85.1079 133.717 83.8717 134.418 83.5778 135.591C83.2841 136.763 84.0435 137.964 85.2745 138.272C86.5055 138.581 87.7414 137.88 88.0355 136.708C88.3295 135.536 87.5701 134.334 86.339 134.026ZM111.419 140.313C110.187 140.004 108.95 140.705 108.656 141.877C108.363 143.05 109.123 144.25 110.354 144.559C111.585 144.867 112.821 144.167 113.115 142.995C113.409 141.823 112.649 140.621 111.419 140.313ZM136.497 146.599C135.266 146.291 134.03 146.992 133.736 148.164C133.442 149.337 134.202 150.537 135.432 150.846C136.663 151.154 137.9 150.454 138.194 149.282C138.488 148.109 137.728 146.908 136.497 146.599ZM95.6492 129.196C96.54 125.642 88.718 125.885 84.6952 126.45C87.9754 128.847 94.7581 132.751 95.6492 129.196ZM102.954 129.94C102.13 129.734 101.294 130.234 101.087 131.059C100.88 131.883 101.381 132.719 102.206 132.926C103.03 133.133 103.866 132.632 104.073 131.807C104.279 130.983 103.779 130.147 102.954 129.94ZM113.554 131.963C112.565 131.715 111.561 132.316 111.313 133.305C111.065 134.294 111.666 135.298 112.656 135.546C113.645 135.793 114.648 135.193 114.896 134.203C115.144 133.214 114.543 132.211 113.554 131.963ZM123.257 135.03C122.432 134.823 121.596 135.324 121.39 136.148C121.183 136.973 121.684 137.809 122.508 138.015C123.333 138.222 124.169 137.721 124.375 136.897C124.582 136.072 124.081 135.236 123.257 135.03ZM141.465 140.69C138.167 138.297 131.349 134.394 130.461 137.932C129.574 141.471 137.428 141.246 141.465 140.69ZM107.581 131.735C107.087 131.611 106.585 131.911 106.461 132.406C106.337 132.901 106.638 133.403 107.132 133.527C107.627 133.651 108.129 133.35 108.253 132.855C108.377 132.361 108.076 131.859 107.581 131.735ZM118.33 134.43C117.835 134.306 117.333 134.606 117.209 135.1C117.085 135.595 117.386 136.097 117.881 136.221C118.375 136.345 118.877 136.044 119.001 135.549C119.124 135.055 118.824 134.554 118.33 134.43ZM96.857 117.615C94.4497 113.578 87.4161 121.014 84.2 125.237C89.4222 124.379 99.2641 121.653 96.857 117.615ZM142.675 139.84C141.817 134.618 139.091 124.775 135.053 127.182C131.015 129.589 138.452 136.624 142.675 139.84ZM146.634 128.391C143.079 127.5 143.322 135.322 143.888 139.345C146.285 136.065 150.188 129.282 146.634 128.391ZM86.1067 113.024C82.5681 112.138 82.7934 119.989 83.3486 124.027C85.7426 120.729 89.6457 113.911 86.1067 113.024ZM119.691 107.481C116.691 111.806 111.773 120.728 116.098 121.812C120.424 122.896 120.296 112.71 119.691 107.481ZM116.631 105.762C112.052 106.59 103.403 109.092 105.429 112.474C107.455 115.854 113.741 109.408 116.631 105.762ZM123.2 107.408C124.028 111.986 126.53 120.636 129.911 118.611C133.292 116.585 126.846 110.298 123.2 107.408ZM88.3387 104.699C87.5142 104.492 86.6782 104.993 86.4716 105.818C86.2651 106.642 86.7659 107.478 87.5902 107.685C88.4145 107.891 89.2505 107.39 89.4573 106.566C89.664 105.742 89.163 104.906 88.3387 104.699ZM149.245 119.967C148.421 119.761 147.585 120.261 147.378 121.086C147.172 121.91 147.672 122.746 148.497 122.953C149.321 123.159 150.157 122.658 150.364 121.834C150.57 121.01 150.069 120.174 149.245 119.967ZM89.3866 100.519C88.8919 100.395 88.3899 100.696 88.2658 101.19C88.1421 101.685 88.443 102.186 88.9375 102.31C89.432 102.434 89.933 102.134 90.0571 101.639C90.1811 101.145 89.8811 100.643 89.3866 100.519ZM150.293 115.787C149.798 115.663 149.296 115.964 149.172 116.458C149.049 116.953 149.349 117.454 149.844 117.578C150.338 117.702 150.839 117.402 150.964 116.907C151.088 116.413 150.788 115.911 150.293 115.787ZM121.487 100.315C119.839 99.902 118.167 100.904 117.753 102.553C117.34 104.202 118.342 105.873 119.99 106.287C121.639 106.7 123.31 105.698 123.724 104.049C124.137 102.401 123.136 100.729 121.487 100.315ZM116.559 102.253C112.234 99.2533 103.312 94.335 102.228 98.6606C101.143 102.986 111.33 102.858 116.559 102.253ZM139.249 107.941C140.333 103.616 130.147 103.744 124.918 104.349C129.243 107.349 138.165 112.267 139.249 107.941ZM90.7347 93.8757C89.7454 93.6277 88.7415 94.2284 88.4935 95.2177C88.2455 96.207 88.8473 97.2102 89.8367 97.4582C90.8259 97.706 91.829 97.1052 92.077 96.116C92.3249 95.1268 91.7238 94.1239 90.7347 93.8757ZM151.641 109.144C150.652 108.896 149.649 109.497 149.401 110.486C149.153 111.475 149.754 112.478 150.743 112.726C151.732 112.974 152.735 112.373 152.983 111.384C153.231 110.395 152.63 109.392 151.641 109.144ZM118.277 99.1934C117.449 94.6154 114.947 85.9658 111.566 87.991C108.185 90.0168 114.631 96.3034 118.277 99.1934ZM136.048 94.1282C134.022 90.7477 127.736 97.1943 124.846 100.84C129.425 100.012 138.074 97.5095 136.048 94.1282ZM92.081 89.7703C91.5864 89.6463 91.0843 89.9471 90.9603 90.4418C90.8364 90.9364 91.1374 91.4375 91.632 91.5615C92.1266 91.6854 92.6275 91.3853 92.7516 90.8908C92.8755 90.3962 92.5756 89.8944 92.081 89.7703ZM125.379 84.7908C121.053 83.7064 121.182 93.8919 121.787 99.1208C124.787 94.7957 129.704 85.8756 125.379 84.7908ZM152.987 105.038C152.493 104.914 151.991 105.215 151.867 105.71C151.743 106.205 152.044 106.706 152.538 106.83C153.033 106.954 153.534 106.654 153.658 106.159C153.782 105.664 153.482 105.163 152.987 105.038ZM93.4282 84.3965C92.6037 84.1899 91.7677 84.6907 91.561 85.5152C91.3544 86.3396 91.8553 87.1756 92.6797 87.3823C93.504 87.5888 94.3401 87.088 94.5468 86.2636C94.7534 85.4393 94.2525 84.6033 93.4282 84.3965ZM154.335 99.6647C153.51 99.458 152.674 99.9589 152.467 100.783C152.261 101.608 152.762 102.444 153.586 102.65C154.41 102.857 155.247 102.356 155.453 101.532C155.66 100.707 155.159 99.8715 154.335 99.6647ZM97.5468 67.3885C95.1529 70.6864 91.2503 77.5034 94.7887 78.3909C98.3277 79.278 98.102 71.4257 97.5468 67.3885ZM158.128 82.5753C155.734 85.8731 151.831 92.6904 155.37 93.5776C158.909 94.4645 158.684 86.6124 158.128 82.5753ZM98.8684 66.7231C99.7122 71.9636 102.406 81.838 106.433 79.4142C110.46 76.9893 103.068 69.9431 98.8684 66.7231ZM157.277 81.3651C152.055 82.2232 142.213 84.9491 144.62 88.9869C147.027 93.0239 154.061 85.5879 157.277 81.3651ZM110.831 68.6327C111.723 65.0781 103.9 65.321 99.8774 65.8867C103.158 68.2832 109.94 72.1872 110.831 68.6327ZM156.783 80.1519C153.503 77.7554 146.719 73.851 145.828 77.4057C144.937 80.9603 152.76 80.7177 156.783 80.1519ZM118.222 69.0337C117.398 68.8271 116.562 69.328 116.355 70.1523C116.149 70.9768 116.649 71.8127 117.474 72.0194C118.298 72.2261 119.134 71.7253 119.341 70.9008C119.548 70.0764 119.047 69.2404 118.222 69.0337ZM128.822 71.0566C127.833 70.8086 126.829 71.4093 126.581 72.3986C126.333 73.3879 126.935 74.3911 127.924 74.6391C128.913 74.8869 129.916 74.2861 130.164 73.2969C130.412 72.3077 129.811 71.3048 128.822 71.0566ZM138.525 74.1232C137.7 73.9165 136.864 74.4175 136.658 75.2418C136.451 76.0663 136.952 76.9022 137.776 77.1089C138.601 77.3154 139.437 76.8147 139.643 75.9903C139.85 75.166 139.349 74.3299 138.525 74.1232ZM122.85 70.8289C122.355 70.705 121.853 71.0049 121.729 71.4994C121.605 71.9941 121.906 72.4962 122.4 72.6202C122.895 72.7442 123.397 72.4434 123.521 71.9487C123.645 71.4541 123.344 70.9529 122.85 70.8289ZM133.598 73.5234C133.103 73.3994 132.602 73.6994 132.478 74.1939C132.353 74.6886 132.654 75.1906 133.149 75.3146C133.644 75.4385 134.145 75.1375 134.269 74.6429C134.393 74.1484 134.092 73.6475 133.598 73.5234Z" fill="#F52F1B"/>
<path d="M80.1121 53.207L41.5804 119.946C38.0419 126.075 30.1606 128.15 23.9774 124.58C17.7943 121.01 15.6504 113.147 19.1889 107.018C15.6504 113.147 7.76907 115.222 1.5859 111.652C-4.59694 108.082 -6.74018 100.22 -3.20177 94.091C-6.74023 100.22 -14.6216 102.294 -20.8047 98.7248C-26.9879 95.1549 -29.1317 87.2921 -25.5933 81.1632L12.9385 14.4243L80.1121 53.207ZM-19.8401 91.2258C-20.6645 90.75 -21.7003 91.0006 -22.1536 91.7857C-22.6066 92.5708 -22.3059 93.5932 -21.4817 94.0692C-20.6574 94.5451 -19.6216 94.2942 -19.1682 93.5093C-18.7149 92.7242 -19.0157 91.7018 -19.8401 91.2258ZM-14.8638 94.0989C-15.6883 93.6229 -16.724 93.8736 -17.1774 94.6587C-17.6303 95.4438 -17.3297 96.4663 -16.5055 96.9422C-15.6812 97.4179 -14.6453 97.1671 -14.1919 96.3824C-13.7387 95.5973 -14.0397 94.5749 -14.8638 94.0989ZM2.55138 104.154C1.72697 103.678 0.691182 103.928 0.237869 104.713C-0.21511 105.499 0.0855047 106.521 0.909778 106.997C1.73403 107.473 2.76988 107.222 3.22329 106.437C3.67658 105.652 3.37569 104.63 2.55138 104.154ZM7.5268 107.026C6.70243 106.55 5.66655 106.801 5.21329 107.586C4.76036 108.371 5.06113 109.394 5.8852 109.869C6.70947 110.345 7.74527 110.094 8.19871 109.31C8.65202 108.524 8.35121 107.502 7.5268 107.026ZM24.9429 117.081C24.1185 116.605 23.0818 116.856 22.6285 117.641C22.1755 118.426 22.477 119.449 23.3013 119.925C24.1255 120.4 25.1614 120.15 25.6148 119.365C26.068 118.58 25.767 117.557 24.9429 117.081ZM29.9183 119.954C29.0939 119.478 28.0581 119.729 27.6048 120.514C27.1518 121.299 27.4524 122.321 28.2767 122.797C29.101 123.273 30.1368 123.022 30.5902 122.237C31.0435 121.452 30.7427 120.43 29.9183 119.954ZM-21.632 85.1361C-22.4564 84.6604 -23.4922 84.9109 -23.9455 85.696C-24.3987 86.481 -24.0977 87.5034 -23.2736 87.9794C-22.4492 88.4554 -21.4134 88.2047 -20.9601 87.4196C-20.5068 86.6344 -20.8076 85.6121 -21.632 85.1361ZM-8.69489 92.6053C-9.51924 92.1297 -10.5552 92.3802 -11.0084 93.1652C-11.4616 93.9502 -11.1606 94.9726 -10.3365 95.4487C-9.51211 95.9246 -8.47632 95.6739 -8.02298 94.8888C-7.56967 94.1037 -7.87048 93.0813 -8.69489 92.6053ZM0.759503 98.0638C-0.0649027 97.5879 -1.1007 97.8385 -1.55401 98.6237C-2.00724 99.4088 -1.70644 100.431 -0.882099 100.907C-0.0577149 101.383 0.978073 101.132 1.43141 100.347C1.88473 99.5622 1.58392 98.5398 0.759503 98.0638ZM13.6966 105.533C12.8722 105.057 11.8364 105.308 11.3831 106.093C10.9299 106.878 11.2307 107.9 12.055 108.376C12.8794 108.852 13.9152 108.602 14.3685 107.817C14.8218 107.031 14.521 106.009 13.6966 105.533ZM23.151 110.992C22.3266 110.516 21.2908 110.766 20.8375 111.551C20.3842 112.337 20.685 113.359 21.5094 113.835C22.3337 114.311 23.3696 114.06 23.8229 113.275C24.2762 112.49 23.9752 111.468 23.151 110.992ZM36.0881 118.461C35.2637 117.985 34.2279 118.236 33.7746 119.021C33.3213 119.806 33.6221 120.828 34.4465 121.304C35.2708 121.78 36.3067 121.529 36.76 120.744C37.2133 119.959 36.9124 118.937 36.0881 118.461ZM-14.0688 86.9757C-15.168 86.3411 -16.5486 86.6752 -17.153 87.722C-17.7573 88.7689 -17.3564 90.1316 -16.2573 90.7662C-15.1581 91.4008 -13.7775 91.0667 -13.173 90.0199C-12.5686 88.973 -12.9696 87.6103 -14.0688 86.9757ZM8.32271 99.9034C7.2235 99.2688 5.84205 99.6024 5.23763 100.649C4.6333 101.696 5.03506 103.059 6.13424 103.694C7.23336 104.328 8.61409 103.994 9.21847 102.948C9.82283 101.901 9.42166 100.538 8.32271 99.9034ZM30.7134 112.831C29.6142 112.196 28.2335 112.53 27.6291 113.577C27.0248 114.624 27.4259 115.987 28.5249 116.621C29.6241 117.256 31.0055 116.922 31.61 115.875C32.2144 114.828 31.8126 113.465 30.7134 112.831ZM-3.79078 84.8866C-1.95847 81.7129 -9.54719 79.7999 -13.5708 79.2401C-11.0741 82.4446 -5.62326 88.0592 -3.79078 84.8866ZM3.02963 87.6065C2.29355 87.1816 1.3522 87.4337 0.927231 88.1698C0.502513 88.9058 0.754643 89.8473 1.49057 90.2722C2.22655 90.6971 3.1679 90.4447 3.59297 89.7089C4.01795 88.9728 3.76572 88.0315 3.02963 87.6065ZM12.6678 92.4595C11.7846 91.9496 10.6553 92.2525 10.1452 93.1355C9.63521 94.0188 9.93733 95.1489 10.8206 95.6589C11.7039 96.1687 12.8338 95.8654 13.3437 94.9821C13.8533 94.099 13.5507 92.9695 12.6678 92.4595ZM21.1561 98.0718C20.42 97.6468 19.4787 97.8991 19.0537 98.6351C18.629 99.3712 18.8811 100.313 19.6171 100.738C20.353 101.162 21.2944 100.91 21.7195 100.174C22.1444 99.4382 21.8921 98.4968 21.1561 98.0718ZM37.1118 108.512C34.5975 105.305 29.1121 99.6802 27.2879 102.84C25.4642 106 33.0774 107.938 37.1118 108.512ZM6.98702 90.6017C6.54537 90.3468 5.98087 90.4987 5.72589 90.9403C5.47116 91.3819 5.62218 91.946 6.06368 92.201C6.50523 92.4559 7.07009 92.3051 7.32516 91.8637C7.58015 91.422 7.42867 90.8567 6.98702 90.6017ZM16.5835 96.1422C16.1418 95.8872 15.5765 96.0387 15.3215 96.4804C15.0668 96.922 15.2186 97.4866 15.6602 97.7415C16.1017 97.9963 16.6657 97.8451 16.9208 97.4037C17.1757 96.9621 17.025 96.3972 16.5835 96.1422ZM0.549536 74.0818C-0.65712 69.5384 -9.4624 74.7591 -13.714 77.9373C-8.45702 78.5452 1.7554 78.6247 0.549536 74.0818ZM38.5092 108.025C39.1171 102.768 39.1966 92.5559 34.6532 93.7625C30.1104 94.9695 35.331 103.774 38.5092 108.025ZM45.4584 98.102C42.2848 96.2697 40.3718 103.858 39.8119 107.882C43.0165 105.385 48.6315 99.9344 45.4584 98.102ZM-8.52874 66.716C-11.6883 64.8924 -13.6267 72.5055 -14.2006 76.54C-10.9935 74.0256 -5.369 68.5403 -8.52874 66.716ZM25.2874 70.6017C21.2158 73.9376 14.0381 81.1669 17.9002 83.3967C21.7622 85.6258 24.4343 75.7957 25.2874 70.6017ZM22.8172 68.1088C18.1875 67.6489 9.18262 67.6813 10.2028 71.4888C11.2231 75.2961 19.0377 70.8218 22.8172 68.1088ZM28.6815 71.4945C28.2217 76.1241 28.2534 85.1282 32.0607 84.1084C35.8681 83.0882 31.3945 75.274 28.6815 71.4945ZM-4.09787 59.3228C-4.83396 58.8978 -5.77529 59.15 -6.20027 59.8861C-6.62522 60.6222 -6.37301 61.5635 -5.63693 61.9885C-4.90088 62.4133 -3.95949 62.1612 -3.53454 61.4252C-3.10959 60.6891 -3.36192 59.7478 -4.09787 59.3228ZM50.2807 90.7183C49.5447 90.2933 48.6033 90.5455 48.1783 91.2816C47.7534 92.0177 48.0056 92.959 48.7417 93.384C49.4777 93.8089 50.4191 93.5567 50.8441 92.8207C51.269 92.0846 51.0167 91.1433 50.2807 90.7183ZM-1.94309 55.5906C-2.38474 55.3356 -2.95007 55.4871 -3.20506 55.9287C-3.46002 56.3704 -3.30856 56.9357 -2.86691 57.1907C-2.4253 57.4455 -1.86075 57.2936 -1.60579 56.852C-1.35083 56.4105 -1.50157 55.8456 -1.94309 55.5906ZM52.4355 86.9861C51.9939 86.7311 51.4285 86.8826 51.1736 87.3242C50.9186 87.7659 51.0701 88.3312 51.5117 88.5862C51.9533 88.8411 52.5179 88.6891 52.7728 88.2476C53.0278 87.8059 52.8771 87.2411 52.4355 86.9861ZM28.9808 64.2046C27.5087 63.3547 25.6265 63.8585 24.7765 65.3304C23.9265 66.8026 24.431 68.6853 25.9032 69.5352C27.3753 70.3849 29.2572 69.8802 30.1071 68.4081C30.9567 66.9361 30.4526 65.0546 28.9808 64.2046ZM23.71 64.7147C20.3742 60.6432 13.145 53.4662 10.915 57.3275C8.68519 61.1897 18.5159 63.8616 23.71 64.7147ZM43.9686 76.411C46.1976 72.549 36.3675 69.8769 31.1736 69.0238C34.5095 73.0954 41.7388 80.2732 43.9686 76.411ZM1.17625 49.5725C0.293061 49.0626 -0.837129 49.3649 -1.34721 50.2479C-1.85718 51.1312 -1.55423 52.2619 -0.670916 52.7719C0.212343 53.2816 1.34227 52.9783 1.85218 52.0951C2.36181 51.2119 2.05918 50.0825 1.17625 49.5725ZM55.5549 80.968C54.6717 80.4581 53.5423 80.7609 53.0323 81.6439C52.5223 82.5272 52.8244 83.6574 53.7077 84.1674C54.591 84.6771 55.7209 84.3738 56.2308 83.4906C56.7404 82.6074 56.4378 81.478 55.5549 80.968ZM26.203 62.2445C26.6628 57.6148 26.6299 48.6107 22.8224 49.6309C19.0153 50.6513 23.4899 58.4651 26.203 62.2445ZM44.6803 62.2506C43.6601 58.4432 35.8468 62.9172 32.0672 65.6302C36.697 66.09 45.7005 66.0579 44.6803 62.2506ZM3.59695 45.9949C3.15537 45.74 2.59052 45.8907 2.33547 46.3322C2.08048 46.7739 2.23196 47.3392 2.67361 47.5942C3.11524 47.849 3.67979 47.6972 3.93474 47.2556C4.18952 46.814 4.0384 46.2499 3.59695 45.9949ZM36.9837 50.3431C33.1216 48.1133 30.4497 57.9441 29.5965 63.1382C33.668 59.8023 40.8452 52.5732 36.9837 50.3431ZM57.9756 77.3904C57.534 77.1355 56.9691 77.2862 56.7141 77.7277C56.4591 78.1694 56.6106 78.7347 57.0522 78.9897C57.4939 79.2446 58.0584 79.0927 58.3134 78.6511C58.5681 78.2095 58.4171 77.6454 57.9756 77.3904ZM6.36746 41.1963C5.63144 40.7713 4.69011 41.0237 4.26506 41.7596C3.84008 42.4957 4.09231 43.437 4.8284 43.862C5.56446 44.2868 6.50585 44.0347 6.9308 43.2987C7.35556 42.5627 7.10334 41.6213 6.36746 41.1963ZM60.7461 72.5918C60.0101 72.1668 59.0687 72.4192 58.6437 73.1551C58.2187 73.8912 58.4709 74.8325 59.207 75.2575C59.9431 75.6824 60.8845 75.4302 61.3094 74.6942C61.7342 73.9582 61.482 73.0168 60.7461 72.5918ZM14.9952 25.9714C11.7882 28.4856 6.16428 33.9709 9.32331 35.7953C12.4831 37.6196 14.4212 30.0059 14.9952 25.9714ZM69.0837 57.1994C65.8766 59.7137 60.2521 65.1991 63.4118 67.0234C66.5715 68.8474 68.5098 61.2339 69.0837 57.1994ZM16.4486 25.6942C15.822 30.9652 15.7034 41.2011 20.2414 39.9744C24.7788 38.7474 19.6036 29.9429 16.4486 25.6942ZM68.5971 55.8021C63.3399 55.1942 53.1278 55.1147 54.3344 59.658C55.5412 64.2011 64.3455 58.9803 68.5971 55.8021ZM27.4285 30.8133C29.2601 27.6398 21.672 25.7267 17.6485 25.1668C20.1451 28.3714 25.5962 33.9869 27.4285 30.8133ZM68.4547 54.4998C65.9582 51.2953 60.5072 45.6801 58.6747 48.8533C56.8424 52.027 64.4312 53.94 68.4547 54.4998ZM34.4251 33.2279C33.6891 32.8029 32.7477 33.0551 32.3227 33.7912C31.8981 34.5272 32.1502 35.4687 32.8861 35.8936C33.622 36.3185 34.5634 36.0661 34.9885 35.3303C35.4135 34.5942 35.1612 33.6528 34.4251 33.2279ZM44.0633 38.0809C43.1801 37.571 42.0508 37.8738 41.5407 38.7569C41.0307 39.6402 41.3328 40.7703 42.2161 41.2803C43.0994 41.79 44.2293 41.4867 44.7392 40.6035C45.2489 39.7204 44.9463 38.5909 44.0633 38.0809ZM52.5516 43.6932C51.8155 43.2682 50.8742 43.5204 50.4492 44.2565C50.0245 44.9926 50.2766 45.934 51.0126 46.3589C51.7485 46.7837 52.6899 46.5313 53.115 45.7956C53.5399 45.0596 53.2876 44.1182 52.5516 43.6932ZM38.3825 36.2231C37.9409 35.9681 37.3764 36.1201 37.1214 36.5617C36.8667 37.0033 37.0177 37.5674 37.4592 37.8223C37.9007 38.0773 38.4656 37.9264 38.7207 37.485C38.9757 37.0434 38.8242 36.4781 38.3825 36.2231ZM47.979 41.7636C47.5373 41.5086 46.972 41.6601 46.717 42.1017C46.4623 42.5433 46.6141 43.1079 47.0557 43.3629C47.4972 43.6177 48.0612 43.4664 48.3163 43.0251C48.5713 42.5835 48.4205 42.0186 47.979 41.7636Z" fill="#FFB200"/>
<path d="M0 1.42432C0 1.42432 75.4163 78.4243 222 78.4243C365.928 78.4243 444 1.42432 444 1.42432" stroke="#B66235" stroke-width="4"/>
</svg>
