<svg width="1728" height="230" viewBox="0 0 1728 230" fill="none" xmlns="http://www.w3.org/2000/svg">
<path d="M923.771 92V210.003C923.771 220.839 914.908 229.624 903.976 229.624C893.043 229.624 884.181 220.839 884.181 210.003C884.181 220.839 875.318 229.624 864.386 229.624C853.453 229.624 844.59 220.839 844.59 210.003C844.59 220.839 835.728 229.624 824.795 229.624C813.862 229.624 805 220.839 805 210.003V92H923.771ZM820.333 218.941C818.875 218.941 817.693 220.067 817.693 221.455C817.693 222.843 818.875 223.969 820.333 223.969C821.791 223.969 822.973 222.843 822.973 221.455C822.973 220.067 821.791 218.941 820.333 218.941ZM829.131 218.941C827.673 218.942 826.492 220.067 826.492 221.455C826.492 222.843 827.673 223.969 829.131 223.969C830.588 223.969 831.77 222.843 831.771 221.455C831.771 220.067 830.589 218.941 829.131 218.941ZM859.924 218.941C858.466 218.941 857.284 220.067 857.284 221.455C857.284 222.843 858.466 223.969 859.924 223.969C861.381 223.969 862.563 222.843 862.563 221.455C862.563 220.067 861.381 218.941 859.924 218.941ZM868.722 218.941C867.264 218.941 866.082 220.067 866.082 221.455C866.082 222.843 867.264 223.969 868.722 223.969C870.179 223.969 871.361 222.843 871.361 221.455C871.361 220.067 870.179 218.941 868.722 218.941ZM899.514 218.941C898.056 218.942 896.875 220.067 896.875 221.455C896.875 222.843 898.056 223.969 899.514 223.969C900.971 223.969 902.153 222.843 902.153 221.455C902.153 220.067 900.971 218.941 899.514 218.941ZM908.312 218.941C906.855 218.941 905.673 220.067 905.673 221.455C905.673 222.843 906.855 223.969 908.312 223.969C909.77 223.969 910.951 222.843 910.951 221.455C910.951 220.067 909.77 218.942 908.312 218.941ZM813.295 212.238C811.837 212.238 810.655 213.364 810.655 214.752C810.655 216.14 811.837 217.266 813.295 217.266C814.753 217.266 815.934 216.14 815.935 214.752C815.935 213.364 814.753 212.238 813.295 212.238ZM836.169 212.238C834.711 212.238 833.53 213.364 833.53 214.752C833.53 216.14 834.712 217.265 836.169 217.266C837.627 217.266 838.808 216.14 838.809 214.752C838.809 213.364 837.627 212.238 836.169 212.238ZM852.886 212.238C851.428 212.238 850.246 213.364 850.246 214.752C850.246 216.14 851.428 217.266 852.886 217.266C854.343 217.265 855.524 216.14 855.524 214.752C855.524 213.364 854.343 212.238 852.886 212.238ZM875.76 212.238C874.302 212.238 873.12 213.364 873.12 214.752C873.12 216.14 874.302 217.266 875.76 217.266C877.217 217.266 878.399 216.14 878.399 214.752C878.399 213.364 877.217 212.238 875.76 212.238ZM892.476 212.238C891.018 212.238 889.837 213.364 889.837 214.752C889.837 216.14 891.018 217.265 892.476 217.266C893.933 217.266 895.115 216.14 895.115 214.752C895.115 213.364 893.933 212.238 892.476 212.238ZM915.351 212.238C913.893 212.238 912.711 213.364 912.711 214.752C912.711 216.14 913.893 217.266 915.351 217.266C916.808 217.265 917.989 216.14 917.989 214.752C917.989 213.364 916.808 212.238 915.351 212.238ZM824.732 208.887C822.789 208.887 821.213 210.387 821.213 212.238C821.213 214.089 822.789 215.59 824.732 215.59C826.676 215.59 828.251 214.089 828.251 212.238C828.251 210.387 826.676 208.887 824.732 208.887ZM864.322 208.887C862.379 208.887 860.804 210.387 860.804 212.238C860.804 214.089 862.379 215.59 864.322 215.59C866.266 215.59 867.842 214.089 867.842 212.238C867.842 210.387 866.266 208.887 864.322 208.887ZM903.913 208.887C901.97 208.887 900.394 210.387 900.394 212.238C900.394 214.089 901.97 215.59 903.913 215.59C905.857 215.59 907.432 214.089 907.433 212.238C907.433 210.387 905.857 208.887 903.913 208.887ZM836.762 198.247C836.762 192.636 825.234 195.909 819.47 198.247C825.234 200.585 836.762 203.858 836.762 198.247ZM847.89 196.632C846.588 196.632 845.533 197.688 845.533 198.989C845.533 200.291 846.588 201.346 847.89 201.346C849.191 201.346 850.246 200.291 850.246 198.989C850.246 197.688 849.191 196.632 847.89 196.632ZM864.386 195.689C862.824 195.689 861.558 196.956 861.558 198.518C861.558 200.079 862.824 201.346 864.386 201.346C865.947 201.346 867.213 200.079 867.213 198.518C867.213 196.956 865.947 195.69 864.386 195.689ZM879.938 196.632C878.637 196.632 877.582 197.688 877.582 198.989C877.582 200.29 878.637 201.345 879.938 201.346C881.24 201.346 882.296 200.291 882.296 198.989C882.296 197.688 881.24 196.632 879.938 196.632ZM909.091 198.261C903.301 195.933 891.722 192.674 891.722 198.261C891.722 203.847 903.301 200.589 909.091 198.261ZM855.431 197.575C854.65 197.575 854.017 198.208 854.017 198.989C854.017 199.77 854.65 200.402 855.431 200.402C856.211 200.402 856.845 199.77 856.845 198.989C856.845 198.208 856.211 197.575 855.431 197.575ZM872.397 197.575C871.617 197.575 870.983 198.208 870.983 198.989C870.984 199.77 871.617 200.402 872.397 200.402C873.178 200.402 873.811 199.77 873.812 198.989C873.812 198.208 873.178 197.575 872.397 197.575ZM834.245 180.597C829.167 175.496 821.488 189.159 818.283 196.629C825.72 193.41 839.323 185.698 834.245 180.597ZM910.571 196.546C907.352 189.109 899.639 175.505 894.538 180.584C889.437 185.663 903.102 193.341 910.571 196.546ZM912.189 178.066C906.578 178.066 909.851 189.595 912.189 195.359C914.528 189.595 917.8 178.067 912.189 178.066ZM816.568 177.779C810.982 177.779 814.241 189.359 816.568 195.148C818.896 189.359 822.155 177.78 816.568 177.779ZM864.386 157.042C861.54 164.583 857.557 179.665 864.386 179.665C871.214 179.665 867.231 164.583 864.386 157.042ZM859.201 155.628C852.71 158.563 840.794 165.5 845.062 169.768C849.329 174.035 856.266 162.119 859.201 155.628ZM869.57 155.628C872.505 162.119 879.441 174.034 883.709 169.768C887.977 165.5 876.062 158.563 869.57 155.628ZM816.782 164.583C815.481 164.583 814.426 165.638 814.426 166.939C814.426 168.241 815.481 169.296 816.782 169.296C818.084 169.296 819.14 168.241 819.14 166.939C819.14 165.638 818.084 164.583 816.782 164.583ZM912.931 164.583C911.629 164.583 910.574 165.638 910.574 166.939C910.574 168.241 911.629 169.296 912.931 169.296C914.232 169.296 915.287 168.241 915.287 166.939C915.287 165.638 914.232 164.583 912.931 164.583ZM816.782 157.984C816.002 157.985 815.369 158.618 815.369 159.398C815.369 160.179 816.002 160.812 816.782 160.812C817.563 160.812 818.196 160.179 818.196 159.398C818.196 158.618 817.563 157.984 816.782 157.984ZM912.931 157.984C912.15 157.985 911.517 158.618 911.517 159.398C911.517 160.179 912.15 160.812 912.931 160.812C913.712 160.812 914.345 160.179 914.345 159.398C914.345 158.618 913.712 157.984 912.931 157.984ZM864.386 145.73C861.783 145.73 859.672 147.84 859.672 150.443C859.672 153.046 861.783 155.156 864.386 155.156C866.989 155.156 869.099 153.046 869.099 150.443C869.099 147.84 866.989 145.731 864.386 145.73ZM857.787 150.443C850.246 147.598 835.164 143.615 835.164 150.443C835.164 157.272 850.246 153.289 857.787 150.443ZM893.607 150.443C893.607 143.615 878.524 147.598 870.983 150.443C878.524 153.289 893.607 157.272 893.607 150.443ZM816.312 147.615C814.75 147.615 813.483 148.882 813.483 150.443C813.483 152.005 814.75 153.271 816.312 153.271C817.873 153.271 819.14 152.005 819.14 150.443C819.14 148.882 817.873 147.615 816.312 147.615ZM912.46 147.615C910.898 147.615 909.632 148.882 909.632 150.443C909.632 152.005 910.898 153.271 912.46 153.271C914.022 153.271 915.287 152.005 915.287 150.443C915.287 148.882 914.022 147.615 912.46 147.615ZM859.201 145.259C856.266 138.767 849.329 126.852 845.062 131.119C840.794 135.387 852.71 142.324 859.201 145.259ZM883.709 131.119C879.441 126.852 872.505 138.768 869.57 145.259C876.062 142.324 887.977 135.387 883.709 131.119ZM816.782 141.017C816.002 141.017 815.369 141.65 815.369 142.431C815.369 143.211 816.002 143.845 816.782 143.845C817.563 143.845 818.196 143.212 818.196 142.431C818.196 141.65 817.563 141.017 816.782 141.017ZM864.386 121.222C857.557 121.222 861.54 136.304 864.386 143.845C867.231 136.304 871.214 121.222 864.386 121.222ZM912.931 141.017C912.15 141.017 911.517 141.65 911.517 142.431C911.517 143.211 912.15 143.845 912.931 143.845C913.712 143.845 914.345 143.212 914.345 142.431C914.345 141.65 913.711 141.017 912.931 141.017ZM816.782 132.533C815.481 132.533 814.426 133.588 814.426 134.89C814.426 136.191 815.481 137.246 816.782 137.246C818.084 137.246 819.14 136.191 819.14 134.89C819.139 133.588 818.084 132.533 816.782 132.533ZM912.931 132.533C911.629 132.533 910.574 133.588 910.574 134.89C910.574 136.191 911.629 137.246 912.931 137.246C914.232 137.246 915.287 136.191 915.287 134.89C915.287 133.588 914.232 132.533 912.931 132.533ZM816.568 105.738C814.241 111.528 810.982 123.107 816.568 123.107C822.155 123.107 818.896 111.528 816.568 105.738ZM912.203 105.738C909.875 111.528 906.616 123.107 912.203 123.107C917.789 123.107 914.531 111.528 912.203 105.738ZM818.283 104.258C821.488 111.728 829.167 125.391 834.245 120.29C839.323 115.189 825.72 107.477 818.283 104.258ZM910.488 104.258C903.051 107.477 889.448 115.189 894.526 120.29C899.605 125.391 907.284 111.728 910.488 104.258ZM836.762 102.64C836.762 97.0284 825.234 100.302 819.47 102.64C825.234 104.978 836.762 108.251 836.762 102.64ZM909.302 102.64C903.538 100.302 892.009 97.0283 892.009 102.64C892.009 108.251 903.538 104.978 909.302 102.64ZM847.89 100.484C846.588 100.484 845.533 101.539 845.533 102.841C845.533 104.142 846.588 105.197 847.89 105.197C849.191 105.197 850.246 104.142 850.246 102.841C850.246 101.539 849.191 100.484 847.89 100.484ZM864.386 99.541C862.824 99.541 861.558 100.807 861.558 102.369C861.558 103.931 862.824 105.197 864.386 105.197C865.947 105.197 867.213 103.931 867.213 102.369C867.213 100.807 865.947 99.5412 864.386 99.541ZM879.938 100.484C878.637 100.485 877.582 101.539 877.582 102.841C877.582 104.142 878.637 105.197 879.938 105.197C881.24 105.197 882.296 104.142 882.296 102.841C882.296 101.539 881.24 100.484 879.938 100.484ZM855.431 101.427C854.65 101.427 854.017 102.06 854.017 102.841C854.017 103.622 854.65 104.255 855.431 104.255C856.211 104.255 856.845 103.622 856.845 102.841C856.845 102.06 856.211 101.427 855.431 101.427ZM872.397 101.427C871.617 101.427 870.983 102.06 870.983 102.841C870.984 103.621 871.617 104.255 872.397 104.255C873.178 104.255 873.811 103.622 873.812 102.841C873.812 102.06 873.178 101.427 872.397 101.427Z" fill="#009E5E"/>
<path d="M1583.81 43.531L1599.94 160.427C1601.42 171.162 1593.84 181.075 1583.01 182.569C1572.18 184.063 1562.2 176.572 1560.72 165.837C1562.2 176.572 1554.62 186.485 1543.79 187.979C1532.96 189.472 1522.98 181.981 1521.5 171.246C1522.98 181.981 1515.4 191.894 1504.57 193.388C1493.74 194.882 1483.76 187.391 1482.28 176.656L1466.15 59.7598L1583.81 43.531ZM1498.69 183.416C1497.25 183.615 1496.23 184.891 1496.42 186.266C1496.61 187.641 1497.93 188.595 1499.38 188.396C1500.82 188.197 1501.84 186.92 1501.65 185.545C1501.46 184.17 1500.13 183.216 1498.69 183.416ZM1507.4 182.213C1505.96 182.413 1504.94 183.689 1505.13 185.064C1505.32 186.439 1506.65 187.393 1508.09 187.194C1509.54 186.994 1510.55 185.718 1510.36 184.343C1510.17 182.968 1508.85 182.014 1507.4 182.213ZM1537.91 178.006C1536.46 178.205 1535.45 179.481 1535.64 180.857C1535.83 182.232 1537.15 183.185 1538.6 182.986C1540.04 182.787 1541.06 181.51 1540.87 180.135C1540.68 178.76 1539.35 177.807 1537.91 178.006ZM1546.62 176.804C1545.18 177.003 1544.16 178.279 1544.35 179.655C1544.54 181.03 1545.87 181.983 1547.31 181.784C1548.75 181.585 1549.77 180.308 1549.58 178.933C1549.39 177.558 1548.07 176.605 1546.62 176.804ZM1577.13 172.596C1575.68 172.796 1574.67 174.072 1574.86 175.447C1575.05 176.822 1576.37 177.776 1577.81 177.577C1579.26 177.377 1580.27 176.101 1580.09 174.726C1579.9 173.351 1578.57 172.397 1577.13 172.596ZM1585.84 171.394C1584.4 171.593 1583.38 172.87 1583.57 174.245C1583.76 175.62 1585.09 176.574 1586.53 176.374C1587.97 176.175 1588.99 174.899 1588.8 173.524C1588.61 172.149 1587.29 171.195 1585.84 171.394ZM1490.8 177.737C1489.36 177.936 1488.34 179.212 1488.53 180.588C1488.72 181.963 1490.04 182.916 1491.49 182.717C1492.93 182.518 1493.95 181.242 1493.76 179.866C1493.57 178.491 1492.25 177.538 1490.8 177.737ZM1513.46 174.611C1512.02 174.811 1511 176.087 1511.19 177.462C1511.38 178.837 1512.7 179.791 1514.15 179.592C1515.59 179.392 1516.61 178.116 1516.42 176.741C1516.23 175.366 1514.9 174.412 1513.46 174.611ZM1530.02 172.327C1528.58 172.526 1527.56 173.803 1527.75 175.178C1527.94 176.553 1529.26 177.507 1530.71 177.308C1532.15 177.108 1533.17 175.832 1532.98 174.457C1532.79 173.082 1531.46 172.128 1530.02 172.327ZM1552.68 169.202C1551.24 169.401 1550.22 170.677 1550.41 172.053C1550.6 173.428 1551.92 174.381 1553.37 174.182C1554.81 173.983 1555.83 172.706 1555.64 171.331C1555.45 169.956 1554.12 169.003 1552.68 169.202ZM1569.24 166.918C1567.8 167.117 1566.78 168.393 1566.97 169.768C1567.16 171.144 1568.48 172.097 1569.93 171.898C1571.37 171.699 1572.39 170.422 1572.2 169.047C1572.01 167.672 1570.68 166.719 1569.24 166.918ZM1591.9 163.792C1590.46 163.991 1589.44 165.268 1589.63 166.643C1589.82 168.018 1591.14 168.972 1592.59 168.772C1594.03 168.573 1595.05 167.297 1594.86 165.922C1594.67 164.547 1593.34 163.593 1591.9 163.792ZM1501.67 172.854C1499.75 173.12 1498.39 174.821 1498.64 176.655C1498.9 178.489 1500.66 179.76 1502.59 179.494C1504.51 179.229 1505.87 177.527 1505.62 175.693C1505.36 173.86 1503.6 172.589 1501.67 172.854ZM1540.89 167.445C1538.97 167.71 1537.61 169.412 1537.86 171.245C1538.12 173.079 1539.88 174.35 1541.81 174.085C1543.73 173.819 1545.09 172.117 1544.84 170.284C1544.58 168.45 1542.82 167.179 1540.89 167.445ZM1580.11 162.035C1578.19 162.3 1576.83 164.002 1577.08 165.836C1577.34 167.669 1579.1 168.941 1581.03 168.675C1582.95 168.41 1584.31 166.708 1584.06 164.874C1583.8 163.04 1582.04 161.769 1580.11 162.035ZM1512.14 160.67C1511.37 155.112 1500.4 159.929 1495.01 163.033C1501.04 164.562 1512.9 166.229 1512.14 160.67ZM1522.94 157.55C1521.65 157.728 1520.75 158.918 1520.93 160.207C1521.1 161.496 1522.29 162.397 1523.58 162.22C1524.87 162.042 1525.77 160.852 1525.6 159.563C1525.42 158.274 1524.23 157.372 1522.94 157.55ZM1539.15 154.362C1537.6 154.576 1536.52 156.003 1536.74 157.55C1536.95 159.098 1538.38 160.179 1539.92 159.966C1541.47 159.752 1542.55 158.325 1542.34 156.778C1542.13 155.231 1540.7 154.149 1539.15 154.362ZM1554.69 153.171C1553.4 153.349 1552.5 154.539 1552.67 155.828C1552.85 157.117 1554.04 158.018 1555.33 157.84C1556.62 157.663 1557.52 156.473 1557.34 155.184C1557.17 153.895 1555.98 152.993 1554.69 153.171ZM1583.79 150.801C1577.74 149.286 1565.82 147.64 1566.58 153.174C1567.35 158.709 1578.37 153.898 1583.79 150.801ZM1530.54 157.454C1529.76 157.561 1529.22 158.274 1529.33 159.048C1529.44 159.821 1530.15 160.361 1530.92 160.255C1531.7 160.148 1532.24 159.435 1532.13 158.662C1532.03 157.888 1531.31 157.347 1530.54 157.454ZM1547.35 155.136C1546.57 155.243 1546.03 155.956 1546.14 156.73C1546.25 157.503 1546.96 158.043 1547.73 157.936C1548.51 157.83 1549.05 157.117 1548.94 156.343C1548.83 155.57 1548.12 155.029 1547.35 155.136ZM1507.23 143.53C1501.5 139.17 1495.76 153.755 1493.61 161.592C1500.54 157.388 1512.96 147.889 1507.23 143.53ZM1585.02 148.9C1580.82 141.973 1571.32 129.551 1566.96 135.279C1562.6 141.007 1577.18 146.746 1585.02 148.9ZM1584.1 130.373C1578.54 131.14 1583.36 142.113 1586.46 147.504C1587.99 141.474 1589.66 129.607 1584.1 130.373ZM1489.34 143.154C1483.8 143.917 1488.61 154.943 1491.71 160.36C1493.22 154.307 1494.87 142.391 1489.34 143.154ZM1533.87 116.077C1532.08 123.936 1530.2 139.421 1536.96 138.488C1543.73 137.555 1537.72 123.159 1533.87 116.077ZM1528.54 115.385C1522.51 119.179 1511.66 127.679 1516.47 131.324C1521.28 134.968 1526.52 122.216 1528.54 115.385ZM1538.81 113.968C1542.61 119.998 1551.11 130.853 1554.75 126.043C1558.4 121.232 1545.65 115.989 1538.81 113.968ZM1487.74 130.052C1486.46 130.23 1485.55 131.419 1485.73 132.708C1485.91 133.998 1487.1 134.898 1488.39 134.721C1489.68 134.543 1490.58 133.354 1490.4 132.064C1490.22 130.775 1489.03 129.874 1487.74 130.052ZM1582.99 116.915C1581.7 117.093 1580.8 118.282 1580.98 119.571C1581.16 120.86 1582.35 121.761 1583.63 121.583C1584.92 121.405 1585.82 120.216 1585.65 118.927C1585.47 117.638 1584.28 116.737 1582.99 116.915ZM1486.84 123.515C1486.07 123.622 1485.53 124.336 1485.64 125.109C1485.74 125.883 1486.46 126.423 1487.23 126.317C1488 126.21 1488.54 125.497 1488.44 124.723C1488.33 123.949 1487.62 123.409 1486.84 123.515ZM1582.09 110.378C1581.32 110.485 1580.77 111.198 1580.88 111.972C1580.99 112.745 1581.7 113.286 1582.48 113.179C1583.25 113.073 1583.79 112.359 1583.68 111.585C1583.58 110.812 1582.86 110.271 1582.09 110.378ZM1532.33 104.872C1529.75 105.228 1527.94 107.606 1528.3 110.185C1528.66 112.763 1531.03 114.565 1533.61 114.209C1536.19 113.854 1537.99 111.475 1537.64 108.897C1537.28 106.318 1534.9 104.516 1532.33 104.872ZM1526.43 110.442C1518.57 108.654 1503.09 106.769 1504.02 113.533C1504.95 120.298 1519.35 114.291 1526.43 110.442ZM1561.92 105.548C1560.98 98.7831 1546.59 104.79 1539.5 108.639C1547.36 110.427 1562.85 112.313 1561.92 105.548ZM1484.96 113.308C1483.41 113.521 1482.33 114.949 1482.54 116.496C1482.76 118.043 1484.19 119.124 1485.73 118.911C1487.28 118.697 1488.36 117.27 1488.15 115.723C1487.93 114.176 1486.51 113.095 1484.96 113.308ZM1580.21 100.17C1578.66 100.384 1577.58 101.811 1577.79 103.358C1578 104.905 1579.43 105.987 1580.98 105.773C1582.53 105.56 1583.61 104.133 1583.39 102.586C1583.18 101.039 1581.75 99.9571 1580.21 100.17ZM1527.12 105.113C1523.33 99.0836 1514.83 88.2274 1511.19 93.0381C1507.54 97.8492 1520.29 103.093 1527.12 105.113ZM1549.47 87.7574C1544.66 84.1136 1539.42 96.8649 1537.4 103.696C1543.43 99.902 1554.28 91.4021 1549.47 87.7574ZM1484.52 106.707C1483.75 106.814 1483.21 107.527 1483.32 108.301C1483.42 109.074 1484.14 109.615 1484.91 109.508C1485.68 109.402 1486.22 108.688 1486.12 107.914C1486.01 107.141 1485.3 106.6 1484.52 106.707ZM1528.98 80.593C1522.21 81.5261 1528.22 95.9223 1532.07 103.004C1533.86 95.1448 1535.74 79.6604 1528.98 80.593ZM1579.77 93.5692C1579 93.676 1578.46 94.3899 1578.56 95.1632C1578.67 95.9367 1579.38 96.4773 1580.16 96.3708C1580.93 96.2641 1581.47 95.5504 1581.36 94.7768C1581.26 94.0034 1580.54 93.4625 1579.77 93.5692ZM1483.36 98.3029C1482.08 98.4809 1481.17 99.6702 1481.35 100.959C1481.53 102.248 1482.72 103.149 1484.01 102.972C1485.3 102.794 1486.2 101.604 1486.02 100.315C1485.84 99.026 1484.65 98.1251 1483.36 98.3029ZM1578.61 85.1654C1577.32 85.3433 1576.42 86.5326 1576.6 87.8217C1576.78 89.1109 1577.97 90.0117 1579.26 89.834C1580.54 89.6562 1581.45 88.467 1581.27 87.1777C1581.09 85.8886 1579.9 84.9875 1578.61 85.1654ZM1479.49 71.7885C1477.98 77.842 1476.33 89.7581 1481.87 88.9948C1487.4 88.2312 1482.59 77.2058 1479.49 71.7885ZM1574.23 58.7212C1572.71 64.7746 1571.07 76.6908 1576.6 75.9274C1582.14 75.1636 1577.33 64.1384 1574.23 58.7212ZM1480.99 70.0876C1485.18 77.0495 1494.66 89.5356 1498.99 83.7885C1503.32 78.0415 1488.8 72.2601 1480.99 70.0876ZM1572.33 57.4889C1565.4 61.6937 1552.98 71.1924 1558.71 75.5518C1564.43 79.9111 1570.17 65.3265 1572.33 57.4889ZM1499.07 65.9598C1498.31 60.4012 1487.33 65.2187 1481.94 68.3225C1487.97 69.8511 1499.84 71.5186 1499.07 65.9598ZM1570.93 56.048C1564.9 54.5194 1553.03 52.8521 1553.8 58.4109C1554.57 63.9698 1565.54 59.1518 1570.93 56.048ZM1509.8 62.3042C1508.51 62.482 1507.61 63.6712 1507.79 64.9605C1507.97 66.2497 1509.16 67.1507 1510.45 66.9729C1511.73 66.795 1512.64 65.6057 1512.46 64.3166C1512.28 63.0273 1511.09 62.1265 1509.8 62.3042ZM1526.01 59.1157C1524.47 59.3291 1523.39 60.7566 1523.6 62.3037C1523.81 63.8509 1525.24 64.9323 1526.79 64.7189C1528.33 64.5054 1529.41 63.0781 1529.2 61.531C1528.99 59.984 1527.56 58.9025 1526.01 59.1157ZM1541.55 57.9251C1540.26 58.1031 1539.36 59.2923 1539.54 60.5814C1539.72 61.8705 1540.9 62.7714 1542.19 62.5938C1543.48 62.416 1544.38 61.2265 1544.21 59.9373C1544.03 58.648 1542.84 57.7473 1541.55 57.9251ZM1517.4 62.2074C1516.63 62.3141 1516.09 63.0278 1516.19 63.8014C1516.3 64.5748 1517.01 65.1156 1517.79 65.009C1518.56 64.9022 1519.1 64.1884 1518.99 63.4149C1518.89 62.6414 1518.17 62.1008 1517.4 62.2074ZM1534.21 59.889C1533.43 59.9959 1532.89 60.7096 1533 61.4831C1533.11 62.2564 1533.82 62.7971 1534.59 62.6906C1535.37 62.584 1535.91 61.8701 1535.8 61.0966C1535.7 60.3231 1534.98 59.7823 1534.21 59.889Z" fill="#009E5E"/>
<path d="M144.532 44.4146L128.408 161.311C126.928 172.046 134.507 181.959 145.337 183.453C156.167 184.946 166.147 177.455 167.628 166.72C166.147 177.455 173.726 187.368 184.556 188.862C195.386 190.356 205.367 182.865 206.847 172.13C205.367 182.865 212.945 192.778 223.775 194.272C234.606 195.766 244.585 188.274 246.066 177.539L262.189 60.6433L144.532 44.4146ZM229.655 184.299C231.099 184.498 232.116 185.775 231.927 187.15C231.737 188.525 230.412 189.478 228.968 189.279C227.524 189.08 226.507 187.804 226.697 186.428C226.887 185.053 228.211 184.1 229.655 184.299ZM220.94 183.097C222.384 183.296 223.4 184.572 223.21 185.948C223.021 187.323 221.697 188.276 220.253 188.077C218.809 187.878 217.792 186.602 217.982 185.226C218.171 183.851 219.496 182.898 220.94 183.097ZM190.436 178.889C191.88 179.089 192.897 180.365 192.707 181.74C192.517 183.115 191.193 184.069 189.749 183.87C188.305 183.67 187.288 182.394 187.477 181.019C187.667 179.644 188.992 178.69 190.436 178.889ZM181.72 177.687C183.164 177.886 184.181 179.163 183.992 180.538C183.802 181.913 182.477 182.867 181.033 182.668C179.59 182.468 178.572 181.192 178.762 179.817C178.952 178.442 180.276 177.488 181.72 177.687ZM151.217 173.48C152.661 173.679 153.677 174.956 153.488 176.331C153.298 177.706 151.974 178.659 150.53 178.46C149.086 178.261 148.069 176.985 148.259 175.609C148.449 174.234 149.773 173.281 151.217 173.48ZM142.501 172.278C143.945 172.477 144.962 173.753 144.772 175.128C144.583 176.504 143.258 177.457 141.814 177.258C140.37 177.059 139.354 175.782 139.543 174.407C139.733 173.032 141.057 172.079 142.501 172.278ZM237.543 178.62C238.987 178.82 240.004 180.096 239.815 181.471C239.625 182.846 238.3 183.8 236.856 183.601C235.412 183.401 234.395 182.125 234.585 180.75C234.775 179.375 236.099 178.421 237.543 178.62ZM214.884 175.495C216.327 175.694 217.344 176.971 217.154 178.346C216.964 179.721 215.641 180.674 214.197 180.475C212.753 180.276 211.736 179 211.925 177.624C212.115 176.249 213.44 175.296 214.884 175.495ZM198.324 173.211C199.768 173.41 200.785 174.686 200.595 176.062C200.405 177.437 199.081 178.39 197.637 178.191C196.193 177.992 195.177 176.715 195.366 175.34C195.556 173.965 196.88 173.012 198.324 173.211ZM175.664 170.085C177.108 170.285 178.125 171.561 177.936 172.936C177.746 174.311 176.421 175.265 174.977 175.066C173.533 174.866 172.516 173.59 172.706 172.215C172.896 170.84 174.22 169.886 175.664 170.085ZM159.105 167.801C160.549 168.001 161.565 169.277 161.376 170.652C161.186 172.027 159.862 172.981 158.418 172.782C156.974 172.582 155.957 171.306 156.147 169.931C156.336 168.556 157.661 167.602 159.105 167.801ZM136.445 164.676C137.889 164.875 138.906 166.151 138.716 167.527C138.526 168.902 137.202 169.855 135.758 169.656C134.314 169.457 133.298 168.18 133.487 166.805C133.677 165.43 135.001 164.477 136.445 164.676ZM226.671 173.738C228.596 174.003 229.952 175.705 229.699 177.539C229.446 179.372 227.68 180.643 225.755 180.378C223.83 180.112 222.475 178.41 222.727 176.577C222.98 174.743 224.746 173.472 226.671 173.738ZM187.452 168.328C189.378 168.594 190.733 170.295 190.48 172.129C190.227 173.962 188.462 175.234 186.536 174.968C184.611 174.703 183.255 173.001 183.508 171.167C183.761 169.334 185.527 168.063 187.452 168.328ZM148.233 162.918C150.158 163.184 151.514 164.886 151.261 166.719C151.008 168.553 149.242 169.824 147.317 169.559C145.392 169.293 144.036 167.591 144.288 165.758C144.541 163.924 146.308 162.653 148.233 162.918ZM216.208 161.554C216.975 155.995 227.947 160.813 233.338 163.917C227.308 165.445 215.442 167.113 216.208 161.554ZM205.405 158.433C206.695 158.611 207.595 159.801 207.418 161.091C207.24 162.38 206.05 163.281 204.761 163.103C203.472 162.925 202.571 161.736 202.749 160.447C202.927 159.158 204.116 158.256 205.405 158.433ZM189.193 155.246C190.74 155.459 191.821 156.887 191.608 158.434C191.395 159.981 189.967 161.063 188.42 160.849C186.873 160.636 185.792 159.208 186.006 157.661C186.219 156.114 187.646 155.033 189.193 155.246ZM173.657 154.054C174.946 154.232 175.847 155.422 175.669 156.712C175.491 158.001 174.302 158.902 173.013 158.724C171.724 158.546 170.822 157.357 171 156.068C171.178 154.778 172.368 153.877 173.657 154.054ZM144.556 151.685C150.609 150.17 162.525 148.524 161.762 154.058C160.998 159.592 149.973 154.782 144.556 151.685ZM197.806 158.338C198.58 158.444 199.12 159.158 199.014 159.932C198.907 160.705 198.193 161.245 197.42 161.138C196.647 161.031 196.106 160.319 196.212 159.545C196.319 158.772 197.033 158.231 197.806 158.338ZM180.999 156.019C181.772 156.126 182.313 156.84 182.206 157.613C182.099 158.387 181.386 158.926 180.612 158.82C179.839 158.713 179.298 158 179.404 157.227C179.511 156.453 180.225 155.913 180.999 156.019ZM221.113 144.413C226.841 140.054 232.581 154.638 234.735 162.476C227.807 158.271 215.386 148.772 221.113 144.413ZM143.323 149.784C147.528 142.856 157.028 130.434 161.387 136.162C165.746 141.89 151.161 147.63 143.323 149.784ZM144.245 131.256C149.804 132.023 144.986 142.996 141.882 148.387C140.354 142.358 138.687 130.49 144.245 131.256ZM239.009 144.037C244.543 144.801 239.733 155.826 236.636 161.244C235.121 155.19 233.475 143.274 239.009 144.037ZM194.473 116.961C196.262 124.82 198.147 140.305 191.382 139.372C184.618 138.438 190.624 124.042 194.473 116.961ZM199.803 116.269C205.832 120.063 216.689 128.563 211.878 132.208C207.067 135.852 201.823 123.1 199.803 116.269ZM189.531 114.852C185.737 120.881 177.238 131.737 173.593 126.927C169.948 122.116 182.699 116.872 189.531 114.852ZM240.6 130.936C241.889 131.114 242.79 132.303 242.612 133.592C242.435 134.881 241.245 135.782 239.956 135.604C238.667 135.427 237.765 134.237 237.943 132.948C238.121 131.659 239.311 130.758 240.6 130.936ZM145.353 117.798C146.643 117.976 147.544 119.165 147.366 120.454C147.188 121.744 145.999 122.644 144.709 122.467C143.42 122.289 142.519 121.1 142.697 119.81C142.875 118.521 144.064 117.62 145.353 117.798ZM241.502 124.399C242.275 124.506 242.815 125.219 242.708 125.993C242.602 126.766 241.889 127.307 241.115 127.201C240.342 127.094 239.801 126.38 239.908 125.607C240.014 124.833 240.728 124.292 241.502 124.399ZM146.255 111.261C147.029 111.368 147.569 112.082 147.463 112.855C147.356 113.629 146.642 114.17 145.869 114.063C145.095 113.956 144.554 113.243 144.661 112.469C144.768 111.695 145.482 111.155 146.255 111.261ZM196.019 105.755C198.598 106.111 200.4 108.49 200.045 111.068C199.689 113.647 197.31 115.449 194.731 115.093C192.153 114.737 190.351 112.359 190.706 109.78C191.062 107.202 193.441 105.4 196.019 105.755ZM201.912 111.326C209.771 109.538 225.256 107.652 224.323 114.417C223.39 121.182 208.993 115.175 201.912 111.326ZM166.427 106.431C167.361 99.6667 181.758 105.674 188.839 109.523C180.98 111.311 165.494 113.196 166.427 106.431ZM243.385 114.191C244.932 114.405 246.013 115.832 245.8 117.379C245.587 118.927 244.159 120.008 242.612 119.795C241.065 119.581 239.983 118.154 240.197 116.607C240.41 115.059 241.838 113.978 243.385 114.191ZM148.138 101.054C149.685 101.267 150.767 102.695 150.553 104.242C150.34 105.789 148.912 106.87 147.365 106.657C145.818 106.443 144.738 105.016 144.951 103.469C145.165 101.922 146.591 100.841 148.138 101.054ZM201.219 105.997C205.014 99.9672 213.514 89.1109 217.158 93.9216C220.803 98.7327 208.051 103.976 201.219 105.997ZM178.874 88.6409C183.684 84.9971 188.927 97.7484 190.948 104.58C184.918 100.786 174.062 92.2856 178.874 88.6409ZM243.82 107.59C244.593 107.697 245.133 108.411 245.027 109.184C244.92 109.958 244.207 110.498 243.434 110.392C242.66 110.285 242.119 109.571 242.226 108.798C242.333 108.024 243.047 107.484 243.82 107.59ZM199.368 81.4766C206.133 82.4096 200.126 96.8058 196.277 103.887C194.489 96.0283 192.604 80.544 199.368 81.4766ZM148.574 94.4527C149.347 94.5596 149.888 95.2734 149.781 96.0468C149.674 96.8202 148.961 97.3609 148.187 97.2543C147.414 97.1476 146.873 96.4339 146.98 95.6603C147.086 94.8869 147.8 94.3461 148.574 94.4527ZM244.979 99.1865C246.268 99.3645 247.169 100.554 246.992 101.843C246.814 103.132 245.625 104.033 244.335 103.855C243.046 103.677 242.144 102.488 242.322 101.199C242.5 99.9096 243.69 99.0086 244.979 99.1865ZM149.733 86.0489C151.022 86.2269 151.923 87.4162 151.745 88.7052C151.567 89.9944 150.378 90.8953 149.089 90.7176C147.799 90.5398 146.899 89.3506 147.076 88.0613C147.254 86.7722 148.444 85.8711 149.733 86.0489ZM248.852 72.6721C250.367 78.7255 252.014 90.6417 246.479 89.8783C240.945 89.1147 245.755 78.0894 248.852 72.6721ZM154.115 59.6047C155.63 65.6581 157.276 77.5743 151.741 76.8109C146.208 76.0471 151.018 65.022 154.115 59.6047ZM247.356 70.9712C243.161 77.933 233.687 90.4191 229.353 84.672C225.02 78.9251 239.549 73.1437 247.356 70.9712ZM156.016 58.3724C162.943 62.5772 175.365 72.076 169.637 76.4353C163.909 80.7946 158.17 66.21 156.016 58.3724ZM229.272 66.8433C230.039 61.2847 241.011 66.1023 246.402 69.2061C240.372 70.7346 228.505 72.4021 229.272 66.8433ZM157.412 56.9316C163.442 55.403 175.31 53.7357 174.543 59.2944C173.776 64.8533 162.803 60.0354 157.412 56.9316ZM218.543 63.1877C219.832 63.3656 220.733 64.5548 220.555 65.8441C220.377 67.1332 219.188 68.0343 217.899 67.8564C216.61 67.6785 215.709 66.4892 215.886 65.2001C216.064 63.9109 217.254 63.01 218.543 63.1877ZM202.33 59.9992C203.877 60.2126 204.959 61.6402 204.745 63.1873C204.532 64.7344 203.105 65.8158 201.557 65.6024C200.01 65.3889 198.93 63.9616 199.143 62.4145C199.357 60.8675 200.783 59.786 202.33 59.9992ZM186.795 58.8087C188.084 58.9867 188.985 60.1758 188.807 61.465C188.629 62.754 187.44 63.6549 186.151 63.4773C184.861 63.2995 183.96 62.1101 184.137 60.8209C184.315 59.5316 185.505 58.6308 186.795 58.8087ZM210.944 63.0909C211.717 63.1976 212.258 63.9113 212.151 64.6849C212.044 65.4583 211.331 65.9992 210.557 65.8925C209.784 65.7857 209.243 65.0719 209.35 64.2985C209.456 63.525 210.17 62.9843 210.944 63.0909ZM194.136 60.7726C194.909 60.8795 195.45 61.5931 195.344 62.3666C195.237 63.1399 194.523 63.6807 193.75 63.5742C192.976 63.4675 192.436 62.7536 192.542 61.9802C192.649 61.2066 193.362 60.6659 194.136 60.7726Z" fill="#009E5E"/>
<path d="M1139.47 86.3664L1144.24 204.273C1144.68 215.101 1136.18 224.236 1125.25 224.678C1114.33 225.12 1105.12 216.7 1104.68 205.873C1105.12 216.7 1096.62 225.836 1085.69 226.278C1074.77 226.719 1065.56 218.3 1065.12 207.473C1065.56 218.3 1057.06 227.436 1046.14 227.878C1035.21 228.319 1026 219.9 1025.56 209.072L1020.8 91.1658L1139.47 86.3664ZM1041.25 217.384C1039.79 217.443 1038.66 218.615 1038.71 220.002C1038.77 221.389 1039.99 222.466 1041.45 222.407C1042.91 222.348 1044.04 221.176 1043.99 219.789C1043.93 218.402 1042.7 217.325 1041.25 217.384ZM1050.04 217.028C1048.58 217.087 1047.45 218.26 1047.5 219.647C1047.56 221.034 1048.78 222.111 1050.24 222.052C1051.7 221.992 1052.83 220.82 1052.78 219.433C1052.72 218.046 1051.49 216.97 1050.04 217.028ZM1080.8 215.784C1079.35 215.843 1078.21 217.015 1078.27 218.402C1078.33 219.789 1079.55 220.866 1081.01 220.807C1082.46 220.748 1083.6 219.576 1083.54 218.189C1083.49 216.802 1082.26 215.725 1080.8 215.784ZM1089.6 215.429C1088.14 215.488 1087 216.66 1087.06 218.047C1087.12 219.434 1088.34 220.511 1089.8 220.452C1091.26 220.393 1092.39 219.221 1092.33 217.834C1092.28 216.446 1091.05 215.37 1089.6 215.429ZM1120.36 214.184C1118.91 214.243 1117.77 215.415 1117.83 216.803C1117.88 218.19 1119.11 219.266 1120.57 219.208C1122.02 219.149 1123.16 217.976 1123.1 216.589C1123.05 215.202 1121.82 214.126 1120.36 214.184ZM1129.15 213.829C1127.7 213.888 1126.56 215.06 1126.62 216.447C1126.67 217.834 1127.9 218.911 1129.36 218.852C1130.81 218.793 1131.95 217.621 1131.89 216.234C1131.84 214.847 1130.61 213.77 1129.15 213.829ZM1033.94 210.971C1032.49 211.03 1031.35 212.202 1031.41 213.589C1031.46 214.976 1032.69 216.053 1034.15 215.994C1035.6 215.935 1036.74 214.763 1036.68 213.376C1036.63 211.988 1035.4 210.912 1033.94 210.971ZM1056.8 210.046C1055.34 210.105 1054.21 211.277 1054.26 212.665C1054.32 214.052 1055.55 215.128 1057 215.07C1058.46 215.011 1059.59 213.838 1059.54 212.451C1059.48 211.064 1058.26 209.988 1056.8 210.046ZM1073.5 209.371C1072.05 209.43 1070.91 210.602 1070.97 211.989C1071.02 213.376 1072.25 214.453 1073.7 214.394C1075.16 214.335 1076.3 213.163 1076.24 211.776C1076.18 210.389 1074.96 209.312 1073.5 209.371ZM1096.36 208.447C1094.9 208.506 1093.77 209.678 1093.82 211.065C1093.88 212.452 1095.1 213.528 1096.56 213.47C1098.02 213.411 1099.15 212.239 1099.1 210.852C1099.04 209.464 1097.81 208.388 1096.36 208.447ZM1113.06 207.771C1111.6 207.83 1110.47 209.002 1110.52 210.389C1110.58 211.776 1111.81 212.853 1113.26 212.794C1114.72 212.735 1115.85 211.563 1115.8 210.176C1115.74 208.789 1114.52 207.712 1113.06 207.771ZM1135.92 206.847C1134.46 206.906 1133.32 208.078 1133.38 209.465C1133.44 210.852 1134.66 211.929 1136.12 211.87C1137.58 211.811 1138.71 210.639 1138.65 209.252C1138.6 207.865 1137.37 206.788 1135.92 206.847ZM1045.24 207.16C1043.29 207.238 1041.78 208.801 1041.85 210.651C1041.93 212.5 1043.56 213.936 1045.51 213.857C1047.45 213.779 1048.96 212.216 1048.89 210.366C1048.81 208.517 1047.18 207.081 1045.24 207.16ZM1084.79 205.56C1082.85 205.638 1081.34 207.201 1081.41 209.051C1081.49 210.9 1083.12 212.336 1085.07 212.258C1087.01 212.179 1088.52 210.616 1088.45 208.767C1088.37 206.917 1086.74 205.482 1084.79 205.56ZM1124.35 203.96C1122.41 204.039 1120.9 205.602 1120.97 207.451C1121.05 209.3 1122.68 210.736 1124.62 210.658C1126.56 210.579 1128.08 209.016 1128 207.167C1127.93 205.317 1126.29 203.882 1124.35 203.96ZM1056.83 196.043C1056.6 190.436 1045.21 194.172 1039.55 196.741C1045.4 198.845 1057.05 201.65 1056.83 196.043ZM1067.88 193.98C1066.58 194.033 1065.57 195.129 1065.62 196.43C1065.67 197.73 1066.77 198.742 1068.07 198.689C1069.37 198.636 1070.38 197.54 1070.33 196.239C1070.28 194.939 1069.18 193.927 1067.88 193.98ZM1084.32 192.371C1082.76 192.434 1081.55 193.75 1081.61 195.311C1081.68 196.871 1082.99 198.086 1084.55 198.022C1086.11 197.959 1087.33 196.643 1087.26 195.082C1087.2 193.522 1085.88 192.308 1084.32 192.371ZM1099.9 192.685C1098.6 192.738 1097.59 193.834 1097.64 195.135C1097.7 196.435 1098.79 197.447 1100.09 197.394C1101.39 197.341 1102.4 196.244 1102.35 194.944C1102.3 193.644 1101.2 192.632 1099.9 192.685ZM1129.1 193.134C1123.22 191.042 1111.52 188.253 1111.74 193.835C1111.97 199.418 1123.41 195.693 1129.1 193.134ZM1075.45 194.617C1074.67 194.649 1074.06 195.307 1074.1 196.087C1074.13 196.867 1074.79 197.474 1075.57 197.443C1076.35 197.411 1076.95 196.753 1076.92 195.973C1076.89 195.192 1076.23 194.585 1075.45 194.617ZM1092.41 193.931C1091.63 193.963 1091.02 194.621 1091.05 195.401C1091.08 196.181 1091.74 196.789 1092.52 196.757C1093.3 196.725 1093.91 196.067 1093.88 195.287C1093.84 194.507 1093.19 193.9 1092.41 193.931ZM1053.6 178.508C1048.32 173.617 1041.2 187.579 1038.3 195.172C1045.6 191.656 1058.88 183.4 1053.6 178.508ZM1130.51 191.36C1126.99 184.06 1118.73 170.779 1113.84 176.059C1108.95 181.34 1122.91 188.46 1130.51 191.36ZM1131.38 172.832C1125.77 173.058 1129.51 184.444 1132.07 190.109C1134.18 184.255 1136.98 172.605 1131.38 172.832ZM1035.82 176.408C1030.24 176.634 1033.96 188.072 1036.52 193.763C1038.62 187.883 1041.4 176.182 1035.82 176.408ZM1082.76 153.755C1080.22 161.405 1076.85 176.635 1083.68 176.36C1090.5 176.084 1085.91 161.175 1082.76 153.755ZM1077.52 152.552C1071.16 155.746 1059.53 163.159 1063.97 167.251C1068.4 171.343 1074.85 159.156 1077.52 152.552ZM1087.89 152.133C1091.08 158.5 1098.49 170.126 1102.58 165.689C1106.68 161.252 1094.49 154.803 1087.89 152.133ZM1035.5 163.213C1034.2 163.266 1033.19 164.363 1033.24 165.663C1033.3 166.964 1034.39 167.975 1035.69 167.922C1036.99 167.87 1038.01 166.773 1037.95 165.473C1037.9 164.172 1036.8 163.161 1035.5 163.213ZM1131.57 159.328C1130.27 159.381 1129.26 160.478 1129.31 161.778C1129.37 163.078 1130.46 164.09 1131.76 164.037C1133.06 163.984 1134.08 162.888 1134.02 161.587C1133.97 160.287 1132.87 159.276 1131.57 159.328ZM1035.24 156.62C1034.46 156.652 1033.85 157.31 1033.88 158.09C1033.91 158.87 1034.57 159.477 1035.35 159.446C1036.13 159.414 1036.74 158.756 1036.71 157.976C1036.67 157.196 1036.02 156.589 1035.24 156.62ZM1131.31 152.735C1130.53 152.766 1129.92 153.425 1129.95 154.205C1129.98 154.985 1130.64 155.592 1131.42 155.561C1132.2 155.529 1132.81 154.871 1132.78 154.091C1132.74 153.311 1132.09 152.704 1131.31 152.735ZM1082.3 142.453C1079.7 142.558 1077.68 144.751 1077.79 147.352C1077.89 149.953 1080.08 151.976 1082.69 151.871C1085.29 151.766 1087.31 149.572 1087.2 146.971C1087.1 144.37 1084.91 142.347 1082.3 142.453ZM1075.9 147.428C1068.25 144.89 1053.02 141.52 1053.3 148.343C1053.57 155.166 1068.48 150.576 1075.9 147.428ZM1111.69 145.981C1111.42 139.158 1096.51 143.747 1089.09 146.895C1096.74 149.433 1111.97 152.804 1111.69 145.981ZM1034.35 146.279C1032.79 146.342 1031.57 147.658 1031.63 149.219C1031.7 150.779 1033.01 151.993 1034.57 151.93C1036.14 151.867 1037.35 150.551 1037.29 148.99C1037.22 147.43 1035.91 146.215 1034.35 146.279ZM1130.42 142.393C1128.86 142.456 1127.64 143.773 1127.7 145.333C1127.77 146.894 1129.08 148.108 1130.64 148.045C1132.2 147.982 1133.42 146.665 1133.36 145.105C1133.29 143.544 1131.98 142.33 1130.42 142.393ZM1077.11 142.191C1073.91 135.823 1066.5 124.197 1062.41 128.634C1058.31 133.071 1070.5 139.521 1077.11 142.191ZM1101.02 127.072C1096.59 122.981 1090.14 135.167 1087.47 141.772C1093.83 138.577 1105.46 131.164 1101.02 127.072ZM1034.55 139.667C1033.77 139.699 1033.16 140.356 1033.19 141.136C1033.23 141.917 1033.88 142.524 1034.66 142.492C1035.45 142.46 1036.05 141.802 1036.02 141.022C1035.99 140.242 1035.33 139.636 1034.55 139.667ZM1081.31 117.964C1074.49 118.24 1079.08 133.148 1082.23 140.568C1084.77 132.919 1088.14 117.688 1081.31 117.964ZM1130.62 135.782C1129.84 135.814 1129.23 136.471 1129.26 137.251C1129.3 138.031 1129.95 138.638 1130.73 138.607C1131.51 138.575 1132.12 137.917 1132.09 137.137C1132.06 136.357 1131.4 135.751 1130.62 135.782ZM1034.21 131.19C1032.91 131.242 1031.9 132.339 1031.95 133.639C1032 134.94 1033.1 135.952 1034.4 135.9C1035.7 135.847 1036.71 134.749 1036.66 133.449C1036.6 132.149 1035.51 131.137 1034.21 131.19ZM1130.28 127.305C1128.98 127.357 1127.97 128.454 1128.02 129.754C1128.07 131.055 1129.17 132.067 1130.47 132.015C1131.77 131.962 1132.78 130.864 1132.73 129.564C1132.67 128.264 1131.58 127.252 1130.28 127.305ZM1032.91 104.425C1030.82 110.304 1028.03 122.006 1033.61 121.78C1039.19 121.555 1035.47 110.116 1032.91 104.425ZM1128.47 100.561C1126.38 106.44 1123.59 118.142 1129.17 117.916C1134.75 117.69 1131.03 106.252 1128.47 100.561ZM1034.56 102.877C1038.07 110.211 1046.29 123.553 1051.16 118.252C1056.03 112.95 1042.12 105.793 1034.56 102.877ZM1126.69 99.151C1119.39 102.668 1106.11 110.924 1111.39 115.816C1116.67 120.707 1123.79 106.744 1126.69 99.151ZM1052.96 100.513C1052.74 94.9066 1041.35 98.6429 1035.68 101.212C1041.54 103.315 1053.19 106.12 1052.96 100.513ZM1125.44 97.5821C1119.59 95.4788 1107.94 92.6742 1108.16 98.2808C1108.39 103.888 1119.78 100.151 1125.44 97.5821ZM1063.99 97.9101C1062.69 97.9628 1061.68 99.0595 1061.73 100.36C1061.79 101.66 1062.88 102.672 1064.18 102.619C1065.48 102.567 1066.5 101.47 1066.44 100.169C1066.39 98.869 1065.29 97.8575 1063.99 97.9101ZM1080.44 96.3009C1078.88 96.3641 1077.66 97.6806 1077.73 99.241C1077.79 100.802 1079.11 102.016 1080.67 101.953C1082.23 101.889 1083.44 100.573 1083.38 99.0125C1083.32 97.452 1082 96.2378 1080.44 96.3009ZM1096.02 96.615C1094.72 96.6676 1093.71 97.7643 1093.76 99.0648C1093.81 100.365 1094.91 101.377 1096.21 101.324C1097.51 101.271 1098.52 100.175 1098.47 98.8743C1098.41 97.574 1097.32 96.5626 1096.02 96.615ZM1071.57 98.547C1070.79 98.5786 1070.18 99.2368 1070.21 100.017C1070.24 100.797 1070.9 101.404 1071.68 101.373C1072.46 101.341 1073.07 100.683 1073.04 99.9028C1073.01 99.1225 1072.35 98.5155 1071.57 98.547ZM1088.52 97.8614C1087.74 97.8929 1087.13 98.5512 1087.16 99.3314C1087.2 100.112 1087.85 100.719 1088.63 100.687C1089.42 100.655 1090.02 99.9972 1089.99 99.2171C1089.96 98.437 1089.3 97.83 1088.52 97.8614Z" fill="#F52F1B"/>
<path d="M588.873 87.2504L584.105 205.157C583.667 215.985 592.167 225.12 603.091 225.562C614.015 226.004 623.226 217.585 623.664 206.757C623.226 217.585 631.726 226.72 642.649 227.162C653.573 227.604 662.783 219.184 663.221 208.357C662.783 219.184 671.284 228.32 682.208 228.762C693.131 229.203 702.342 220.784 702.78 209.956L707.548 92.0498L588.873 87.2504ZM687.097 218.268C688.553 218.327 689.689 219.499 689.633 220.886C689.577 222.273 688.35 223.35 686.894 223.291C685.438 223.232 684.303 222.06 684.359 220.673C684.415 219.286 685.641 218.209 687.097 218.268ZM678.306 217.912C679.763 217.971 680.898 219.144 680.842 220.531C680.786 221.918 679.56 222.995 678.103 222.936C676.647 222.877 675.512 221.704 675.568 220.317C675.624 218.93 676.85 217.854 678.306 217.912ZM647.539 216.668C648.996 216.727 650.131 217.899 650.075 219.286C650.019 220.673 648.793 221.75 647.336 221.691C645.88 221.632 644.744 220.46 644.8 219.073C644.856 217.686 646.083 216.609 647.539 216.668ZM638.749 216.313C640.205 216.372 641.34 217.544 641.284 218.931C641.228 220.318 640.002 221.395 638.546 221.336C637.089 221.277 635.954 220.105 636.01 218.718C636.066 217.33 637.292 216.254 638.749 216.313ZM607.981 215.068C609.437 215.127 610.573 216.3 610.517 217.687C610.461 219.074 609.234 220.15 607.778 220.092C606.321 220.033 605.187 218.86 605.243 217.473C605.299 216.086 606.524 215.01 607.981 215.068ZM599.19 214.713C600.647 214.772 601.782 215.944 601.726 217.331C601.67 218.718 600.444 219.795 598.987 219.736C597.531 219.677 596.395 218.505 596.451 217.118C596.507 215.731 597.734 214.654 599.19 214.713ZM694.401 211.855C695.857 211.914 696.992 213.086 696.936 214.473C696.88 215.86 695.654 216.937 694.198 216.878C692.741 216.819 691.606 215.647 691.662 214.26C691.718 212.873 692.945 211.796 694.401 211.855ZM671.545 210.93C673.001 210.989 674.137 212.162 674.081 213.549C674.025 214.936 672.798 216.012 671.342 215.954C669.885 215.895 668.751 214.722 668.807 213.335C668.863 211.948 670.088 210.872 671.545 210.93ZM654.843 210.255C656.299 210.314 657.435 211.486 657.378 212.873C657.322 214.26 656.096 215.337 654.639 215.278C653.183 215.219 652.047 214.047 652.104 212.66C652.16 211.273 653.386 210.196 654.843 210.255ZM631.987 209.331C633.444 209.39 634.578 210.562 634.522 211.949C634.466 213.336 633.24 214.413 631.784 214.354C630.328 214.295 629.192 213.123 629.248 211.736C629.304 210.348 630.531 209.272 631.987 209.331ZM615.284 208.655C616.741 208.714 617.876 209.886 617.82 211.273C617.764 212.66 616.537 213.737 615.081 213.678C613.625 213.619 612.49 212.447 612.546 211.06C612.602 209.673 613.828 208.596 615.284 208.655ZM592.429 207.731C593.885 207.79 595.021 208.962 594.965 210.349C594.909 211.736 593.682 212.813 592.226 212.754C590.769 212.695 589.634 211.523 589.69 210.136C589.746 208.749 590.972 207.672 592.429 207.731ZM683.108 208.044C685.05 208.122 686.564 209.685 686.49 211.535C686.415 213.384 684.779 214.82 682.837 214.741C680.896 214.663 679.382 213.1 679.456 211.25C679.531 209.401 681.166 207.965 683.108 208.044ZM643.55 206.444C645.492 206.522 647.006 208.085 646.931 209.935C646.856 211.784 645.221 213.22 643.279 213.142C641.337 213.063 639.824 211.5 639.899 209.651C639.974 207.801 641.608 206.366 643.55 206.444ZM603.992 204.844C605.934 204.923 607.447 206.486 607.373 208.335C607.298 210.184 605.663 211.62 603.721 211.542C601.78 211.463 600.266 209.9 600.34 208.051C600.415 206.201 602.05 204.766 603.992 204.844ZM671.518 196.927C671.745 191.32 683.132 195.056 688.797 197.625C682.943 199.729 671.291 202.534 671.518 196.927ZM660.465 194.864C661.766 194.917 662.777 196.013 662.724 197.314C662.672 198.614 661.575 199.626 660.275 199.573C658.974 199.521 657.963 198.424 658.015 197.123C658.068 195.823 659.165 194.811 660.465 194.864ZM644.021 193.255C645.581 193.318 646.795 194.634 646.732 196.195C646.669 197.755 645.353 198.97 643.792 198.907C642.232 198.843 641.017 197.527 641.081 195.966C641.144 194.406 642.46 193.192 644.021 193.255ZM628.442 193.569C629.742 193.622 630.753 194.718 630.701 196.019C630.648 197.319 629.551 198.331 628.251 198.278C626.951 198.225 625.939 197.128 625.992 195.828C626.044 194.528 627.141 193.517 628.442 193.569ZM599.248 194.018C605.127 191.926 616.829 189.137 616.603 194.719C616.377 200.302 604.939 196.578 599.248 194.018ZM652.892 195.501C653.672 195.533 654.28 196.191 654.248 196.971C654.216 197.751 653.558 198.358 652.778 198.327C651.998 198.295 651.391 197.637 651.422 196.857C651.454 196.076 652.112 195.469 652.892 195.501ZM635.938 194.815C636.719 194.847 637.326 195.505 637.294 196.285C637.262 197.065 636.604 197.673 635.824 197.641C635.044 197.609 634.437 196.951 634.468 196.171C634.5 195.391 635.158 194.784 635.938 194.815ZM674.747 179.392C680.027 174.501 687.147 188.463 690.048 196.057C682.747 192.54 669.466 184.284 674.747 179.392ZM597.838 192.244C601.355 184.944 609.611 171.663 614.502 176.943C619.394 182.224 605.431 189.344 597.838 192.244ZM596.968 173.716C602.575 173.942 598.838 185.328 596.269 190.993C594.166 185.139 591.361 173.489 596.968 173.716ZM692.523 177.292C698.105 177.518 694.381 188.956 691.821 194.647C689.729 188.767 686.941 177.066 692.523 177.292ZM645.582 154.639C648.121 162.289 651.491 177.519 644.668 177.244C637.845 176.968 642.435 162.059 645.582 154.639ZM650.82 153.436C657.187 156.63 668.813 164.043 664.377 168.135C659.94 172.227 653.49 160.04 650.82 153.436ZM640.459 153.017C637.264 159.384 629.852 171.01 625.76 166.573C621.668 162.136 633.854 155.687 640.459 153.017ZM692.841 164.097C694.142 164.15 695.153 165.247 695.101 166.547C695.048 167.848 693.951 168.859 692.651 168.806C691.351 168.754 690.339 167.657 690.392 166.357C690.444 165.056 691.541 164.045 692.841 164.097ZM596.771 160.212C598.072 160.265 599.084 161.362 599.032 162.662C598.979 163.962 597.881 164.974 596.581 164.921C595.281 164.868 594.269 163.772 594.322 162.471C594.374 161.171 595.471 160.16 596.771 160.212ZM693.108 157.504C693.888 157.536 694.495 158.194 694.464 158.974C694.432 159.754 693.774 160.362 692.994 160.33C692.214 160.298 691.606 159.64 691.638 158.86C691.669 158.08 692.328 157.473 693.108 157.504ZM597.038 153.619C597.818 153.65 598.425 154.309 598.394 155.089C598.362 155.869 597.704 156.476 596.924 156.445C596.144 156.413 595.537 155.755 595.569 154.975C595.601 154.195 596.258 153.588 597.038 153.619ZM646.039 143.337C648.64 143.442 650.663 145.635 650.558 148.236C650.453 150.837 648.259 152.86 645.659 152.755C643.058 152.65 641.035 150.456 641.14 147.855C641.245 145.254 643.439 143.232 646.039 143.337ZM652.442 148.312C660.092 145.774 675.323 142.404 675.047 149.227C674.771 156.05 659.862 151.46 652.442 148.312ZM616.651 146.865C616.927 140.042 631.836 144.631 639.256 147.779C631.606 150.317 616.375 153.688 616.651 146.865ZM693.998 147.163C695.559 147.226 696.773 148.542 696.71 150.103C696.647 151.663 695.33 152.877 693.77 152.814C692.209 152.751 690.995 151.435 691.058 149.874C691.121 148.314 692.438 147.099 693.998 147.163ZM597.928 143.277C599.489 143.34 600.703 144.657 600.64 146.217C600.577 147.778 599.26 148.992 597.7 148.929C596.139 148.866 594.925 147.549 594.988 145.989C595.051 144.428 596.368 143.214 597.928 143.277ZM651.239 143.075C654.434 136.707 661.846 125.081 665.938 129.518C670.03 133.955 657.844 140.405 651.239 143.075ZM627.321 127.956C631.758 123.865 638.208 136.051 640.878 142.656C634.511 139.461 622.885 132.048 627.321 127.956ZM693.794 140.551C694.574 140.583 695.181 141.24 695.149 142.02C695.118 142.801 694.46 143.408 693.679 143.376C692.899 143.344 692.292 142.686 692.324 141.906C692.355 141.126 693.014 140.52 693.794 140.551ZM647.03 118.848C653.853 119.124 649.263 134.033 646.116 141.453C643.577 133.803 640.207 118.572 647.03 118.848ZM597.724 136.666C598.504 136.698 599.111 137.355 599.079 138.135C599.048 138.915 598.39 139.522 597.609 139.491C596.829 139.459 596.223 138.801 596.255 138.021C596.286 137.241 596.944 136.635 597.724 136.666ZM694.136 132.074C695.437 132.126 696.448 133.223 696.396 134.524C696.343 135.824 695.246 136.836 693.946 136.784C692.646 136.731 691.634 135.633 691.687 134.333C691.739 133.033 692.836 132.021 694.136 132.074ZM598.066 128.189C599.367 128.241 600.379 129.338 600.327 130.638C600.274 131.939 599.176 132.951 597.876 132.899C596.576 132.846 595.564 131.748 595.617 130.448C595.67 129.148 596.766 128.136 598.066 128.189ZM695.434 105.309C697.526 111.188 700.314 122.89 694.732 122.664C689.15 122.439 692.874 111 695.434 105.309ZM599.877 101.445C601.969 107.324 604.758 119.026 599.175 118.8C593.593 118.574 597.317 107.136 599.877 101.445ZM693.78 103.761C690.276 111.095 682.052 124.437 677.183 119.136C672.315 113.834 686.219 106.677 693.78 103.761ZM601.65 100.035C608.951 103.552 622.232 111.808 616.951 116.7C611.671 121.591 604.551 107.628 601.65 100.035ZM675.381 101.397C675.608 95.7907 686.995 99.527 692.66 102.096C686.806 104.199 675.154 107.004 675.381 101.397ZM602.901 98.4661C608.755 96.3628 620.407 93.5582 620.18 99.1649C619.953 104.772 608.566 101.035 602.901 98.4661ZM664.35 98.7941C665.651 98.8468 666.662 99.9435 666.61 101.244C666.557 102.544 665.46 103.556 664.16 103.503C662.86 103.451 661.848 102.354 661.901 101.053C661.953 99.753 663.05 98.7416 664.35 98.7941ZM647.906 97.185C649.466 97.2481 650.68 98.5646 650.617 100.125C650.554 101.686 649.238 102.9 647.677 102.837C646.117 102.773 644.903 101.457 644.966 99.8965C645.029 98.3361 646.345 97.1219 647.906 97.185ZM632.327 97.4991C633.627 97.5517 634.639 98.6484 634.586 99.9488C634.533 101.249 633.437 102.261 632.136 102.208C630.836 102.155 629.825 101.059 629.877 99.7584C629.93 98.458 631.026 97.4466 632.327 97.4991ZM656.777 99.431C657.558 99.4627 658.165 100.121 658.133 100.901C658.102 101.681 657.443 102.288 656.663 102.257C655.883 102.225 655.276 101.567 655.307 100.787C655.339 100.007 655.997 99.3995 656.777 99.431ZM639.824 98.7454C640.604 98.777 641.211 99.4352 641.179 100.215C641.148 100.996 640.489 101.603 639.709 101.571C638.929 101.54 638.322 100.881 638.353 100.101C638.385 99.321 639.043 98.714 639.824 98.7454Z" fill="#F52F1B"/>
<path d="M1366.31 69.913L1376.23 187.498C1377.14 198.296 1369.04 207.795 1358.15 208.713C1347.26 209.632 1337.69 201.622 1336.78 190.824C1337.69 201.622 1329.59 211.121 1318.7 212.04C1307.81 212.958 1298.24 204.948 1297.33 194.15C1298.24 204.948 1290.14 214.447 1279.25 215.366C1268.36 216.285 1258.79 208.275 1257.88 197.477L1247.96 79.8918L1366.31 69.913ZM1273.91 205.095C1272.45 205.218 1271.37 206.438 1271.49 207.822C1271.6 209.205 1272.88 210.227 1274.33 210.105C1275.78 209.982 1276.86 208.761 1276.75 207.378C1276.63 205.995 1275.36 204.973 1273.91 205.095ZM1282.67 204.356C1281.22 204.478 1280.14 205.699 1280.25 207.083C1280.37 208.466 1281.64 209.488 1283.1 209.366C1284.55 209.243 1285.63 208.022 1285.51 206.639C1285.4 205.256 1284.13 204.233 1282.67 204.356ZM1313.36 201.769C1311.9 201.891 1310.82 203.112 1310.94 204.495C1311.05 205.878 1312.33 206.901 1313.78 206.778C1315.23 206.656 1316.31 205.435 1316.2 204.052C1316.08 202.669 1314.81 201.646 1313.36 201.769ZM1322.12 201.03C1320.67 201.152 1319.59 202.373 1319.7 203.756C1319.82 205.139 1321.09 206.162 1322.55 206.039C1324 205.917 1325.08 204.696 1324.96 203.313C1324.85 201.929 1323.58 200.907 1322.12 201.03ZM1352.81 198.443C1351.35 198.565 1350.27 199.786 1350.39 201.169C1350.51 202.552 1351.78 203.574 1353.23 203.452C1354.68 203.33 1355.76 202.109 1355.65 200.726C1355.53 199.342 1354.26 198.32 1352.81 198.443ZM1361.57 197.703C1360.12 197.826 1359.04 199.047 1359.16 200.43C1359.27 201.813 1360.54 202.835 1362 202.713C1363.45 202.59 1364.53 201.37 1364.41 199.986C1364.3 198.603 1363.03 197.581 1361.57 197.703ZM1266.33 199.007C1264.88 199.129 1263.79 200.35 1263.91 201.734C1264.03 203.117 1265.3 204.139 1266.75 204.017C1268.2 203.894 1269.29 202.673 1269.17 201.29C1269.05 199.907 1267.78 198.885 1266.33 199.007ZM1289.12 197.085C1287.67 197.208 1286.59 198.428 1286.7 199.812C1286.82 201.195 1288.09 202.217 1289.55 202.095C1291 201.972 1292.08 200.751 1291.96 199.368C1291.85 197.985 1290.58 196.963 1289.12 197.085ZM1305.78 195.681C1304.33 195.803 1303.24 197.024 1303.36 198.407C1303.48 199.79 1304.75 200.813 1306.2 200.69C1307.65 200.568 1308.74 199.347 1308.62 197.964C1308.5 196.581 1307.23 195.558 1305.78 195.681ZM1328.57 193.759C1327.12 193.881 1326.04 195.102 1326.15 196.485C1326.27 197.869 1327.54 198.891 1329 198.768C1330.45 198.646 1331.53 197.425 1331.42 196.042C1331.3 194.659 1330.03 193.636 1328.57 193.759ZM1345.23 192.354C1343.78 192.477 1342.69 193.698 1342.81 195.081C1342.93 196.464 1344.2 197.486 1345.65 197.364C1347.1 197.242 1348.19 196.021 1348.07 194.637C1347.96 193.254 1346.68 192.232 1345.23 192.354ZM1368.02 190.433C1366.57 190.555 1365.49 191.776 1365.61 193.159C1365.72 194.542 1366.99 195.565 1368.45 195.442C1369.9 195.319 1370.98 194.099 1370.86 192.716C1370.75 191.332 1369.48 190.31 1368.02 190.433ZM1277.44 194.705C1275.51 194.869 1274.06 196.497 1274.22 198.341C1274.37 200.185 1276.07 201.548 1278.01 201.385C1279.94 201.221 1281.39 199.594 1281.23 197.749C1281.08 195.905 1279.38 194.542 1277.44 194.705ZM1316.89 191.379C1314.96 191.543 1313.52 193.17 1313.67 195.014C1313.83 196.859 1315.52 198.222 1317.46 198.059C1319.39 197.895 1320.84 196.268 1320.68 194.423C1320.53 192.579 1318.83 191.216 1316.89 191.379ZM1356.35 188.053C1354.41 188.216 1352.96 189.844 1353.12 191.688C1353.28 193.533 1354.97 194.896 1356.91 194.732C1358.85 194.569 1360.29 192.941 1360.13 191.097C1359.98 189.253 1358.28 187.89 1356.35 188.053ZM1288.54 183.094C1288.07 177.502 1276.85 181.732 1271.31 184.546C1277.25 186.392 1289.01 188.685 1288.54 183.094ZM1299.49 180.549C1298.19 180.659 1297.23 181.799 1297.34 183.095C1297.45 184.392 1298.59 185.355 1299.89 185.245C1301.18 185.136 1302.15 183.996 1302.04 182.699C1301.93 181.403 1300.79 180.44 1299.49 180.549ZM1315.85 178.224C1314.29 178.355 1313.14 179.724 1313.27 181.28C1313.4 182.836 1314.77 183.991 1316.32 183.859C1317.88 183.728 1319.04 182.361 1318.9 180.805C1318.77 179.249 1317.41 178.093 1315.85 178.224ZM1331.43 177.857C1330.13 177.966 1329.17 179.106 1329.28 180.403C1329.39 181.699 1330.53 182.662 1331.82 182.553C1333.12 182.443 1334.08 181.304 1333.97 180.007C1333.86 178.71 1332.72 177.747 1331.43 177.857ZM1360.61 177.03C1354.65 175.197 1342.84 172.923 1343.3 178.49C1343.77 184.056 1355.04 179.836 1360.61 177.03ZM1307.08 180.855C1306.31 180.92 1305.73 181.605 1305.79 182.383C1305.86 183.161 1306.54 183.738 1307.32 183.673C1308.1 183.607 1308.68 182.923 1308.61 182.145C1308.55 181.367 1307.86 180.789 1307.08 180.855ZM1323.99 179.429C1323.21 179.495 1322.64 180.179 1322.7 180.957C1322.77 181.735 1323.45 182.313 1324.23 182.247C1325.01 182.182 1325.58 181.498 1325.52 180.719C1325.45 179.941 1324.77 179.364 1323.99 179.429ZM1284.55 165.716C1279.06 161.06 1272.55 175.321 1269.99 183.034C1277.13 179.202 1290.04 170.372 1284.55 165.716ZM1361.94 175.197C1358.11 168.057 1349.28 155.15 1344.63 160.639C1339.97 166.128 1354.23 172.632 1361.94 175.197ZM1362 156.647C1356.41 157.119 1360.64 168.332 1363.46 173.879C1365.3 167.939 1367.59 156.176 1362 156.647ZM1266.7 164.395C1261.13 164.864 1265.35 176.129 1268.16 181.703C1269.99 175.738 1272.26 163.926 1266.7 164.395ZM1312.6 139.713C1310.4 147.467 1307.7 162.83 1314.5 162.256C1321.31 161.682 1316.07 146.989 1312.6 139.713ZM1307.32 138.74C1301.1 142.21 1289.8 150.122 1294.42 154.017C1299.03 157.911 1304.94 145.455 1307.32 138.74ZM1317.65 137.869C1321.12 144.091 1329.03 155.381 1332.93 150.769C1336.82 146.158 1324.36 140.248 1317.65 137.869ZM1265.8 151.227C1264.5 151.337 1263.54 152.477 1263.65 153.773C1263.76 155.07 1264.9 156.033 1266.2 155.923C1267.49 155.814 1268.46 154.674 1268.35 153.377C1268.24 152.08 1267.1 151.118 1265.8 151.227ZM1361.61 143.149C1360.31 143.259 1359.35 144.398 1359.46 145.695C1359.57 146.992 1360.71 147.955 1362.01 147.845C1363.3 147.736 1364.26 146.596 1364.16 145.299C1364.05 144.002 1362.91 143.04 1361.61 143.149ZM1265.25 144.652C1264.47 144.718 1263.89 145.402 1263.96 146.18C1264.02 146.958 1264.71 147.535 1265.48 147.47C1266.26 147.404 1266.84 146.72 1266.77 145.942C1266.71 145.164 1266.02 144.586 1265.25 144.652ZM1361.05 136.574C1360.28 136.639 1359.7 137.324 1359.76 138.102C1359.83 138.88 1360.51 139.457 1361.29 139.392C1362.07 139.326 1362.65 138.642 1362.58 137.864C1362.52 137.086 1361.83 136.508 1361.05 136.574ZM1311.65 128.441C1309.06 128.66 1307.13 130.94 1307.35 133.534C1307.57 136.128 1309.85 138.053 1312.44 137.834C1315.04 137.615 1316.96 135.336 1316.74 132.742C1316.53 130.148 1314.25 128.222 1311.65 128.441ZM1305.47 133.692C1297.72 131.491 1282.36 128.789 1282.93 135.593C1283.5 142.397 1298.2 137.161 1305.47 133.692ZM1341.17 130.683C1340.59 123.878 1325.9 129.115 1318.62 132.584C1326.38 134.785 1341.74 137.487 1341.17 130.683ZM1263.91 134.359C1262.35 134.49 1261.19 135.858 1261.33 137.415C1261.46 138.971 1262.83 140.126 1264.38 139.995C1265.94 139.864 1267.09 138.496 1266.96 136.94C1266.83 135.383 1265.46 134.228 1263.91 134.359ZM1359.71 126.281C1358.16 126.412 1357 127.78 1357.13 129.337C1357.27 130.893 1358.63 132.048 1360.19 131.917C1361.75 131.786 1362.9 130.417 1362.77 128.861C1362.64 127.305 1361.27 126.15 1359.71 126.281ZM1306.45 128.407C1302.98 122.186 1295.06 110.894 1291.17 115.506C1287.27 120.117 1299.73 126.028 1306.45 128.407ZM1329.68 112.259C1325.07 108.365 1319.16 120.821 1316.78 127.536C1323 124.066 1334.29 116.153 1329.68 112.259ZM1263.82 127.744C1263.04 127.81 1262.46 128.494 1262.53 129.272C1262.6 130.05 1263.28 130.628 1264.06 130.562C1264.84 130.497 1265.41 129.813 1265.35 129.034C1265.28 128.256 1264.6 127.679 1263.82 127.744ZM1309.59 104.02C1302.79 104.593 1308.02 119.287 1311.49 126.563C1313.7 118.809 1316.4 103.447 1309.59 104.02ZM1359.63 119.666C1358.85 119.732 1358.27 120.416 1358.34 121.194C1358.4 121.972 1359.09 122.55 1359.87 122.484C1360.64 122.419 1361.22 121.734 1361.16 120.956C1361.09 120.178 1360.41 119.6 1359.63 119.666ZM1263.11 119.291C1261.81 119.4 1260.85 120.54 1260.96 121.837C1261.07 123.134 1262.21 124.096 1263.5 123.987C1264.8 123.878 1265.76 122.738 1265.65 121.441C1265.54 120.144 1264.4 119.181 1263.11 119.291ZM1358.92 111.213C1357.62 111.322 1356.66 112.462 1356.77 113.759C1356.88 115.056 1358.02 116.018 1359.31 115.909C1360.61 115.799 1361.57 114.66 1361.46 113.363C1361.35 112.066 1360.21 111.103 1358.92 111.213ZM1260.64 92.6086C1258.81 98.5734 1256.54 110.385 1262.1 109.915C1267.67 109.446 1263.45 98.1822 1260.64 92.6086ZM1355.94 84.5736C1354.11 90.5384 1351.83 102.35 1357.4 101.88C1362.97 101.41 1358.75 90.1472 1355.94 84.5736ZM1262.23 90.9893C1266.05 98.1634 1274.85 111.133 1279.48 105.624C1284.11 100.114 1269.91 93.5719 1262.23 90.9893ZM1354.11 83.2424C1346.97 87.0746 1334.06 95.9027 1339.55 100.559C1345.04 105.215 1351.54 90.955 1354.11 83.2424ZM1280.51 87.8243C1280.03 82.2327 1268.82 86.4629 1263.27 89.2771C1269.21 91.1226 1280.98 93.4156 1280.51 87.8243ZM1352.79 81.7296C1346.85 79.8841 1335.09 77.5909 1335.56 83.1826C1336.03 88.774 1347.24 84.5438 1352.79 81.7296ZM1291.41 84.7407C1290.12 84.85 1289.15 85.9901 1289.26 87.2868C1289.37 88.5837 1290.51 89.5473 1291.81 89.4379C1293.11 89.3284 1294.07 88.1876 1293.96 86.8908C1293.85 85.5943 1292.71 84.6316 1291.41 84.7407ZM1307.77 82.4157C1306.21 82.5469 1305.06 83.9152 1305.19 85.4714C1305.32 87.0276 1306.69 88.1832 1308.25 88.052C1309.8 87.9206 1310.96 86.5524 1310.83 84.9963C1310.69 83.4401 1309.33 82.2847 1307.77 82.4157ZM1323.35 82.048C1322.05 82.1575 1321.09 83.2975 1321.2 84.5941C1321.31 85.8909 1322.45 86.8544 1323.74 86.7452C1325.04 86.6359 1326 85.4951 1325.89 84.1982C1325.78 82.9015 1324.64 81.9387 1323.35 82.048ZM1299.01 85.0472C1298.23 85.1128 1297.65 85.7961 1297.72 86.5741C1297.78 87.3522 1298.47 87.9299 1299.24 87.8643C1300.02 87.7986 1300.6 87.1145 1300.53 86.3364C1300.47 85.5586 1299.78 84.9817 1299.01 85.0472ZM1315.91 83.6216C1315.14 83.6874 1314.56 84.3707 1314.62 85.1485C1314.69 85.9266 1315.37 86.5043 1316.15 86.4388C1316.93 86.3732 1317.51 85.6891 1317.44 84.9109C1317.37 84.133 1316.69 83.5561 1315.91 83.6216Z" fill="#FFB200"/>
<path d="M362.032 70.7963L352.118 188.381C351.207 199.179 359.3 208.678 370.194 209.597C381.088 210.515 390.657 202.505 391.567 191.707C390.657 202.505 398.751 212.005 409.645 212.923C420.539 213.841 430.108 205.832 431.018 195.034C430.108 205.832 438.201 215.331 449.095 216.249C459.989 217.168 469.559 209.158 470.469 198.36L480.383 80.7751L362.032 70.7963ZM454.438 205.978C455.891 206.101 456.974 207.322 456.857 208.705C456.741 210.088 455.468 211.11 454.016 210.988C452.564 210.866 451.48 209.645 451.597 208.261C451.713 206.878 452.986 205.856 454.438 205.978ZM445.672 205.239C447.124 205.362 448.207 206.582 448.091 207.966C447.974 209.349 446.701 210.371 445.249 210.249C443.797 210.126 442.714 208.905 442.83 207.522C442.947 206.139 444.219 205.117 445.672 205.239ZM414.987 202.652C416.44 202.775 417.523 203.995 417.407 205.379C417.29 206.762 416.017 207.784 414.565 207.662C413.113 207.539 412.031 206.318 412.147 204.935C412.264 203.552 413.535 202.53 414.987 202.652ZM406.221 201.913C407.673 202.035 408.756 203.256 408.64 204.639C408.523 206.023 407.251 207.045 405.798 206.922C404.346 206.8 403.264 205.579 403.38 204.196C403.497 202.813 404.768 201.791 406.221 201.913ZM375.538 199.326C376.99 199.449 378.072 200.669 377.956 202.052C377.839 203.435 376.567 204.458 375.115 204.335C373.663 204.213 372.58 202.992 372.696 201.609C372.813 200.226 374.085 199.203 375.538 199.326ZM366.771 198.587C368.223 198.709 369.306 199.93 369.189 201.313C369.072 202.696 367.801 203.718 366.348 203.596C364.896 203.474 363.813 202.253 363.929 200.87C364.046 199.486 365.318 198.464 366.771 198.587ZM462.015 199.89C463.467 200.013 464.55 201.234 464.434 202.617C464.317 204 463.045 205.022 461.592 204.9C460.14 204.777 459.057 203.556 459.173 202.173C459.29 200.79 460.562 199.768 462.015 199.89ZM439.222 197.968C440.674 198.091 441.756 199.312 441.64 200.695C441.523 202.078 440.251 203.1 438.799 202.978C437.347 202.856 436.264 201.635 436.38 200.252C436.497 198.868 437.769 197.846 439.222 197.968ZM422.564 196.564C424.016 196.686 425.1 197.907 424.983 199.291C424.866 200.674 423.594 201.696 422.141 201.574C420.689 201.451 419.607 200.23 419.723 198.847C419.84 197.464 421.112 196.442 422.564 196.564ZM399.771 194.642C401.223 194.765 402.306 195.985 402.19 197.369C402.073 198.752 400.801 199.774 399.348 199.652C397.896 199.529 396.813 198.308 396.929 196.925C397.046 195.542 398.318 194.52 399.771 194.642ZM383.114 193.238C384.566 193.36 385.65 194.581 385.533 195.964C385.416 197.347 384.144 198.37 382.692 198.247C381.239 198.125 380.156 196.904 380.272 195.521C380.389 194.137 381.661 193.115 383.114 193.238ZM360.32 191.316C361.772 191.438 362.856 192.659 362.739 194.042C362.622 195.426 361.35 196.448 359.897 196.325C358.445 196.203 357.363 194.982 357.479 193.599C357.596 192.216 358.868 191.194 360.32 191.316ZM450.899 195.589C452.836 195.752 454.28 197.38 454.125 199.224C453.969 201.069 452.273 202.431 450.336 202.268C448.4 202.105 446.956 200.477 447.112 198.633C447.267 196.789 448.963 195.426 450.899 195.589ZM411.449 192.262C413.386 192.426 414.829 194.054 414.674 195.898C414.518 197.742 412.823 199.105 410.886 198.942C408.95 198.779 407.505 197.151 407.661 195.306C407.817 193.462 409.513 192.099 411.449 192.262ZM371.999 188.936C373.935 189.099 375.379 190.727 375.224 192.572C375.069 194.416 373.372 195.779 371.435 195.616C369.499 195.452 368.055 193.825 368.211 191.98C368.367 190.136 370.062 188.773 371.999 188.936ZM439.806 183.977C440.278 178.385 451.49 182.616 457.037 185.43C451.097 187.275 439.335 189.568 439.806 183.977ZM428.854 181.432C430.15 181.542 431.113 182.682 431.004 183.979C430.894 185.275 429.754 186.238 428.458 186.129C427.161 186.019 426.198 184.879 426.307 183.583C426.417 182.286 427.557 181.323 428.854 181.432ZM412.495 179.107C414.051 179.239 415.207 180.607 415.075 182.163C414.944 183.719 413.576 184.874 412.02 184.743C410.464 184.611 409.309 183.244 409.44 181.688C409.571 180.132 410.939 178.976 412.495 179.107ZM396.918 178.74C398.215 178.849 399.177 179.989 399.068 181.286C398.959 182.583 397.819 183.545 396.522 183.436C395.225 183.327 394.263 182.187 394.372 180.89C394.481 179.593 395.621 178.63 396.918 178.74ZM367.732 177.914C373.697 176.08 385.509 173.806 385.04 179.373C384.57 184.94 373.305 180.72 367.732 177.914ZM421.26 181.738C422.038 181.804 422.616 182.488 422.55 183.266C422.485 184.044 421.801 184.622 421.022 184.556C420.244 184.49 419.667 183.806 419.732 183.028C419.798 182.25 420.482 181.673 421.26 181.738ZM404.353 180.312C405.131 180.378 405.709 181.062 405.643 181.84C405.578 182.618 404.894 183.196 404.116 183.131C403.337 183.065 402.76 182.381 402.825 181.603C402.891 180.825 403.575 180.247 404.353 180.312ZM443.797 166.599C449.286 161.943 455.791 176.205 458.356 183.917C451.216 180.085 438.308 171.256 443.797 166.599ZM366.401 176.08C370.233 168.94 379.062 156.033 383.718 161.522C388.374 167.011 374.113 173.515 366.401 176.08ZM366.341 157.53C371.933 158.002 367.702 169.215 364.888 174.762C363.042 168.822 360.75 157.06 366.341 157.53ZM461.648 165.278C467.215 165.748 462.995 177.012 460.189 182.586C458.356 176.621 456.081 164.809 461.648 165.278ZM415.742 140.597C417.944 148.35 420.646 163.713 413.841 163.14C407.037 162.566 412.273 147.872 415.742 140.597ZM421.027 139.623C427.249 143.093 438.54 151.006 433.929 154.9C429.317 158.794 423.406 146.338 421.027 139.623ZM410.695 138.752C407.225 144.974 399.312 156.264 395.418 151.653C391.524 147.041 403.979 141.131 410.695 138.752ZM462.544 152.111C463.84 152.22 464.803 153.36 464.694 154.657C464.584 155.953 463.444 156.916 462.148 156.807C460.851 156.697 459.888 155.557 459.998 154.261C460.107 152.964 461.247 152.001 462.544 152.111ZM366.735 144.032C368.032 144.142 368.995 145.282 368.885 146.578C368.776 147.875 367.636 148.838 366.339 148.729C365.042 148.619 364.08 147.479 364.189 146.183C364.298 144.886 365.438 143.923 366.735 144.032ZM463.098 145.535C463.876 145.601 464.454 146.285 464.388 147.063C464.322 147.841 463.638 148.419 462.86 148.353C462.082 148.288 461.505 147.604 461.57 146.826C461.636 146.047 462.32 145.47 463.098 145.535ZM367.29 137.457C368.068 137.523 368.645 138.207 368.58 138.985C368.514 139.763 367.83 140.341 367.052 140.275C366.274 140.21 365.696 139.525 365.762 138.747C365.827 137.969 366.511 137.391 367.29 137.457ZM416.692 129.324C419.286 129.543 421.212 131.824 420.994 134.417C420.775 137.011 418.494 138.936 415.9 138.718C413.307 138.499 411.382 136.219 411.6 133.625C411.819 131.032 414.099 129.106 416.692 129.324ZM422.872 134.576C430.625 132.374 445.988 129.672 445.415 136.476C444.841 143.281 430.147 138.045 422.872 134.576ZM387.179 131.566C387.753 124.762 402.447 129.998 409.722 133.467C401.969 135.669 386.606 138.371 387.179 131.566ZM464.438 135.242C465.995 135.374 467.15 136.742 467.019 138.298C466.887 139.854 465.519 141.01 463.963 140.879C462.407 140.747 461.252 139.379 461.383 137.823C461.515 136.267 462.882 135.111 464.438 135.242ZM368.63 127.164C370.186 127.295 371.341 128.664 371.21 130.22C371.079 131.776 369.711 132.932 368.155 132.8C366.599 132.669 365.444 131.301 365.575 129.745C365.706 128.189 367.074 127.033 368.63 127.164ZM421.898 129.291C425.368 123.069 433.282 111.778 437.176 116.389C441.07 121 428.613 126.912 421.898 129.291ZM398.665 113.142C403.276 109.248 409.187 121.705 411.566 128.42C405.344 124.95 394.054 117.036 398.665 113.142ZM464.524 128.627C465.302 128.693 465.879 129.377 465.814 130.155C465.748 130.933 465.064 131.511 464.286 131.446C463.508 131.38 462.93 130.696 462.996 129.918C463.061 129.14 463.745 128.562 464.524 128.627ZM418.752 104.903C425.556 105.477 420.32 120.171 416.851 127.446C414.649 119.693 411.947 104.33 418.752 104.903ZM368.715 120.549C369.493 120.615 370.071 121.299 370.005 122.077C369.94 122.855 369.256 123.433 368.478 123.367C367.699 123.302 367.122 122.618 367.187 121.84C367.253 121.061 367.937 120.484 368.715 120.549ZM465.236 120.174C466.533 120.284 467.496 121.423 467.386 122.72C467.277 124.017 466.137 124.979 464.84 124.87C463.543 124.761 462.581 123.621 462.69 122.324C462.8 121.027 463.939 120.065 465.236 120.174ZM369.428 112.096C370.725 112.205 371.687 113.345 371.578 114.642C371.469 115.939 370.329 116.901 369.032 116.792C367.735 116.683 366.772 115.543 366.882 114.246C366.991 112.949 368.131 111.987 369.428 112.096ZM467.701 93.4919C469.534 99.4567 471.808 111.268 466.241 110.799C460.675 110.329 464.895 99.0655 467.701 93.4919ZM372.404 85.4569C374.237 91.4217 376.512 103.233 370.945 102.764C365.379 102.294 369.598 91.0305 372.404 85.4569ZM466.117 91.8726C462.296 99.0467 453.496 112.017 448.864 106.507C444.232 100.997 458.436 94.4552 466.117 91.8726ZM374.237 84.1257C381.377 87.9579 394.285 96.786 388.797 101.442C383.308 106.099 376.803 91.8383 374.237 84.1257ZM447.839 88.7076C448.311 83.116 459.522 87.3462 465.07 90.1604C459.13 92.0059 447.368 94.2989 447.839 88.7076ZM375.556 82.6129C381.496 80.7674 393.259 78.4742 392.787 84.0659C392.316 89.6573 381.103 85.4271 375.556 82.6129ZM436.932 85.624C438.228 85.7333 439.191 86.8734 439.082 88.1701C438.972 89.467 437.833 90.4306 436.536 90.3212C435.239 90.2117 434.276 89.0709 434.386 87.7741C434.495 86.4776 435.635 85.5149 436.932 85.624ZM420.573 83.299C422.129 83.4302 423.285 84.7985 423.154 86.3547C423.022 87.9109 421.654 89.0665 420.098 88.9353C418.542 88.8039 417.387 87.4357 417.518 85.8796C417.65 84.3234 419.017 83.168 420.573 83.299ZM404.996 82.9313C406.293 83.0408 407.255 84.1808 407.146 85.4774C407.037 86.7742 405.897 87.7377 404.6 87.6285C403.303 87.5192 402.341 86.3784 402.45 85.0815C402.56 83.7848 403.699 82.822 404.996 82.9313ZM429.338 85.9305C430.116 85.9961 430.694 86.6794 430.628 87.4574C430.563 88.2355 429.879 88.8132 429.101 88.7476C428.323 88.6819 427.745 87.9978 427.81 87.2197C427.876 86.4419 428.56 85.865 429.338 85.9305ZM412.431 84.505C413.209 84.5707 413.787 85.254 413.722 86.0318C413.656 86.8099 412.972 87.3876 412.194 87.3221C411.416 87.2565 410.838 86.5724 410.903 85.7942C410.969 85.0163 411.653 84.4394 412.431 84.505Z" fill="#FFB200"/>
<path d="M1798.28 0.116199L1824.91 115.072C1827.36 125.629 1820.71 136.188 1810.06 138.656C1799.41 141.124 1788.79 134.566 1786.35 124.009C1788.79 134.566 1782.14 145.126 1771.49 147.594C1760.84 150.062 1750.22 143.504 1747.78 132.947C1750.22 143.504 1743.57 154.063 1732.92 156.532C1722.27 159 1711.66 152.442 1709.21 141.885L1682.57 26.9294L1798.28 0.116199ZM1726.17 147.131C1724.75 147.46 1723.85 148.823 1724.16 150.176C1724.47 151.528 1725.88 152.358 1727.3 152.029C1728.72 151.7 1729.62 150.336 1729.3 148.984C1728.99 147.632 1727.59 146.802 1726.17 147.131ZM1734.74 145.145C1733.32 145.474 1732.42 146.837 1732.73 148.19C1733.05 149.542 1734.45 150.371 1735.87 150.042C1737.29 149.713 1738.19 148.35 1737.88 146.998C1737.56 145.645 1736.16 144.816 1734.74 145.145ZM1764.73 138.193C1763.31 138.522 1762.42 139.886 1762.73 141.238C1763.04 142.59 1764.45 143.42 1765.87 143.091C1767.29 142.762 1768.19 141.399 1767.87 140.046C1767.56 138.694 1766.15 137.864 1764.73 138.193ZM1773.3 136.207C1771.88 136.536 1770.99 137.899 1771.3 139.252C1771.61 140.604 1773.02 141.434 1774.44 141.105C1775.86 140.776 1776.76 139.412 1776.44 138.06C1776.13 136.708 1774.72 135.878 1773.3 136.207ZM1803.3 129.256C1801.88 129.585 1800.99 130.948 1801.3 132.3C1801.61 133.652 1803.02 134.482 1804.44 134.153C1805.86 133.824 1806.75 132.461 1806.44 131.109C1806.13 129.756 1804.72 128.927 1803.3 129.256ZM1811.87 127.269C1810.45 127.599 1809.56 128.962 1809.87 130.314C1810.18 131.666 1811.59 132.496 1813.01 132.167C1814.43 131.838 1815.32 130.475 1815.01 129.122C1814.7 127.77 1813.29 126.94 1811.87 127.269ZM1717.8 142.19C1716.38 142.519 1715.48 143.882 1715.79 145.235C1716.11 146.587 1717.51 147.416 1718.93 147.087C1720.35 146.758 1721.25 145.395 1720.93 144.043C1720.62 142.69 1719.22 141.861 1717.8 142.19ZM1740.08 137.026C1738.66 137.355 1737.76 138.718 1738.08 140.07C1738.39 141.422 1739.79 142.252 1741.21 141.924C1742.63 141.594 1743.53 140.231 1743.22 138.879C1742.9 137.526 1741.5 136.697 1740.08 137.026ZM1756.36 133.252C1754.94 133.581 1754.05 134.944 1754.36 136.297C1754.67 137.649 1756.08 138.479 1757.5 138.15C1758.92 137.82 1759.82 136.457 1759.5 135.105C1759.19 133.753 1757.78 132.923 1756.36 133.252ZM1778.65 128.088C1777.23 128.417 1776.33 129.78 1776.64 131.133C1776.96 132.485 1778.36 133.315 1779.78 132.986C1781.2 132.657 1782.1 131.293 1781.79 129.941C1781.47 128.589 1780.07 127.759 1778.65 128.088ZM1794.93 124.314C1793.51 124.644 1792.61 126.007 1792.93 127.359C1793.24 128.711 1794.65 129.541 1796.07 129.212C1797.49 128.883 1798.38 127.52 1798.07 126.167C1797.76 124.815 1796.35 123.985 1794.93 124.314ZM1817.22 119.15C1815.8 119.479 1814.9 120.843 1815.21 122.195C1815.53 123.547 1816.93 124.377 1818.35 124.048C1819.77 123.719 1820.67 122.356 1820.35 121.003C1820.04 119.651 1818.64 118.821 1817.22 119.15ZM1728.18 136.342C1726.29 136.781 1725.09 138.598 1725.51 140.401C1725.93 142.205 1727.8 143.311 1729.69 142.872C1731.59 142.433 1732.78 140.616 1732.37 138.813C1731.95 137.01 1730.07 135.903 1728.18 136.342ZM1766.75 127.404C1764.86 127.843 1763.66 129.661 1764.08 131.464C1764.5 133.267 1766.37 134.373 1768.26 133.934C1770.16 133.496 1771.35 131.678 1770.93 129.875C1770.52 128.072 1768.64 126.965 1766.75 127.404ZM1805.32 118.466C1803.42 118.905 1802.23 120.723 1802.65 122.526C1803.06 124.329 1804.94 125.435 1806.83 124.996C1808.72 124.558 1809.92 122.74 1809.5 120.937C1809.08 119.134 1807.21 118.028 1805.32 118.466ZM1737.5 123.262C1736.23 117.796 1725.74 123.587 1720.65 127.166C1726.8 128.142 1738.76 128.728 1737.5 123.262ZM1747.97 119.176C1746.71 119.47 1745.92 120.736 1746.21 122.004C1746.5 123.272 1747.77 124.061 1749.04 123.768C1750.31 123.474 1751.1 122.208 1750.8 120.94C1750.51 119.672 1749.24 118.883 1747.97 119.176ZM1763.83 114.534C1762.31 114.887 1761.36 116.406 1761.71 117.928C1762.07 119.449 1763.59 120.396 1765.11 120.044C1766.63 119.691 1767.58 118.172 1767.22 116.651C1766.87 115.13 1765.35 114.182 1763.83 114.534ZM1779.2 111.941C1777.93 112.235 1777.14 113.501 1777.43 114.769C1777.73 116.037 1778.99 116.826 1780.26 116.532C1781.53 116.239 1782.32 114.973 1782.02 113.705C1781.73 112.437 1780.46 111.647 1779.2 111.941ZM1807.96 106.947C1801.8 105.986 1789.78 105.425 1791.04 110.868C1792.3 116.31 1802.85 110.521 1807.96 106.947ZM1755.53 118.392C1754.77 118.568 1754.3 119.328 1754.47 120.089C1754.65 120.85 1755.41 121.323 1756.17 121.147C1756.93 120.971 1757.41 120.211 1757.23 119.45C1757.05 118.69 1756.29 118.216 1755.53 118.392ZM1772.06 114.562C1771.3 114.738 1770.83 115.498 1771 116.258C1771.18 117.019 1771.94 117.493 1772.7 117.317C1773.46 117.141 1773.94 116.381 1773.76 115.62C1773.58 114.859 1772.82 114.385 1772.06 114.562ZM1731.06 106.635C1724.96 102.812 1720.57 117.857 1719.13 125.858C1725.65 121.043 1737.16 110.457 1731.06 106.635ZM1809.02 104.942C1804.2 98.4238 1793.62 86.9126 1789.8 93.0117C1785.97 99.1107 1801.02 103.506 1809.02 104.942ZM1806.42 86.5742C1800.96 87.8411 1806.75 98.3333 1810.33 103.421C1811.3 97.2777 1811.89 85.3082 1806.42 86.5742ZM1713.21 107.881C1707.76 109.143 1713.55 119.688 1717.13 124.802C1718.09 118.637 1718.65 106.621 1713.21 107.881ZM1755.11 76.8845C1754.04 84.8733 1753.56 100.465 1760.21 98.9235C1766.87 97.3815 1759.58 83.5886 1755.11 76.8845ZM1749.74 76.6774C1744.08 81.0019 1734.03 90.4488 1739.15 93.6432C1744.28 96.8374 1748.34 83.6638 1749.74 76.6774ZM1759.84 74.3365C1764.16 79.9979 1773.61 90.0394 1776.8 84.9183C1780 79.7972 1766.82 75.7302 1759.84 74.3365ZM1710.43 94.9776C1709.17 95.2715 1708.38 96.5374 1708.67 97.8052C1708.96 99.0728 1710.23 99.8624 1711.5 99.5688C1712.77 99.275 1713.56 98.009 1713.26 96.7412C1712.97 95.4733 1711.7 94.6838 1710.43 94.9776ZM1804.1 73.2716C1802.83 73.5655 1802.04 74.8314 1802.34 76.0992C1802.63 77.3669 1803.9 78.1565 1805.16 77.8628C1806.43 77.569 1807.22 76.303 1806.93 75.0352C1806.63 73.7673 1805.37 72.9778 1804.1 73.2716ZM1708.94 88.5493C1708.18 88.7257 1707.71 89.4854 1707.89 90.2461C1708.06 91.0065 1708.82 91.4805 1709.58 91.3044C1710.34 91.1281 1710.82 90.3683 1710.64 89.6076C1710.47 88.8469 1709.71 88.373 1708.94 88.5493ZM1802.61 66.8433C1801.85 67.0197 1801.38 67.7794 1801.55 68.5401C1801.73 69.3006 1802.49 69.7746 1803.25 69.5984C1804.01 69.4222 1804.48 68.6623 1804.31 67.9016C1804.13 67.1409 1803.37 66.667 1802.61 66.8433ZM1752.55 65.8641C1750.02 66.4517 1748.44 68.9846 1749.02 71.5204C1749.61 74.0561 1752.15 75.6351 1754.68 75.0475C1757.22 74.4597 1758.8 71.9279 1758.21 69.3923C1757.62 66.8566 1755.09 65.2767 1752.55 65.8641ZM1747.19 71.9459C1739.2 70.8765 1723.61 70.4007 1725.15 77.0532C1726.69 83.7052 1740.48 76.4202 1747.19 71.9459ZM1782.08 63.8595C1780.54 57.207 1766.75 64.4925 1760.04 68.9668C1768.03 70.0362 1783.62 70.5118 1782.08 63.8595ZM1706.15 78.5541C1704.62 78.9067 1703.68 80.4262 1704.03 81.9477C1704.38 83.469 1705.9 84.4169 1707.42 84.0643C1708.94 83.7116 1709.89 82.1923 1709.54 80.671C1709.19 79.1496 1707.67 78.2017 1706.15 78.5541ZM1799.81 56.8481C1798.29 57.2007 1797.34 58.7202 1797.7 60.2417C1798.05 61.763 1799.57 62.7109 1801.09 62.3584C1802.61 62.0056 1803.56 60.4863 1803.2 58.965C1802.85 57.4437 1801.33 56.4958 1799.81 56.8481ZM1747.4 66.576C1743.07 60.9147 1733.62 50.8723 1730.43 55.9934C1727.23 61.1147 1740.41 65.1824 1747.4 66.576ZM1768.08 47.2686C1762.96 44.0748 1758.89 57.2488 1757.5 64.2351C1763.16 59.9105 1773.2 50.4628 1768.08 47.2686ZM1705.11 72.0196C1704.35 72.196 1703.88 72.9557 1704.06 73.7164C1704.23 74.477 1704.99 74.9508 1705.75 74.7747C1706.51 74.5984 1706.99 73.8386 1706.81 73.0779C1706.63 72.3172 1705.88 71.8433 1705.11 72.0196ZM1747.02 41.9889C1740.37 43.5306 1747.65 57.3239 1752.13 64.028C1753.2 56.0394 1753.67 40.448 1747.02 41.9889ZM1798.78 50.3136C1798.02 50.49 1797.55 51.2497 1797.72 52.0104C1797.9 52.7711 1798.66 53.2449 1799.42 53.0687C1800.18 52.8924 1800.65 52.1327 1800.48 51.3719C1800.3 50.6112 1799.54 50.1373 1798.78 50.3136ZM1703.2 63.7552C1701.93 64.0491 1701.14 65.315 1701.44 66.5828C1701.73 67.8506 1703 68.64 1704.26 68.3464C1705.53 68.0526 1706.32 66.7867 1706.03 65.5188C1705.73 64.2509 1704.47 63.4614 1703.2 63.7552ZM1796.87 42.0492C1795.6 42.3431 1794.81 43.609 1795.1 44.8768C1795.4 46.1446 1796.66 46.9341 1797.93 46.6404C1799.2 46.3466 1799.99 45.0807 1799.69 43.8128C1799.4 42.545 1798.13 41.7554 1796.87 42.0492ZM1696.94 37.7003C1695.98 43.8661 1695.42 55.8813 1700.86 54.6201C1706.3 53.3586 1700.52 42.815 1696.94 37.7003ZM1790.11 16.1103C1789.15 22.276 1788.59 34.2913 1794.03 33.03C1799.47 31.7683 1793.68 21.225 1790.11 16.1103ZM1698.28 35.8711C1703.09 42.4246 1713.65 54.0016 1717.45 47.8857C1721.24 41.7699 1706.25 37.3279 1698.28 35.8711ZM1788.1 15.0551C1781.58 19.8697 1770.07 30.4541 1776.17 34.2772C1782.27 38.1 1786.67 23.0556 1788.1 15.0551ZM1715.91 30.1229C1714.65 24.6563 1704.16 30.4476 1699.07 34.0266C1705.21 35.0031 1717.18 35.5893 1715.91 30.1229ZM1786.58 13.7466C1780.44 12.7701 1768.47 12.1839 1769.74 17.6506C1771 23.1169 1781.49 17.3256 1786.58 13.7466ZM1726.27 25.5101C1725 25.8039 1724.21 27.0699 1724.5 28.3377C1724.8 29.6056 1726.06 30.3961 1727.33 30.1023C1728.6 29.8083 1729.39 28.5415 1729.1 27.2737C1728.8 26.0062 1727.54 25.2165 1726.27 25.5101ZM1742.13 20.868C1740.6 21.2206 1739.66 22.7401 1740.01 24.2616C1740.36 25.7829 1741.88 26.7308 1743.4 26.3782C1744.92 26.0255 1745.87 24.5062 1745.52 22.9849C1745.17 21.4635 1743.65 20.5156 1742.13 20.868ZM1757.49 18.2749C1756.22 18.5689 1755.43 19.8349 1755.73 21.1025C1756.02 22.3703 1757.29 23.1607 1758.55 22.8671C1759.82 22.5733 1760.61 21.3065 1760.32 20.0386C1760.02 18.7709 1758.76 17.9811 1757.49 18.2749ZM1733.83 24.7267C1733.07 24.903 1732.59 25.6619 1732.77 26.4225C1732.95 27.1833 1733.7 27.6572 1734.47 27.4809C1735.23 27.3045 1735.7 26.5447 1735.52 25.7841C1735.35 25.0237 1734.59 24.5506 1733.83 24.7267ZM1750.36 20.8964C1749.6 21.0727 1749.12 21.8317 1749.3 22.5922C1749.47 23.3528 1750.23 23.8266 1750.99 23.6505C1751.76 23.4742 1752.23 22.7145 1752.05 21.9537C1751.88 21.1932 1751.12 20.7201 1750.36 20.8964Z" fill="#FFB200"/>
<path d="M-69.9307 -1.23659e-05L-96.5703 114.956C-99.0167 125.512 -92.3665 136.072 -81.7161 138.54C-71.0658 141.008 -60.4489 134.45 -58.0025 123.893C-60.4489 134.45 -53.7978 145.01 -43.1474 147.478C-32.4971 149.946 -21.8801 143.388 -19.4337 132.831C-21.8801 143.388 -15.2298 153.947 -4.57961 156.415C6.07076 158.883 16.6886 152.326 19.135 141.769L45.7745 26.8132L-69.9307 -1.23659e-05ZM2.17899 147.015C3.59898 147.344 4.49642 148.707 4.18302 150.06C3.86941 151.412 2.46389 152.241 1.04404 151.912C-0.375835 151.583 -1.27309 150.22 -0.959988 148.868C-0.646581 147.515 0.758953 146.686 2.17899 147.015ZM-6.39174 145.029C-4.97176 145.358 -4.07431 146.721 -4.38771 148.073C-4.70132 149.426 -6.10684 150.255 -7.52668 149.926C-8.94656 149.597 -9.84382 148.234 -9.53071 146.882C-9.21731 145.529 -7.81177 144.7 -6.39174 145.029ZM-36.3898 138.077C-34.9697 138.406 -34.0723 139.769 -34.3857 141.122C-34.6993 142.474 -36.1048 143.304 -37.5247 142.975C-38.9444 142.645 -39.8409 141.282 -39.5278 139.93C-39.2144 138.578 -37.8097 137.748 -36.3898 138.077ZM-44.9605 136.091C-43.5404 136.42 -42.643 137.783 -42.9565 139.136C-43.2701 140.488 -44.6756 141.317 -46.0954 140.988C-47.5152 140.659 -48.4116 139.296 -48.0985 137.944C-47.7851 136.592 -46.3804 135.762 -44.9605 136.091ZM-74.9575 129.139C-73.5377 129.469 -72.6411 130.832 -72.9545 132.184C-73.2681 133.536 -74.6727 134.366 -76.0925 134.037C-77.5124 133.708 -78.4096 132.345 -78.0965 130.992C-77.7831 129.64 -76.3776 128.81 -74.9575 129.139ZM-83.5283 127.153C-82.1085 127.483 -81.2118 128.845 -81.5252 130.198C-81.8388 131.55 -83.2435 132.38 -84.6632 132.051C-86.0831 131.722 -86.9804 130.358 -86.6673 129.006C-86.3538 127.654 -84.9483 126.824 -83.5283 127.153ZM10.5486 142.074C11.9687 142.403 12.8661 143.766 12.5527 145.118C12.2391 146.471 10.8336 147.3 9.4137 146.971C7.9939 146.642 7.09657 145.279 7.40967 143.927C7.72306 142.574 9.12866 141.745 10.5486 142.074ZM-11.7349 136.91C-10.315 137.239 -9.4184 138.602 -9.73179 139.954C-10.0454 141.306 -11.45 142.136 -12.8698 141.807C-14.2897 141.478 -15.187 140.115 -14.8738 138.763C-14.5604 137.41 -13.1549 136.581 -11.7349 136.91ZM-28.0201 133.136C-26.6001 133.465 -25.7027 134.828 -26.0161 136.181C-26.3297 137.533 -27.7352 138.362 -29.155 138.033C-30.5747 137.704 -31.4712 136.341 -31.1581 134.989C-30.8448 133.637 -29.44 132.807 -28.0201 133.136ZM-50.3036 127.972C-48.8836 128.301 -47.9862 129.664 -48.2996 131.017C-48.6132 132.369 -50.0187 133.199 -51.4386 132.869C-52.8584 132.54 -53.7557 131.177 -53.4426 129.825C-53.1292 128.472 -51.7236 127.643 -50.3036 127.972ZM-66.5879 124.198C-65.1679 124.527 -64.2705 125.891 -64.5839 127.243C-64.8975 128.595 -66.303 129.425 -67.7228 129.096C-69.1427 128.767 -70.04 127.403 -69.7269 126.051C-69.4135 124.699 -68.0079 123.869 -66.5879 124.198ZM-88.8724 119.034C-87.4523 119.363 -86.5549 120.726 -86.8683 122.079C-87.1819 123.431 -88.5874 124.261 -90.0073 123.932C-91.427 123.602 -92.3235 122.239 -92.0104 120.887C-91.697 119.535 -90.2923 118.705 -88.8724 119.034ZM0.163266 136.226C2.05649 136.664 3.25287 138.482 2.83531 140.285C2.41743 142.088 0.543383 143.194 -1.35 142.756C-3.24315 142.317 -4.43893 140.499 -4.02109 138.696C-3.60303 136.893 -1.72982 135.787 0.163266 136.226ZM-38.4045 127.288C-36.5114 127.727 -35.3159 129.544 -35.7334 131.347C-36.1513 133.151 -38.0245 134.257 -39.9178 133.818C-41.8112 133.379 -43.0077 131.562 -42.5898 129.758C-42.1717 127.956 -40.2977 126.849 -38.4045 127.288ZM-76.9733 118.35C-75.0801 118.789 -73.8837 120.607 -74.3012 122.41C-74.7191 124.213 -76.5932 125.319 -78.4865 124.88C-80.3799 124.441 -81.5755 122.624 -81.1576 120.821C-80.7395 119.018 -78.8665 117.912 -76.9733 118.35ZM-9.15375 123.146C-7.88694 117.679 2.60424 123.471 7.69183 127.05C1.5486 128.026 -10.42 128.612 -9.15375 123.146ZM-19.6298 119.06C-18.362 119.354 -17.5725 120.62 -17.8661 121.888C-18.1599 123.156 -19.4258 123.945 -20.6937 123.651C-21.9614 123.357 -22.7511 122.092 -22.4573 120.824C-22.1634 119.556 -20.8975 118.767 -19.6298 119.06ZM-35.4872 114.418C-33.9658 114.771 -33.018 116.29 -33.3706 117.812C-33.7233 119.333 -35.2426 120.28 -36.7639 119.927C-38.2851 119.575 -39.2322 118.056 -38.8799 116.535C-38.5273 115.014 -37.0086 114.066 -35.4872 114.418ZM-50.8512 111.825C-49.5836 112.119 -48.794 113.385 -49.0876 114.653C-49.3814 115.92 -50.6474 116.71 -51.9152 116.416C-53.1831 116.122 -53.9726 114.857 -53.6788 113.589C-53.3849 112.321 -52.119 111.531 -50.8512 111.825ZM-79.6187 106.831C-73.453 105.87 -61.4367 105.309 -62.698 110.752C-63.9596 116.194 -74.5041 110.405 -79.6187 106.831ZM-27.1888 118.276C-26.4282 118.452 -25.9544 119.212 -26.1305 119.973C-26.3068 120.733 -27.0666 121.207 -27.8273 121.031C-28.5879 120.855 -29.0619 120.095 -28.8856 119.334C-28.7092 118.574 -27.9494 118.1 -27.1888 118.276ZM-43.7176 114.445C-42.9571 114.622 -42.4832 115.382 -42.6593 116.142C-42.8356 116.903 -43.5954 117.377 -44.3561 117.201C-45.1168 117.024 -45.5907 116.265 -45.4144 115.504C-45.238 114.743 -44.4783 114.269 -43.7176 114.445ZM-2.71724 106.518C3.38187 102.696 7.7784 117.741 9.21398 125.741C2.69579 120.927 -8.81636 110.341 -2.71724 106.518ZM-80.6738 104.826C-75.8592 98.3076 -65.2739 86.7964 -61.451 92.8955C-57.6289 98.9945 -72.6736 103.39 -80.6738 104.826ZM-78.0784 86.458C-72.6117 87.7249 -78.4033 98.217 -81.9823 103.305C-82.9588 97.1615 -83.5445 85.192 -78.0784 86.458ZM15.139 107.765C20.5816 109.027 14.7926 119.571 11.2178 124.686C10.2571 118.52 9.6967 106.504 15.139 107.765ZM-26.7624 76.7683C-25.693 84.7571 -25.2172 100.349 -31.8696 98.8073C-38.5214 97.2653 -31.2366 83.4724 -26.7624 76.7683ZM-21.3924 76.5612C-15.7312 80.8857 -5.68865 90.3326 -10.8097 93.527C-15.9309 96.7212 -19.9988 83.5476 -21.3924 76.5612ZM-31.4939 74.2203C-35.8185 79.8817 -45.2652 89.9232 -48.4594 84.8021C-51.6536 79.6809 -38.4804 75.614 -31.4939 74.2203ZM17.9098 94.8614C19.1775 95.1553 19.9672 96.4212 19.6734 97.689C19.3795 98.9566 18.1135 99.7462 16.8458 99.4526C15.578 99.1588 14.7886 97.8928 15.0822 96.625C15.376 95.3571 16.6419 94.5676 17.9098 94.8614ZM-75.7565 73.1554C-74.4887 73.4493 -73.6991 74.7151 -73.9929 75.983C-74.2868 77.2506 -75.5527 78.0403 -76.8205 77.7466C-78.0883 77.4528 -78.8777 76.1868 -78.5841 74.919C-78.2903 73.6511 -77.0244 72.8616 -75.7565 73.1554ZM19.3995 88.4331C20.16 88.6095 20.634 89.3692 20.4578 90.1299C20.2814 90.8903 19.5215 91.3643 18.761 91.1882C18.0004 91.0119 17.5266 90.252 17.7027 89.4914C17.879 88.7307 18.6387 88.2568 19.3995 88.4331ZM-74.2668 66.7271C-73.5062 66.9035 -73.0322 67.6632 -73.2085 68.4239C-73.3849 69.1844 -74.1447 69.6584 -74.9053 69.4822C-75.6659 69.306 -76.1397 68.5461 -75.9636 67.7854C-75.7873 67.0247 -75.0276 66.5508 -74.2668 66.7271ZM-24.2085 65.7479C-21.6727 66.3355 -20.0929 68.8684 -20.6805 71.4042C-21.2683 73.9399 -23.8009 75.5189 -26.3367 74.9312C-28.8722 74.3435 -30.4514 71.8117 -29.8639 69.2761C-29.2763 66.7404 -26.7442 65.1604 -24.2085 65.7479ZM-18.8444 71.8297C-10.8557 70.7603 4.73621 70.2845 3.19458 76.937C1.65268 83.589 -12.1405 76.3039 -18.8444 71.8297ZM-53.7391 63.7433C-52.1974 57.0908 -38.4041 64.3763 -31.7 68.8506C-39.6887 69.92 -55.2802 70.3955 -53.7391 63.7433ZM22.1989 78.4379C23.7204 78.7905 24.6681 80.31 24.3155 81.8315C23.9628 83.3528 22.4434 84.3007 20.922 83.9481C19.4007 83.5954 18.4539 82.0761 18.8063 80.5548C19.1588 79.0334 20.6775 78.0855 22.1989 78.4379ZM-71.4674 56.7319C-69.9459 57.0845 -68.9981 58.604 -69.3507 60.1255C-69.7034 61.6468 -71.2229 62.5947 -72.7443 62.2421C-74.2655 61.8894 -75.2124 60.3701 -74.86 58.8488C-74.5075 57.3274 -72.9887 56.3796 -71.4674 56.7319ZM-19.0515 66.4597C-14.7271 60.7985 -5.27911 50.756 -2.08483 55.8772C1.10943 60.9985 -12.0652 65.0662 -19.0515 66.4597ZM-39.7346 47.1524C-34.6134 43.9586 -30.5465 57.1326 -29.153 64.1189C-34.8143 59.7943 -44.8558 50.3466 -39.7346 47.1524ZM23.23 71.9034C23.9905 72.0798 24.4646 72.8395 24.2883 73.6001C24.1121 74.3608 23.3522 74.8346 22.5915 74.6585C21.8308 74.4822 21.3569 73.7224 21.5332 72.9617C21.7096 72.201 22.4693 71.7271 23.23 71.9034ZM-18.6758 41.8727C-12.0233 43.4144 -19.3087 57.2077 -23.783 63.9117C-24.8525 55.9231 -25.3279 40.3317 -18.6758 41.8727ZM-70.4363 50.1974C-69.6757 50.3737 -69.2017 51.1335 -69.3779 51.8942C-69.5542 52.6548 -70.314 53.1287 -71.0747 52.9525C-71.8355 52.7762 -72.3093 52.0164 -72.1331 51.2557C-71.9567 50.495 -71.197 50.0211 -70.4363 50.1974ZM25.1452 63.639C26.4129 63.9329 27.2026 65.1988 26.9088 66.4666C26.615 67.7344 25.349 68.5238 24.0812 68.2302C22.8133 67.9364 22.0238 66.6705 22.3176 65.4026C22.6114 64.1347 23.8773 63.3451 25.1452 63.639ZM-68.5211 41.933C-67.2533 42.2269 -66.4637 43.4928 -66.7575 44.7606C-67.0513 46.0284 -68.3172 46.8179 -69.5851 46.5242C-70.853 46.2304 -71.6425 44.9645 -71.3487 43.6966C-71.0548 42.4287 -69.789 41.6392 -68.5211 41.933ZM31.4026 37.5841C32.3633 43.7499 32.9242 55.7651 27.4817 54.5038C22.0397 53.2424 27.8279 42.6988 31.4026 37.5841ZM-61.7633 15.994C-60.8026 22.1598 -60.2417 34.1751 -65.6842 32.9138C-71.1258 31.6521 -65.338 21.1088 -61.7633 15.994ZM30.0672 35.7549C25.2589 42.3084 14.693 53.8854 10.8971 47.7695C7.10172 41.6537 22.0958 37.2117 30.0672 35.7549ZM-59.7585 14.9389C-53.2404 19.7534 -41.7288 30.3379 -47.827 34.161C-53.9261 37.9838 -58.3228 22.9394 -59.7585 14.9389ZM12.4301 30.0067C13.6969 24.5401 24.1881 30.3313 29.2757 33.9104C23.1324 34.8869 11.1635 35.473 12.4301 30.0067ZM-58.2373 13.6304C-52.094 12.6539 -40.1239 12.0677 -41.3907 17.5344C-42.6577 23.0007 -53.1498 17.2094 -58.2373 13.6304ZM2.07623 25.3939C3.34399 25.6877 4.13341 26.9537 3.83986 28.2215C3.54604 29.4894 2.27995 30.2799 1.01205 29.9861C-0.25568 29.6921 -1.04516 28.4253 -0.751365 27.1575C-0.457388 25.89 0.808561 25.1003 2.07623 25.3939ZM-13.7813 20.7518C-12.2598 21.1044 -11.312 22.6239 -11.6646 24.1454C-12.0173 25.6667 -13.5368 26.6146 -15.0582 26.262C-16.5794 25.9093 -17.5263 24.3899 -17.1739 22.8686C-16.8213 21.3473 -15.3026 20.3994 -13.7813 20.7518ZM-29.1452 18.1587C-27.8776 18.4526 -27.0881 19.7186 -27.3816 20.9863C-27.6754 22.2541 -28.9416 23.0445 -30.2094 22.7509C-31.4773 22.4571 -32.2666 21.1903 -31.9728 19.9224C-31.6788 18.6547 -30.413 17.8649 -29.1452 18.1587ZM-5.48308 24.6105C-4.72248 24.7867 -4.24851 25.5457 -4.42453 26.3063C-4.60083 27.0671 -5.36058 27.5409 -6.12132 27.3647C-6.8819 27.1882 -7.35592 26.4285 -7.17965 25.6679C-7.0032 24.9075 -6.24359 24.4344 -5.48308 24.6105ZM-22.0119 20.7802C-21.2514 20.9565 -20.7773 21.7155 -20.9533 22.476C-21.1296 23.2366 -21.8895 23.7104 -22.6501 23.5343C-23.4108 23.358 -23.8847 22.5983 -23.7084 21.8375C-23.532 21.077 -22.7725 20.6039 -22.0119 20.7802Z" fill="#FFB200"/>
<path d="M0 14C0 14 293.512 91 864 91C1424.15 91 1728 14 1728 14" stroke="#B66235" stroke-width="6"/>
</svg>
