<svg width="81" height="81" viewBox="0 0 81 81" fill="none" xmlns="http://www.w3.org/2000/svg">
<circle cx="40.375" cy="40.375" r="40.375" fill="white"/>
<path d="M60.9031 29.5022C60.6717 28.5778 60.2005 27.7308 59.537 27.0468C58.8735 26.3628 58.0413 25.8661 57.1244 25.6066C53.7742 24.7886 40.3735 24.7886 40.3735 24.7886C40.3735 24.7886 26.9727 24.7886 23.6226 25.6846C22.7056 25.944 21.8734 26.4408 21.2099 27.1248C20.5465 27.8087 20.0752 28.6557 19.8439 29.5801C19.2307 32.9801 18.9308 36.4291 18.9479 39.8839C18.926 43.3646 19.226 46.84 19.8439 50.2655C20.0989 51.1612 20.5807 51.976 21.2427 52.6311C21.9046 53.2862 22.7243 53.7595 23.6226 54.0053C26.9727 54.9012 40.3735 54.9012 40.3735 54.9012C40.3735 54.9012 53.7742 54.9012 57.1244 54.0053C58.0413 53.7459 58.8735 53.2491 59.537 52.5651C60.2005 51.8811 60.6717 51.0341 60.9031 50.1097C61.5115 46.7354 61.8114 43.3126 61.799 39.8839C61.8209 36.4031 61.521 32.9278 60.9031 29.5022Z" stroke="#015536" stroke-width="2.12485" stroke-linecap="round" stroke-linejoin="round"/>
<path d="M35.991 46.2531L47.1907 39.8839L35.991 33.5146V46.2531Z" stroke="#015536" stroke-width="2.12485" stroke-linecap="round" stroke-linejoin="round"/>
<path d="M36.126 45.6837L37.1884 33.9976L42.5002 38.2471L46.7498 40.3718L36.126 45.6837Z" fill="#015536"/>
</svg>
