<svg width="665" height="136" viewBox="0 0 665 136" fill="none" xmlns="http://www.w3.org/2000/svg">
<path d="M487.776 104.46L517.412 76.602L487.776 48.7441" stroke="#015536" stroke-width="8.538"/>
<path d="M596.442 48.7432L566.806 76.6011L596.442 104.459" stroke="#015536" stroke-width="8.538"/>
<path d="M611.966 104.459L641.602 76.601L611.966 48.7432" stroke="#015536" stroke-width="8.538"/>
<path d="M628.902 104.459L658.538 76.601L628.902 48.7432" stroke="#015536" stroke-width="8.538"/>
<path d="M561.161 104.459L542.815 85.8871L524.469 104.459" stroke="#015536" stroke-width="8.538"/>
<path d="M524.469 48.7432L542.815 67.3151L561.161 48.7432" stroke="#015536" stroke-width="8.538"/>
<path d="M504.711 104.459L534.347 76.601L504.711 48.7432" stroke="#015536" stroke-width="8.538"/>
<path d="M579.508 48.7432L549.872 76.6011L579.508 104.459" stroke="#015536" stroke-width="8.538"/>
<rect width="15.2292" height="15.2292" transform="matrix(0.728628 -0.68491 0.728628 0.68491 592.208 77.7466)" fill="#015536"/>
<path d="M176.992 49.816L147.356 77.6739L176.992 105.532" stroke="#015536" stroke-width="8.538" stroke-linecap="square"/>
<path d="M68.3273 105.533L97.9633 77.6748L68.3273 49.8169" stroke="#015536" stroke-width="8.538" stroke-linecap="square"/>
<path d="M52.8013 49.8179L23.1653 77.6758L52.8013 105.534" stroke="#015536" stroke-width="8.538" stroke-linecap="square"/>
<path d="M35.8689 49.8179L6.23293 77.6758L35.8689 105.534" stroke="#015536" stroke-width="8.538" stroke-linecap="square"/>
<path d="M103.609 49.8169L121.955 68.3888L140.301 49.8169" stroke="#015536" stroke-width="8.538" stroke-linecap="square"/>
<path d="M140.3 105.534L121.954 86.9618L103.608 105.534" stroke="#015536" stroke-width="8.538" stroke-linecap="square"/>
<path d="M160.057 49.8179L130.421 77.6758L160.057 105.534" stroke="#015536" stroke-width="8.538" stroke-linecap="square"/>
<path d="M85.2602 105.533L114.896 77.6748L85.2602 49.8169" stroke="#015536" stroke-width="8.538" stroke-linecap="square"/>
<rect width="15.2292" height="15.2292" transform="matrix(-0.728627 0.684911 -0.728627 -0.684911 72.5614 76.5278)" fill="#015536"/>
<path d="M316.722 90.3622C318.02 90.9892 318.487 91.4951 319.468 92.6443C319.896 94.3528 319.782 95.3024 318.888 96.8287C318.071 97.9352 317.201 98.9389 316.264 99.9469C315.776 100.478 315.776 100.478 315.279 101.02C313.635 102.651 312.351 103.827 309.971 103.969C308.475 103.815 307.935 103.539 306.624 102.685C305.738 101.317 305.292 100.34 305.396 98.69C306.071 96.6623 307.656 95.1723 309.198 93.7237C309.419 93.5157 309.64 93.3085 309.856 93.1007C310.139 92.8042 310.423 92.5077 310.714 92.2022C312.68 90.2785 313.986 89.886 316.722 90.3622Z" fill="#015536"/>
<path d="M356.994 60.2416C358.293 60.8686 358.759 61.3745 359.74 62.5237C360.168 64.2322 360.054 65.1817 359.161 66.7081C358.343 67.8146 357.473 68.8182 356.536 69.8263C356.049 70.3576 356.049 70.3576 355.551 70.8996C353.907 72.5301 352.623 73.7065 350.243 73.8485C348.748 73.6944 348.207 73.4185 346.896 72.5648C346.01 71.1961 345.565 70.219 345.668 68.5694C346.344 66.5417 347.929 65.0517 349.47 63.6031C349.47 63.6029 349.471 63.6026 349.471 63.6024C349.692 63.3946 349.912 63.1876 350.129 62.9801C350.412 62.6836 350.695 62.387 350.987 62.0815C352.952 60.1578 354.259 59.7653 356.994 60.2416Z" fill="#015536"/>
<path d="M379.418 77.5842C382.183 79.2517 385.725 81.949 387.198 84.8868C387.406 86.953 387.515 88.4035 386.283 90.1356C384.741 91.4173 384.07 91.6415 382.126 91.4852C380.725 91.1522 379.968 90.4556 378.96 89.4509C378.592 89.1026 378.224 88.7543 377.845 88.3955C377.457 87.9907 377.07 87.5859 376.672 87.1689C376.423 86.9341 376.174 86.6994 375.917 86.4575C374.483 85.0034 373.728 83.9381 373.611 81.863C373.728 80.3061 373.955 79.8221 374.87 78.4685C376.631 77.31 377.339 77.1696 379.418 77.5842Z" fill="#015536"/>
<path d="M327.247 65.2611C328.904 66.456 329.454 67.0959 329.821 69.1115C329.453 71.2038 328.831 72.0643 327.247 73.4753C325.674 74.0172 325.674 74.0172 324.044 73.9317C322.66 73.141 321.564 72.1805 320.841 70.7373L320.841 70.7368C320.759 70.0209 320.717 69.6441 320.712 69.2668C320.708 68.8478 320.751 68.4283 320.841 67.5429C322.92 65.0328 324.059 64.5067 327.247 65.2611Z" fill="#015536"/>
<path d="M356.535 92.6441C357.814 93.2107 358.572 93.7059 359.453 94.7832C359.967 96.6798 359.744 98.6466 358.795 100.373C357.349 101.164 355.871 101.368 354.247 101.315C352.919 100.768 352.23 100.277 351.33 99.1755C350.887 97.5402 351.048 96.093 351.502 94.4695C352.848 92.403 354.166 92.354 356.535 92.6441Z" fill="#015536"/>
<path d="M270.957 71.1937C271.259 71.3443 271.561 71.4949 271.872 71.65C271.334 73.08 270.735 74.4823 270.099 75.8712C269.958 76.1842 269.818 76.4971 269.673 76.8195C269.529 77.0201 269.423 77.1679 269.328 77.283C269.059 77.6057 268.87 77.6706 268.15 77.9176C267.868 77.9576 267.586 77.9976 267.296 78.0388C267.973 75.4036 269.383 73.4148 270.934 71.2263C270.94 71.217 270.947 71.2078 270.953 71.1985C270.954 71.1969 270.956 71.1953 270.957 71.1937Z" fill="#015536"/>
<path fill-rule="evenodd" clip-rule="evenodd" d="M325.405 22.924C324.901 23.3746 324.678 23.5738 324.418 23.6609C324.212 23.7299 323.982 23.7286 323.57 23.7262L322.643 23.4178L321.711 23.1272L320.841 22.8188C316.113 21.2471 310.031 22.326 305.561 24.1861C300.836 26.563 297.098 30.4254 294.755 35.1409C294.435 36.3749 294.435 36.3749 294.297 37.4228L292.488 37.3426C287.734 37.1946 283.872 37.2447 279.653 39.7047L278.519 40.3536C272.975 43.7932 269.898 48.4461 268.083 54.6564C267.771 56.0571 267.659 57.3282 267.611 58.7584C267.457 61.1881 266.589 62.3517 265.019 64.16C256.763 73.9822 253.037 87.3855 252.938 99.9463L252.919 101.531C252.95 107.063 254.589 111.824 258.344 115.977C261.61 119.085 266.337 121.446 270.879 121.459L272.232 121.466L273.714 121.466L275.292 121.472C277.043 121.478 278.794 121.481 280.546 121.484C281.647 121.487 282.749 121.49 283.85 121.494L284.305 121.495C288.07 121.506 291.836 121.513 295.602 121.519C296.666 121.521 297.73 121.523 298.794 121.524C305.407 121.536 312.02 121.546 318.634 121.552L323.228 121.556L324.381 121.557C330.542 121.563 336.702 121.578 342.862 121.597C349.191 121.616 355.521 121.627 361.85 121.629C365.402 121.631 368.953 121.636 372.505 121.651C375.531 121.664 378.557 121.669 381.584 121.664C383.126 121.662 384.668 121.664 386.21 121.674C394.46 121.725 401.06 121.564 407.272 115.55C411.686 110.867 413.109 105.454 412.968 99.1601C412.59 90.9131 410.742 82.5202 407.01 75.1184C406.42 73.9329 406.42 73.9329 406.391 72.8205C406.871 71.6672 407.303 71.1287 408.136 70.2248C411.986 65.9793 413.049 60.4037 412.939 54.856C412.55 49.8099 409.995 44.6394 406.42 41.0738C400.447 36.204 394.912 34.2418 387.199 34.6846C386.616 34.8005 386.359 34.8513 386.107 34.9178C385.91 34.9698 385.715 35.0313 385.368 35.1409L385.082 34.2282C382.896 29.4711 378.703 25.7953 373.927 23.7315C368.945 21.9489 363.66 21.6274 358.596 23.2181C356.344 23.8598 356.344 23.8598 355.173 23.293C354.788 22.9473 354.593 22.7717 354.406 22.588C354.213 22.3985 354.028 22.2003 353.654 21.7977L353.653 21.7975L353.653 21.7973C352.325 20.424 350.676 19.6325 348.972 18.8149L348.964 18.8109L348.872 18.767L348.757 18.7114L347.868 18.2657C340.878 15.3462 330.509 17.3237 325.405 22.924ZM383.995 59.3286L385.151 60.3127C393.626 67.7088 399.488 77.1849 402.3 88.0803L402.715 89.6188C403.551 93.1405 403.824 96.5351 403.874 100.146L403.904 101.423C403.894 104.662 403.156 106.995 401.108 109.525C397.768 112.313 394.277 112.932 390.012 112.889L388.693 112.893C387.248 112.895 385.804 112.888 384.359 112.88H384.358H384.358H384.357H384.357H384.357H384.356H384.356H384.355H384.355H384.354H384.354H384.353H384.353H384.353H384.352H384.352H384.351H384.351H384.35H384.35H384.349H384.349H384.349C383.306 112.88 382.264 112.88 381.222 112.881C378.4 112.881 375.578 112.873 372.756 112.863C370.09 112.856 367.425 112.854 364.759 112.853L363.9 112.852C358.948 112.849 353.996 112.84 349.043 112.828C343.944 112.815 338.845 112.806 333.745 112.8L332.792 112.799L330.7 112.796L328.055 112.793C314.972 112.779 301.889 112.755 288.805 112.725L291.551 104.51C291.597 103.875 291.622 103.237 291.631 102.601C292.056 85.6533 298.262 71.8373 310.543 60.0417C330.918 41.4497 363.174 41.4647 383.995 59.3286ZM319.468 92.6443C318.487 91.4951 318.02 90.9892 316.722 90.3622C313.986 89.886 312.68 90.2785 310.714 92.2022L309.856 93.1007C309.64 93.3085 309.419 93.5157 309.198 93.7237C307.656 95.1723 306.071 96.6623 305.396 98.69C305.292 100.34 305.738 101.317 306.624 102.685C307.935 103.539 308.475 103.815 309.971 103.969C312.351 103.827 313.635 102.651 315.279 101.02L316.264 99.9469C317.201 98.9389 318.071 97.9352 318.888 96.8287C319.782 95.3024 319.896 94.3528 319.468 92.6443ZM359.74 62.5237C358.759 61.3745 358.293 60.8686 356.994 60.2416C354.259 59.7653 352.952 60.1578 350.987 62.0815L350.129 62.9801C349.912 63.1876 349.692 63.3946 349.471 63.6024L349.47 63.6031C347.929 65.0517 346.344 66.5417 345.668 68.5694C345.565 70.219 346.01 71.1961 346.896 72.5648C348.207 73.4185 348.748 73.6944 350.243 73.8485C352.623 73.7065 353.907 72.5301 355.551 70.8996L356.536 69.8263C357.473 68.8182 358.343 67.8146 359.161 66.7081C360.054 65.1817 360.168 64.2322 359.74 62.5237ZM387.198 84.8868C385.725 81.949 382.183 79.2517 379.418 77.5842C377.339 77.1696 376.631 77.31 374.87 78.4685C373.955 79.8221 373.728 80.3061 373.611 81.863C373.728 83.9381 374.483 85.0034 375.917 86.4575L376.672 87.1689L377.845 88.3955L378.96 89.4509C379.968 90.4556 380.725 91.1522 382.126 91.4852C384.07 91.6415 384.741 91.4173 386.283 90.1356C387.515 88.4035 387.406 86.953 387.198 84.8868ZM329.821 69.1115C329.454 67.0959 328.904 66.456 327.247 65.2611C324.059 64.5067 322.92 65.0328 320.841 67.5429C320.751 68.4283 320.708 68.8478 320.712 69.2668C320.717 69.6441 320.759 70.0209 320.841 70.7368L320.841 70.7373C321.564 72.1805 322.66 73.141 324.044 73.9317C325.674 74.0172 325.674 74.0172 327.247 73.4753C328.831 72.0643 329.453 71.2038 329.821 69.1115ZM359.453 94.7832C358.572 93.7059 357.814 93.2107 356.535 92.6441C354.166 92.354 352.848 92.403 351.502 94.4695C351.048 96.093 350.887 97.5402 351.33 99.1755C352.23 100.277 352.919 100.768 354.247 101.315C355.871 101.368 357.349 101.164 358.795 100.373C359.744 98.6466 359.967 96.6798 359.453 94.7832ZM399.667 47.0629C395.788 44.0155 392.553 43.5398 387.655 43.8116C387.504 44.5725 387.352 45.3329 387.198 46.0932C386.817 47.6573 386.541 49.0471 386.74 50.6565C387.334 51.3677 387.334 51.3677 388.199 51.9684C389.751 52.933 391.08 53.9581 392.392 55.2355L393.089 55.9327C395.057 57.8933 396.803 59.9553 398.466 62.1787C399.115 63.0756 399.769 63.9417 400.468 64.8025H401.383L401.841 63.8899C403.236 61.498 403.831 59.3969 403.928 56.6172C403.795 52.6239 402.579 49.8102 399.667 47.0629ZM372.838 33.1438C375.391 34.9423 377.744 37.5216 378.5 40.6161C378.566 41.989 378.554 43.35 378.5 44.723C377.074 44.4224 375.911 43.9189 374.611 43.2685C371.678 41.9016 368.629 41.0312 365.524 40.1452L364.354 39.8104L363.297 39.5141C362.837 39.363 362.638 39.2974 362.468 39.1863C362.338 39.101 362.226 38.9889 362.027 38.7908C361.844 37.5639 361.683 36.3433 361.541 35.1117L361.415 34.0627C361.312 33.2052 361.212 32.3475 361.112 31.4896C365.186 30.3459 369.258 30.9472 372.838 33.1438ZM353.329 37.4213C352.525 33.2181 351.236 30.6625 347.667 28.1237C343.898 25.8108 338.943 24.9575 334.861 27.0132L333.767 27.6389C333.118 28.0076 332.469 28.3777 331.822 28.7512C331.822 29.5388 331.822 29.8733 331.933 30.166C332.015 30.3821 332.157 30.5755 332.403 30.9116C333.241 32.0049 333.844 33.146 334.455 34.3768L334.883 35.2538C335.171 35.836 335.458 36.4183 335.746 37.0007L336.398 38.334C339.632 38.0007 342.855 37.7946 346.103 37.6754L347.695 37.621C349.236 37.5653 350.776 37.5096 352.317 37.456L353.329 37.4213ZM323.129 33.4456C325.238 35.0765 326.784 37.197 327.703 39.7047L327.246 41.0739C326.332 41.3777 325.416 41.6764 324.494 41.9563C319.983 43.5617 315.709 46.0183 311.748 48.6736C311.313 48.9472 311.072 49.099 310.817 49.2235C310.499 49.3789 310.16 49.4916 309.398 49.745L308.942 48.875C307.662 46.5791 306.465 44.914 304.392 43.2702C303.358 42.3974 302.908 42.0178 302.666 41.5343C302.479 41.1623 302.416 40.7287 302.304 39.9614C304.029 35.8766 306.769 33.3615 310.77 31.49C315.083 30.1075 319.397 31.0591 323.129 33.4456ZM302.705 54.7645C301.436 52.0041 299.821 49.9679 297.328 48.2041C291.329 44.5229 283.707 45.4698 279.324 51.1794L278.736 52.0262C278.132 52.8432 277.654 53.6141 277.222 54.5345C276.396 57.5181 276.291 61.3931 277.42 64.3198L278.278 65.7175C279.086 67.0628 279.933 68.2364 281.024 69.3685C283.893 71.6514 286.522 72.5476 290.177 72.5631C292.856 67.5966 296.039 62.6097 300.056 58.6044C300.244 58.4324 300.425 58.2724 300.598 58.1197C301.719 57.1279 302.495 56.4421 302.705 54.7645ZM278.28 78.0402L279.5 78.5233L281.111 79.1525L282.703 79.7782C283.986 80.2356 285.176 80.5592 286.516 80.7782L286.134 82.2327C285.518 84.6897 285.028 87.1719 284.539 89.656C284.493 89.891 284.446 90.126 284.4 90.361L284.082 91.9599C283.825 93.252 283.568 94.5444 283.313 95.8368C280.01 93.5666 278.124 91.5313 276.907 87.623C276.475 84.0709 276.468 81.1907 278.28 78.0402ZM269.328 77.283C267.705 81.4474 267.708 85.821 268.956 90.2189C271.205 96.7663 275.117 101.341 281.284 104.452L282.399 104.966C281.787 107.469 280.726 109.27 278.738 110.898C275.921 112.361 273.199 113.091 270.043 112.724C266.805 111.704 264.313 109.936 262.642 106.985C261.591 104.78 261.508 102.757 261.548 100.345L261.561 99.0289C261.807 90.384 264.529 77.6099 270.953 71.1985L270.934 71.2263C269.383 73.4148 267.973 75.4036 267.296 78.0388L268.15 77.9176C268.87 77.6706 269.059 77.6057 269.328 77.283Z" fill="#015536"/>
</svg>
