<svg width="81" height="81" viewBox="0 0 81 81" fill="none" xmlns="http://www.w3.org/2000/svg">
<circle cx="40.375" cy="40.375" r="40.375" fill="white"/>
<path d="M49.1367 31.6059H49.1527M32.4047 24.4351H48.34C52.7404 24.4351 56.3076 28.0023 56.3076 32.4027V48.338C56.3076 52.7384 52.7404 56.3057 48.34 56.3057H32.4047C28.0043 56.3057 24.437 52.7384 24.437 48.338V32.4027C24.437 28.0023 28.0043 24.4351 32.4047 24.4351ZM46.7464 39.3664C46.9431 40.6927 46.7166 42.0471 46.0991 43.2372C45.4816 44.4272 44.5046 45.3922 43.307 45.995C42.1094 46.5978 40.7523 46.8076 39.4286 46.5946C38.1049 46.3816 36.8821 45.7566 35.9341 44.8086C34.9861 43.8606 34.3611 42.6378 34.1481 41.3141C33.9351 39.9904 34.1449 38.6332 34.7477 37.4357C35.3504 36.2381 36.3155 35.2611 37.5055 34.6436C38.6956 34.0261 40.05 33.7996 41.3762 33.9962C42.729 34.1968 43.9814 34.8272 44.9485 35.7942C45.9155 36.7613 46.5458 38.0137 46.7464 39.3664Z" stroke="#015536" stroke-width="2.12471" stroke-linecap="round" stroke-linejoin="round"/>
</svg>
