<svg width="440" height="32" viewBox="0 0 440 32" fill="none" xmlns="http://www.w3.org/2000/svg">
<rect x="0.000732422" y="0.0314941" width="220.18" height="31.7209" fill="#F52F1B"/>
<path d="M0 24.2878H21.9247V15.8911H6.06429V7.49438L48.9808 7.49438V15.8911H33.1203V24.2878H55.0451" stroke="white" stroke-width="4.66484" stroke-linejoin="round"/>
<path d="M55.0454 24.2878H76.9701V15.8911H61.1097V7.49438L104.026 7.49438V15.8911H88.1658V24.2878H110.09" stroke="white" stroke-width="4.66484" stroke-linejoin="round"/>
<path d="M110.09 24.2878H132.015V15.8911H116.155V7.49438L159.071 7.49438V15.8911H143.211V24.2878H165.135" stroke="white" stroke-width="4.66484" stroke-linejoin="round"/>
<path d="M165.135 24.2878H187.06V15.8911H171.2V7.49438L214.116 7.49438V15.8911H198.256V24.2878H220.181" stroke="white" stroke-width="4.66484" stroke-linejoin="round"/>
<rect x="219.82" y="0.00012207" width="220.18" height="31.7209" fill="#F52F1B"/>
<path d="M219.819 24.2572H241.744V15.8605H225.884V7.46375L268.8 7.46375V15.8605H252.94V24.2572H274.864" stroke="white" stroke-width="4.66484" stroke-linejoin="round"/>
<path d="M274.865 24.2572H296.79V15.8605H280.929V7.46375L323.846 7.46375V15.8605H307.985V24.2572H329.91" stroke="white" stroke-width="4.66484" stroke-linejoin="round"/>
<path d="M329.909 24.2572H351.834V15.8605H335.974V7.46375L378.89 7.46375V15.8605H363.03V24.2572H384.955" stroke="white" stroke-width="4.66484" stroke-linejoin="round"/>
<path d="M384.955 24.2572H406.88V15.8605H391.019V7.46375L433.936 7.46375V15.8605H418.075V24.2572H440" stroke="white" stroke-width="4.66484" stroke-linejoin="round"/>
</svg>
