<svg width="1728" height="48" viewBox="0 0 1728 48" fill="none" xmlns="http://www.w3.org/2000/svg">
<rect x="0.00109863" y="0.0473633" width="329.77" height="47.5092" fill="#F52F1B"/>
<path d="M0 36.3768H32.8372V23.8008H9.08264V11.2249L73.3598 11.2249V23.8008H49.6052V36.3768H82.4424" stroke="white" stroke-width="6.98664" stroke-linejoin="round"/>
<path d="M82.4429 36.3768H115.28V23.8008H91.5255V11.2249L155.803 11.2249V23.8008H132.048V36.3768H164.885" stroke="white" stroke-width="6.98664" stroke-linejoin="round"/>
<path d="M164.885 36.3768H197.722V23.8008H173.968V11.2249L238.245 11.2249V23.8008H214.49V36.3768H247.328" stroke="white" stroke-width="6.98664" stroke-linejoin="round"/>
<path d="M247.328 36.3768H280.165V23.8008H256.41V11.2249L320.687 11.2249V23.8008H296.933V36.3768H329.77" stroke="white" stroke-width="6.98664" stroke-linejoin="round"/>
<rect x="329.23" width="329.77" height="47.5092" fill="#F52F1B"/>
<path d="M329.229 36.3304H362.066V23.7544H338.312V11.1785L402.589 11.1785V23.7544H378.834V36.3304H411.671" stroke="white" stroke-width="6.98664" stroke-linejoin="round"/>
<path d="M411.672 36.3304H444.509V23.7544H420.755V11.1785L485.032 11.1785V23.7544H461.277V36.3304H494.115" stroke="white" stroke-width="6.98664" stroke-linejoin="round"/>
<path d="M494.114 36.3304H526.951V23.7544H503.196V11.1785L567.473 11.1785V23.7544H543.719V36.3304H576.556" stroke="white" stroke-width="6.98664" stroke-linejoin="round"/>
<path d="M576.557 36.3304H609.394V23.7544H585.64V11.1785L649.917 11.1785V23.7544H626.162V36.3304H658.999" stroke="white" stroke-width="6.98664" stroke-linejoin="round"/>
<rect x="659.001" y="0.0473633" width="329.77" height="47.5092" fill="#F52F1B"/>
<path d="M659 36.3768H691.837V23.8008H668.083V11.2249L732.36 11.2249V23.8008H708.605V36.3768H741.442" stroke="white" stroke-width="6.98664" stroke-linejoin="round"/>
<path d="M741.443 36.3768H774.28V23.8008H750.526V11.2249L814.803 11.2249V23.8008H791.048V36.3768H823.885" stroke="white" stroke-width="6.98664" stroke-linejoin="round"/>
<path d="M823.885 36.3768H856.722V23.8008H832.968V11.2249L897.245 11.2249V23.8008H873.49V36.3768H906.327" stroke="white" stroke-width="6.98664" stroke-linejoin="round"/>
<path d="M906.328 36.3768H939.165V23.8008H915.41V11.2249L979.687 11.2249V23.8008H955.933V36.3768H988.77" stroke="white" stroke-width="6.98664" stroke-linejoin="round"/>
<rect x="988.23" width="329.77" height="47.5092" fill="#F52F1B"/>
<path d="M988.229 36.3304H1021.07V23.7544H997.312V11.1785L1061.59 11.1785V23.7544H1037.83V36.3304H1070.67" stroke="white" stroke-width="6.98664" stroke-linejoin="round"/>
<path d="M1070.67 36.3304H1103.51V23.7544H1079.76V11.1785L1144.03 11.1785V23.7544H1120.28V36.3304H1153.11" stroke="white" stroke-width="6.98664" stroke-linejoin="round"/>
<path d="M1153.11 36.3304H1185.95V23.7544H1162.2V11.1785L1226.47 11.1785V23.7544H1202.72V36.3304H1235.56" stroke="white" stroke-width="6.98664" stroke-linejoin="round"/>
<path d="M1235.56 36.3304H1268.39V23.7544H1244.64V11.1785L1308.92 11.1785V23.7544H1285.16V36.3304H1318" stroke="white" stroke-width="6.98664" stroke-linejoin="round"/>
<rect x="1318" y="0.0473633" width="329.77" height="47.5092" fill="#F52F1B"/>
<path d="M1318 36.3768H1350.84V23.8008H1327.08V11.2249L1391.36 11.2249V23.8008H1367.61V36.3768H1400.44" stroke="white" stroke-width="6.98664" stroke-linejoin="round"/>
<path d="M1400.44 36.3768H1433.28V23.8008H1409.53V11.2249L1473.8 11.2249V23.8008H1450.05V36.3768H1482.89" stroke="white" stroke-width="6.98664" stroke-linejoin="round"/>
<path d="M1482.89 36.3768H1515.72V23.8008H1491.97V11.2249L1556.24 11.2249V23.8008H1532.49V36.3768H1565.33" stroke="white" stroke-width="6.98664" stroke-linejoin="round"/>
<path d="M1565.33 36.3768H1598.16V23.8008H1574.41V11.2249L1638.69 11.2249V23.8008H1614.93V36.3768H1647.77" stroke="white" stroke-width="6.98664" stroke-linejoin="round"/>
<rect x="1647.23" width="329.77" height="47.5092" fill="#F52F1B"/>
<path d="M1647.23 36.3304H1680.07V23.7544H1656.31V11.1785L1720.59 11.1785V23.7544H1696.83V36.3304H1729.67" stroke="white" stroke-width="6.98664" stroke-linejoin="round"/>
</svg>
