<svg width="1063" height="57" viewBox="0 0 1063 57" fill="none" xmlns="http://www.w3.org/2000/svg">
<path d="M331.795 50.8845L356.841 27.3413L331.795 3.7981" stroke="#F52F1B" stroke-width="5.36962" stroke-linecap="square"/>
<path d="M423.63 3.79736L398.584 27.3406L423.63 50.8838" stroke="#F52F1B" stroke-width="5.36962" stroke-linecap="square"/>
<path d="M436.752 50.8833L461.797 27.3401L436.752 3.79688" stroke="#F52F1B" stroke-width="5.36962" stroke-linecap="square"/>
<path d="M451.061 50.8833L476.107 27.3401L451.061 3.79688" stroke="#F52F1B" stroke-width="5.36962" stroke-linecap="square"/>
<path d="M393.813 50.8838L378.309 35.1883L362.804 50.8838" stroke="#F52F1B" stroke-width="5.36962" stroke-linecap="square"/>
<path d="M362.804 3.79687L378.309 19.4923L393.814 3.79688" stroke="#F52F1B" stroke-width="5.36962" stroke-linecap="square"/>
<path d="M346.107 50.8833L371.153 27.3401L346.107 3.79688" stroke="#F52F1B" stroke-width="5.36962" stroke-linecap="square"/>
<path d="M409.32 3.79736L384.274 27.3406L409.32 50.8838" stroke="#F52F1B" stroke-width="5.36962" stroke-linecap="square"/>
<rect width="12.8705" height="12.8705" transform="matrix(0.728627 -0.684911 0.728627 0.684911 420.052 28.3098)" fill="#F52F1B"/>
<path d="M212.795 50.8845L237.841 27.3413L212.795 3.7981" stroke="#F52F1B" stroke-width="5.36962" stroke-linecap="square"/>
<path d="M304.63 3.79736L279.584 27.3406L304.63 50.8838" stroke="#F52F1B" stroke-width="5.36962" stroke-linecap="square"/>
<path d="M317.752 50.8833L342.797 27.3401L317.752 3.79688" stroke="#F52F1B" stroke-width="5.36962" stroke-linecap="square"/>
<path d="M332.061 50.8833L357.107 27.3401L332.061 3.79688" stroke="#F52F1B" stroke-width="5.36962" stroke-linecap="square"/>
<path d="M274.813 50.8838L259.309 35.1883L243.804 50.8838" stroke="#F52F1B" stroke-width="5.36962" stroke-linecap="square"/>
<path d="M243.804 3.79687L259.309 19.4923L274.814 3.79688" stroke="#F52F1B" stroke-width="5.36962" stroke-linecap="square"/>
<path d="M227.107 50.8833L252.153 27.3401L227.107 3.79688" stroke="#F52F1B" stroke-width="5.36962" stroke-linecap="square"/>
<path d="M290.32 3.79736L265.274 27.3406L290.32 50.8838" stroke="#F52F1B" stroke-width="5.36962" stroke-linecap="square"/>
<rect width="12.8705" height="12.8705" transform="matrix(0.728627 -0.684911 0.728627 0.684911 301.052 28.3098)" fill="#F52F1B"/>
<path d="M108.795 50.8845L133.841 27.3413L108.795 3.7981" stroke="#F52F1B" stroke-width="5.36962" stroke-linecap="square"/>
<path d="M200.63 3.79736L175.584 27.3406L200.63 50.8838" stroke="#F52F1B" stroke-width="5.36962" stroke-linecap="square"/>
<path d="M213.751 50.8833L238.797 27.3401L213.751 3.79688" stroke="#F52F1B" stroke-width="5.36962" stroke-linecap="square"/>
<path d="M228.061 50.8833L253.107 27.3401L228.061 3.79688" stroke="#F52F1B" stroke-width="5.36962" stroke-linecap="square"/>
<path d="M170.813 50.8838L155.309 35.1883L139.804 50.8838" stroke="#F52F1B" stroke-width="5.36962" stroke-linecap="square"/>
<path d="M139.804 3.79687L155.309 19.4923L170.814 3.79688" stroke="#F52F1B" stroke-width="5.36962" stroke-linecap="square"/>
<path d="M123.107 50.8833L148.153 27.3401L123.107 3.79688" stroke="#F52F1B" stroke-width="5.36962" stroke-linecap="square"/>
<path d="M186.32 3.79736L161.274 27.3406L186.32 50.8838" stroke="#F52F1B" stroke-width="5.36962" stroke-linecap="square"/>
<rect width="12.8705" height="12.8705" transform="matrix(0.728627 -0.684911 0.728627 0.684911 197.052 28.3098)" fill="#F52F1B"/>
<path d="M3.7951 51.8845L28.841 28.3413L3.7951 4.7981" stroke="#F52F1B" stroke-width="5.36962" stroke-linecap="square"/>
<path d="M95.63 4.79736L70.5841 28.3406L95.63 51.8838" stroke="#F52F1B" stroke-width="5.36962" stroke-linecap="square"/>
<path d="M108.751 51.8833L133.797 28.3401L108.751 4.79688" stroke="#F52F1B" stroke-width="5.36962" stroke-linecap="square"/>
<path d="M123.061 51.8833L148.107 28.3401L123.061 4.79688" stroke="#F52F1B" stroke-width="5.36962" stroke-linecap="square"/>
<path d="M65.8132 51.8838L50.3086 36.1883L34.804 51.8838" stroke="#F52F1B" stroke-width="5.36962" stroke-linecap="square"/>
<path d="M34.8043 4.79687L50.3089 20.4923L65.8135 4.79688" stroke="#F52F1B" stroke-width="5.36962" stroke-linecap="square"/>
<path d="M18.1072 51.8833L43.1531 28.3401L18.1072 4.79688" stroke="#F52F1B" stroke-width="5.36962" stroke-linecap="square"/>
<path d="M81.3198 4.79736L56.2739 28.3406L81.3198 51.8838" stroke="#F52F1B" stroke-width="5.36962" stroke-linecap="square"/>
<rect width="12.8705" height="12.8705" transform="matrix(0.728627 -0.684911 0.728627 0.684911 92.0517 29.3098)" fill="#F52F1B"/>
<path d="M528.107 51.8845L503.061 28.3413L528.107 4.7981" stroke="#F52F1B" stroke-width="5.36962" stroke-linecap="square"/>
<path d="M436.272 4.79736L461.318 28.3406L436.272 51.8838" stroke="#F52F1B" stroke-width="5.36962" stroke-linecap="square"/>
<path d="M423.151 51.8833L398.105 28.3401L423.151 4.79688" stroke="#F52F1B" stroke-width="5.36962" stroke-linecap="square"/>
<path d="M408.841 51.8833L383.795 28.3401L408.841 4.79688" stroke="#F52F1B" stroke-width="5.36962" stroke-linecap="square"/>
<path d="M466.089 51.8838L481.594 36.1883L497.099 51.8838" stroke="#F52F1B" stroke-width="5.36962" stroke-linecap="square"/>
<path d="M497.098 4.79687L481.594 20.4923L466.089 4.79688" stroke="#F52F1B" stroke-width="5.36962" stroke-linecap="square"/>
<path d="M513.795 51.8833L488.749 28.3401L513.795 4.79688" stroke="#F52F1B" stroke-width="5.36962" stroke-linecap="square"/>
<path d="M450.583 4.79736L475.629 28.3406L450.583 51.8838" stroke="#F52F1B" stroke-width="5.36962" stroke-linecap="square"/>
<rect width="12.8705" height="12.8705" transform="matrix(-0.728627 -0.684911 -0.728627 0.684911 439.851 29.3098)" fill="#F52F1B"/>
<path d="M632.107 52.8845L607.061 29.3413L632.107 5.7981" stroke="#F52F1B" stroke-width="5.36962" stroke-linecap="square"/>
<path d="M540.272 5.79736L565.318 29.3406L540.272 52.8838" stroke="#F52F1B" stroke-width="5.36962" stroke-linecap="square"/>
<path d="M527.151 52.8833L502.105 29.3401L527.151 5.79688" stroke="#F52F1B" stroke-width="5.36962" stroke-linecap="square"/>
<path d="M512.841 52.8833L487.795 29.3401L512.841 5.79688" stroke="#F52F1B" stroke-width="5.36962" stroke-linecap="square"/>
<path d="M570.089 52.8838L585.594 37.1883L601.099 52.8838" stroke="#F52F1B" stroke-width="5.36962" stroke-linecap="square"/>
<path d="M601.098 5.79687L585.594 21.4923L570.089 5.79688" stroke="#F52F1B" stroke-width="5.36962" stroke-linecap="square"/>
<path d="M617.795 52.8833L592.749 29.3401L617.795 5.79688" stroke="#F52F1B" stroke-width="5.36962" stroke-linecap="square"/>
<path d="M554.583 5.79736L579.629 29.3406L554.583 52.8838" stroke="#F52F1B" stroke-width="5.36962" stroke-linecap="square"/>
<rect width="12.8705" height="12.8705" transform="matrix(-0.728627 -0.684911 -0.728627 0.684911 543.851 30.3098)" fill="#F52F1B"/>
<path d="M867.795 50.8845L892.841 27.3413L867.795 3.7981" stroke="#F52F1B" stroke-width="5.36962" stroke-linecap="square"/>
<path d="M959.63 3.79736L934.584 27.3406L959.63 50.8838" stroke="#F52F1B" stroke-width="5.36962" stroke-linecap="square"/>
<path d="M972.752 50.8833L997.797 27.3401L972.752 3.79688" stroke="#F52F1B" stroke-width="5.36962" stroke-linecap="square"/>
<path d="M987.061 50.8833L1012.11 27.3401L987.061 3.79688" stroke="#F52F1B" stroke-width="5.36962" stroke-linecap="square"/>
<path d="M929.813 50.8838L914.309 35.1883L898.804 50.8838" stroke="#F52F1B" stroke-width="5.36962" stroke-linecap="square"/>
<path d="M898.804 3.79687L914.309 19.4923L929.814 3.79688" stroke="#F52F1B" stroke-width="5.36962" stroke-linecap="square"/>
<path d="M882.107 50.8833L907.153 27.3401L882.107 3.79688" stroke="#F52F1B" stroke-width="5.36962" stroke-linecap="square"/>
<path d="M945.32 3.79736L920.274 27.3406L945.32 50.8838" stroke="#F52F1B" stroke-width="5.36962" stroke-linecap="square"/>
<rect width="12.8705" height="12.8705" transform="matrix(0.728627 -0.684911 0.728627 0.684911 956.052 28.3098)" fill="#F52F1B"/>
<path d="M748.795 50.8845L773.841 27.3413L748.795 3.7981" stroke="#F52F1B" stroke-width="5.36962" stroke-linecap="square"/>
<path d="M840.63 3.79736L815.584 27.3406L840.63 50.8838" stroke="#F52F1B" stroke-width="5.36962" stroke-linecap="square"/>
<path d="M853.752 50.8833L878.797 27.3401L853.752 3.79688" stroke="#F52F1B" stroke-width="5.36962" stroke-linecap="square"/>
<path d="M868.061 50.8833L893.107 27.3401L868.061 3.79688" stroke="#F52F1B" stroke-width="5.36962" stroke-linecap="square"/>
<path d="M810.813 50.8838L795.309 35.1883L779.804 50.8838" stroke="#F52F1B" stroke-width="5.36962" stroke-linecap="square"/>
<path d="M779.804 3.79687L795.309 19.4923L810.814 3.79688" stroke="#F52F1B" stroke-width="5.36962" stroke-linecap="square"/>
<path d="M763.107 50.8833L788.153 27.3401L763.107 3.79688" stroke="#F52F1B" stroke-width="5.36962" stroke-linecap="square"/>
<path d="M826.32 3.79736L801.274 27.3406L826.32 50.8838" stroke="#F52F1B" stroke-width="5.36962" stroke-linecap="square"/>
<rect width="12.8705" height="12.8705" transform="matrix(0.728627 -0.684911 0.728627 0.684911 837.052 28.3098)" fill="#F52F1B"/>
<path d="M644.795 50.8845L669.841 27.3413L644.795 3.7981" stroke="#F52F1B" stroke-width="5.36962" stroke-linecap="square"/>
<path d="M736.63 3.79736L711.584 27.3406L736.63 50.8838" stroke="#F52F1B" stroke-width="5.36962" stroke-linecap="square"/>
<path d="M749.751 50.8833L774.797 27.3401L749.751 3.79688" stroke="#F52F1B" stroke-width="5.36962" stroke-linecap="square"/>
<path d="M764.061 50.8833L789.107 27.3401L764.061 3.79688" stroke="#F52F1B" stroke-width="5.36962" stroke-linecap="square"/>
<path d="M706.813 50.8838L691.309 35.1883L675.804 50.8838" stroke="#F52F1B" stroke-width="5.36962" stroke-linecap="square"/>
<path d="M675.804 3.79687L691.309 19.4923L706.814 3.79688" stroke="#F52F1B" stroke-width="5.36962" stroke-linecap="square"/>
<path d="M659.107 50.8833L684.153 27.3401L659.107 3.79688" stroke="#F52F1B" stroke-width="5.36962" stroke-linecap="square"/>
<path d="M722.32 3.79736L697.274 27.3406L722.32 50.8838" stroke="#F52F1B" stroke-width="5.36962" stroke-linecap="square"/>
<rect width="12.8705" height="12.8705" transform="matrix(0.728627 -0.684911 0.728627 0.684911 733.052 28.3098)" fill="#F52F1B"/>
<path d="M539.795 51.8845L564.841 28.3413L539.795 4.7981" stroke="#F52F1B" stroke-width="5.36962" stroke-linecap="square"/>
<path d="M631.63 4.79736L606.584 28.3406L631.63 51.8838" stroke="#F52F1B" stroke-width="5.36962" stroke-linecap="square"/>
<path d="M644.751 51.8833L669.797 28.3401L644.751 4.79688" stroke="#F52F1B" stroke-width="5.36962" stroke-linecap="square"/>
<path d="M659.061 51.8833L684.107 28.3401L659.061 4.79688" stroke="#F52F1B" stroke-width="5.36962" stroke-linecap="square"/>
<path d="M601.813 51.8838L586.309 36.1883L570.804 51.8838" stroke="#F52F1B" stroke-width="5.36962" stroke-linecap="square"/>
<path d="M570.804 4.79687L586.309 20.4923L601.814 4.79688" stroke="#F52F1B" stroke-width="5.36962" stroke-linecap="square"/>
<path d="M554.107 51.8833L579.153 28.3401L554.107 4.79688" stroke="#F52F1B" stroke-width="5.36962" stroke-linecap="square"/>
<path d="M617.32 4.79736L592.274 28.3406L617.32 51.8838" stroke="#F52F1B" stroke-width="5.36962" stroke-linecap="square"/>
<rect width="12.8705" height="12.8705" transform="matrix(0.728627 -0.684911 0.728627 0.684911 628.052 29.3098)" fill="#F52F1B"/>
<path d="M1064.11 51.8845L1039.06 28.3413L1064.11 4.7981" stroke="#F52F1B" stroke-width="5.36962" stroke-linecap="square"/>
<path d="M972.272 4.79736L997.318 28.3406L972.272 51.8838" stroke="#F52F1B" stroke-width="5.36962" stroke-linecap="square"/>
<path d="M959.151 51.8833L934.105 28.3401L959.151 4.79688" stroke="#F52F1B" stroke-width="5.36962" stroke-linecap="square"/>
<path d="M944.841 51.8833L919.795 28.3401L944.841 4.79688" stroke="#F52F1B" stroke-width="5.36962" stroke-linecap="square"/>
<path d="M1002.09 51.8838L1017.59 36.1883L1033.1 51.8838" stroke="#F52F1B" stroke-width="5.36962" stroke-linecap="square"/>
<path d="M1033.1 4.79687L1017.59 20.4923L1002.09 4.79688" stroke="#F52F1B" stroke-width="5.36962" stroke-linecap="square"/>
<path d="M1049.8 51.8833L1024.75 28.3401L1049.8 4.79688" stroke="#F52F1B" stroke-width="5.36962" stroke-linecap="square"/>
<path d="M986.583 4.79736L1011.63 28.3406L986.583 51.8838" stroke="#F52F1B" stroke-width="5.36962" stroke-linecap="square"/>
<rect width="12.8705" height="12.8705" transform="matrix(-0.728627 -0.684911 -0.728627 0.684911 975.851 29.3098)" fill="#F52F1B"/>
<path d="M1063.15 52.8833L1038.11 29.3401L1063.15 5.79688" stroke="#F52F1B" stroke-width="5.36962" stroke-linecap="square"/>
<path d="M1048.84 52.8833L1023.8 29.3401L1048.84 5.79688" stroke="#F52F1B" stroke-width="5.36962" stroke-linecap="square"/>
<rect width="12.8705" height="12.8705" transform="matrix(-0.728627 -0.684911 -0.728627 0.684911 1079.85 30.3098)" fill="#F52F1B"/>
</svg>
