<svg width="745" height="651" viewBox="0 0 745 651" fill="none" xmlns="http://www.w3.org/2000/svg">
<g clip-path="url(#clip0_170_1109)">
<path d="M299.077 168.676C296.517 172.44 296.517 172.44 293.116 173.263L289.454 172.977L285.795 172.759L282.342 172.421C263.681 170.963 242.485 180.402 227.874 191.233C212.797 204.182 202.666 221.659 198.395 240.986C198.345 245.779 198.345 245.779 198.792 249.728L192.124 251.072C174.658 254.832 160.623 258.509 147.466 271.303L143.922 274.696C126.821 292.264 119.816 312.028 118.823 336.333C118.955 341.727 119.697 346.466 120.817 351.729C122.454 360.736 120.343 365.767 116.257 373.786C95.0519 417.099 93.6042 469.382 104.616 515.31L105.98 521.11C111.103 541.271 121.39 557.161 138.84 568.919C153.565 577.306 172.934 581.648 189.507 577.584L194.444 576.386L199.849 575.048L205.607 573.643C211.997 572.081 218.385 570.507 224.772 568.933C229.344 567.811 233.916 566.692 238.488 565.573C252.227 562.207 265.962 558.825 279.697 555.44C283.578 554.484 287.46 553.527 291.342 552.571C315.462 546.631 339.582 540.685 363.698 534.723L380.452 530.582L384.658 529.542C407.123 523.991 429.596 518.473 452.072 512.97C475.166 507.315 498.252 501.628 521.33 495.911C534.281 492.703 547.234 489.51 560.197 486.352C571.242 483.661 582.279 480.942 593.307 478.185C598.928 476.782 604.551 475.396 610.183 474.038C640.308 466.761 664.225 460.203 681.43 432.636C693.279 411.552 693.566 390.51 687.354 367.671C678.508 337.917 664.172 308.96 643.861 285.325C640.637 281.533 640.637 281.533 639.525 277.499C640.229 272.856 641.317 270.501 643.536 266.448C653.729 247.472 652.557 226.164 647.133 206.018C641.144 187.955 627.147 171.397 610.883 161.62C584.697 149.252 562.741 147.099 535.02 155.692C531.417 157.387 531.417 157.387 528.76 159.013L526.89 155.941C514.612 140.559 495.996 130.938 476.716 127.727C456.937 125.729 437.377 129.337 420.356 139.723C412.726 144.102 412.726 144.102 407.942 143.093C404.458 141.236 404.458 141.236 401.048 139.009C394.706 135.039 387.664 133.689 380.402 132.178L376.759 131.355C348.628 127.025 312.616 143.621 299.077 168.676Z" fill="#A87B15"/>
<path d="M545.654 248.524C547.34 249.364 549.025 250.203 550.762 251.069C588.355 270.393 618.308 299.671 638.429 336.887C639.388 338.616 640.346 340.345 641.334 342.126C647.569 354.222 651.64 366.363 655.09 379.494C655.508 381.023 655.927 382.552 656.359 384.127C659.253 395.956 658.676 405.14 653.499 416.223C643.845 429.42 631.679 434.836 616.091 438.539C613.712 439.136 613.712 439.136 611.285 439.745C606.007 441.064 600.721 442.346 595.435 443.629C591.635 444.57 587.836 445.514 584.037 446.459C573.748 449.014 563.452 451.537 553.154 454.055C542.384 456.695 531.621 459.362 520.857 462.027C502.798 466.493 484.735 470.942 466.669 475.377C448.066 479.944 429.466 484.522 410.869 489.114C409.721 489.397 408.573 489.681 407.391 489.973C401.633 491.395 395.876 492.816 390.118 494.239C342.404 506.023 294.682 517.77 246.954 529.495C247.812 518.674 248.669 507.853 249.527 497.032C249.12 494.672 248.632 492.325 248.091 489.992C234.293 427.762 244.409 371.73 278.504 317.574C335.954 231.294 453.567 202.169 545.654 248.524Z" fill="#FFB200"/>
<path d="M219.603 286.33C230.292 290.511 238.024 296.481 245.149 305.406C246.017 312.691 242.945 315.836 238.967 321.816C227.95 340.066 220.859 361.144 215.59 381.692C202.251 384.942 191.854 384.05 179.327 378.314C174.322 375.17 170.173 371.653 166.01 367.475C164.56 366.048 163.11 364.621 161.616 363.15C154.849 353.491 151.722 339.256 152.032 327.62C152.772 323.871 153.817 320.625 155.281 317.097C155.736 315.902 156.19 314.706 156.659 313.475C167.467 288.674 194.4 278.323 219.603 286.33Z" fill="#FFB200"/>
<path d="M144.28 394.081C145.517 394.358 146.755 394.634 148.03 394.919C147.38 400.49 146.349 405.817 144.998 411.252C140.749 430.282 144.567 448.464 154.207 465.321C168.336 487.18 186.742 500.336 212.041 506.11C214.284 506.538 214.284 506.538 216.573 506.975C216.607 516.663 214.372 524.198 208.597 531.938C199.651 539.823 190.387 544.95 178.548 546.466C165.822 545.674 155.135 541.476 146.369 532.219C140.541 525.121 138.407 517.815 136.367 508.975C135.99 507.387 135.612 505.798 135.224 504.162C128.292 472.383 126.649 423.288 144.28 394.081Z" fill="#FFB200"/>
<path d="M300.306 209.131C309.473 213.175 317.029 219.515 322.652 227.834C322.44 230.512 322.44 230.512 322.224 233.244C319.167 235.18 316.098 237.098 312.992 238.954C297.999 248.893 284.64 261.725 272.604 274.998C269.596 278.127 269.596 278.127 265.003 281.034C264.195 280.123 263.387 279.211 262.554 278.272C255.81 271.051 249.936 266.058 240.891 261.934C232.818 257.954 232.818 257.954 230.283 251.748C232.872 235.281 240.585 223.624 253.479 213.174C267.949 204.228 284.541 203.798 300.306 209.131Z" fill="#FFB200"/>
<path d="M544.95 188.586C562.561 183.163 574.784 181.973 591.687 189.585C604.792 196.976 611.771 206.145 615.875 220.596C618.037 230.828 617.77 239.034 614.848 249.025C614.432 250.878 614.432 250.878 614.006 252.769C612.905 253.043 611.804 253.316 610.67 253.597C607.342 251.088 604.174 248.519 600.995 245.833C592.92 239.224 584.688 233.278 575.737 227.904C574.689 227.272 573.642 226.641 572.563 225.99C566.623 222.515 560.851 219.977 554.317 217.861C550.619 216.452 550.619 216.452 547.811 214.393C545.627 208.7 545.377 203.378 545.347 197.326C545.219 194.413 545.088 191.499 544.95 188.586Z" fill="#FFB200"/>
<path d="M384.95 167.512C400.261 173.548 407.277 181.707 414.014 196.319C412.203 196.835 412.203 196.835 410.355 197.361C404.787 198.95 399.22 200.547 393.654 202.144C391.755 202.685 389.856 203.226 387.9 203.783C376.165 207.156 364.599 210.825 353.113 214.966C351.93 213.555 350.746 212.144 349.527 210.69C347.951 208.825 346.374 206.961 344.797 205.096C344.02 204.168 343.243 203.24 342.443 202.283C339.102 198.344 335.87 194.725 331.827 191.493C328.992 189.131 328.992 189.131 327.753 184.135C329.772 182.187 331.802 180.25 333.836 178.316C335.529 176.696 335.529 176.696 337.258 175.044C350.28 163.849 369.114 162.481 384.95 167.512Z" fill="#FFB200"/>
<path d="M481.267 163.061C492.204 167.314 503.117 174.599 508.678 185.207C510.16 190.158 511.351 195.135 512.397 200.194C506.925 200.387 502.229 199.602 496.899 198.405C484.968 196.07 473.064 195.652 460.943 195.227C459.435 195.173 457.928 195.119 456.374 195.064C454.333 195.002 454.333 195.002 452.251 194.939C449.048 194.7 449.048 194.7 446.966 193.448C445.188 189.137 443.497 184.828 441.862 180.462C441.397 179.236 440.932 178.011 440.453 176.748C439.302 173.712 438.159 170.672 437.018 167.632C450.836 159.772 466.228 158.283 481.267 163.061Z" fill="#FFB200"/>
<path d="M328.485 422.633C333.788 423.746 335.947 425.171 340.563 428.477C343.672 434.325 344.116 437.893 342.24 444.271C340.262 449.049 337.997 453.499 335.495 458.025C334.198 460.405 334.198 460.405 332.875 462.833C328.359 470.27 324.743 475.725 316.193 478.396C310.601 479.186 308.381 478.669 302.829 476.739C298.358 472.546 295.85 469.383 294.733 463.27C295.449 454.109 301.141 446.437 305.935 438.838C306.699 437.499 307.463 436.161 308.25 434.782C313.673 425.984 318.081 423.37 328.485 422.633Z" fill="#A87B15"/>
<path d="M448.039 276.282C453.342 277.395 455.501 278.819 460.117 282.126C463.226 287.973 463.67 291.541 461.794 297.92C459.816 302.697 457.551 307.147 455.049 311.673C453.753 314.053 453.753 314.053 452.43 316.481C447.913 323.918 444.297 329.373 435.747 332.044C430.155 332.835 427.935 332.317 422.383 330.388C417.912 326.195 415.405 323.032 414.287 316.918C415.004 307.757 420.696 300.086 425.489 292.486C426.253 291.148 427.017 289.809 427.804 288.43C433.228 279.632 437.636 277.018 448.039 276.282Z" fill="#A87B15"/>
<path d="M545.497 319.284C557.091 322.868 572.447 329.507 580.477 338.895C583.103 346.248 584.817 351.442 581.892 358.878C577.43 364.95 575.186 366.376 567.96 367.563C562.549 367.616 559.157 365.759 554.574 363.004C552.916 362.066 551.259 361.128 549.551 360.162C547.773 359.034 545.996 357.907 544.164 356.746C543.044 356.115 541.924 355.483 540.77 354.833C534.223 350.824 530.508 347.619 528.201 340.153C527.219 334.365 527.609 332.393 529.716 326.626C535.088 320.805 537.543 319.652 545.497 319.284Z" fill="#A87B15"/>
<path d="M177.172 412.443C179.592 412.769 179.592 412.769 182.061 413.101C184.186 413.378 186.312 413.655 188.502 413.941C190.605 414.219 192.708 414.497 194.875 414.783C199.966 415.292 204.596 415.397 209.681 414.983C209.655 416.849 209.63 418.715 209.603 420.637C209.581 431.062 210.139 441.459 210.642 451.868C210.737 453.889 210.832 455.909 210.93 457.991C211.163 462.939 211.399 467.887 211.638 472.835C197.54 467.538 188.821 461.817 180.844 448.655C176.055 436.083 173.42 425.579 177.172 412.443Z" fill="#FFB200"/>
<path d="M344.132 321.51C351.252 324.372 353.838 326.209 357.003 333.232C357.555 341.2 356.065 344.904 351.57 351.486C346.325 354.886 346.325 354.886 340.304 356.049C334.541 354.416 329.678 351.901 325.733 347.289C323.738 341.928 323.738 341.928 322.84 335.632C328.148 324.591 331.825 321.641 344.132 321.51Z" fill="#A87B15"/>
<path d="M475.707 394.943C480.881 395.854 484.095 396.975 488.28 400.11C491.871 406.567 492.842 413.945 490.943 421.106C486.389 425.299 481.185 427.382 475.216 428.655C469.879 427.86 466.922 426.693 462.643 423.487C459.547 417.921 458.823 412.494 459.008 406.158C462.047 397.399 466.807 396.028 475.707 394.943Z" fill="#A87B15"/>
<path d="M144.275 394.083C145.512 394.359 146.749 394.635 148.024 394.92C147.359 400.625 146.444 406.285 145.382 411.929C145.153 413.198 144.925 414.467 144.689 415.774C143.386 419.053 143.386 419.053 140.131 421.159C139.139 421.56 138.147 421.961 137.126 422.375C137.21 412.094 140.58 403.528 144.275 394.083Z" fill="#FFB200"/>
</g>
<defs>
<clipPath id="clip0_170_1109">
<rect width="639.794" height="511.355" fill="white" transform="translate(0 154.079) rotate(-13.9353)"/>
</clipPath>
</defs>
</svg>
